M48
;DRILL file {KiCad (5.0.0)} date 12/11/18 22:23:19
;FORMAT={-:-/ absolute / inch / decimal}
FMAT,2
INCH,TZ
T1C0.0157
T2C0.0236
T3C0.0276
T4C0.0315
T5C0.0354
T6C0.0394
T7C0.0413
T8C0.0669
T9C0.1260
%
G90
G05
M72
T1
X0.9055Y-1.8307
X1.0538Y-1.6234
X1.0827Y-1.3583
X1.122Y-1.3976
X1.1417Y-1.5354
X1.2008Y-1.8898
X1.2992Y-1.8307
X1.2992Y-1.8898
X1.437Y-1.5354
X1.4764Y-1.5354
T2
X1.2402Y-1.1713
X1.2402Y-1.25
T3
X1.0236Y-0.9055
X1.3236Y-0.9055
X1.0236Y-0.7087
X1.3236Y-0.7087
X1.5551Y-1.126
X1.5551Y-1.426
T4
X1.5551Y-1.5354
X1.5551Y-1.7323
X1.6882Y-0.9835
X1.6882Y-1.0835
X1.6882Y-1.1835
X1.6882Y-1.2835
X1.6882Y-1.3835
X1.6882Y-1.4835
X1.6882Y-1.5835
X1.6882Y-1.6835
X1.6882Y-1.7835
X1.6882Y-1.8835
X1.6882Y-1.9835
X1.6882Y-2.0835
X1.6882Y-2.1835
X1.6882Y-2.2835
X1.9882Y-0.9835
X1.9882Y-1.0835
X1.9882Y-1.1835
X1.9882Y-1.2835
X1.9882Y-1.3835
X1.9882Y-1.4835
X1.9882Y-1.5835
X1.9882Y-1.6835
X1.9882Y-1.7835
X1.9882Y-1.8835
X1.9882Y-1.9835
X1.9882Y-2.0835
X1.9882Y-2.1835
X1.9882Y-2.2835
T5
X1.4354Y-0.7087
X1.5354Y-0.7087
X1.4354Y-0.9055
X1.5354Y-0.9055
T6
X0.7585Y-2.0078
X0.857Y-2.0078
X0.9554Y-2.0078
X1.0538Y-2.0078
X1.1522Y-2.0078
X1.2507Y-2.0078
X1.5354Y-2.0835
X1.5354Y-2.1835
X1.5354Y-2.2835
X0.7585Y-1.7519
X0.857Y-1.7519
X0.9554Y-1.7519
X1.0538Y-1.7519
X1.1522Y-1.7519
X1.2507Y-1.7519
T7
X2.2047Y-1.4173
X2.3031Y-1.4173
X2.9134Y-2.0472
X3.0118Y-2.0472
X2.5591Y-1.1024
X2.6575Y-1.1024
X2.9134Y-1.1024
X3.0118Y-1.1024
X2.2047Y-1.7323
X2.3031Y-1.7323
X2.9134Y-1.4173
X3.0118Y-1.4173
X2.9134Y-1.7323
X3.0118Y-1.7323
X2.5591Y-1.4173
X2.6575Y-1.4173
X2.2047Y-2.0472
X2.3031Y-2.0472
X3.2677Y-1.4173
X3.3661Y-1.4173
X2.5591Y-2.0472
X2.6575Y-2.0472
X2.2047Y-1.1024
X2.3031Y-1.1024
X3.2677Y-2.0472
X3.3661Y-2.0472
X3.2677Y-1.1024
X3.3661Y-1.1024
X2.5591Y-1.7323
X2.6575Y-1.7323
X3.2677Y-1.7323
X3.3661Y-1.7323
T8
X0.8563Y-1.1349
X0.8563Y-1.2909
X0.8563Y-1.4469
T9
X0.7874Y-2.3622
X3.3465Y-2.3622
X3.3465Y-0.7874
X0.7874Y-0.7874
T0
M30
