G04 #@! TF.GenerationSoftware,KiCad,Pcbnew,(5.0.0)*
G04 #@! TF.CreationDate,2018-12-11T22:23:17+01:00*
G04 #@! TF.ProjectId,TLC5940_LED_driver_board-rev_1.0,544C43353934305F4C45445F64726976,rev?*
G04 #@! TF.SameCoordinates,Original*
G04 #@! TF.FileFunction,Legend,Top*
G04 #@! TF.FilePolarity,Positive*
%FSLAX46Y46*%
G04 Gerber Fmt 4.6, Leading zero omitted, Abs format (unit mm)*
G04 Created by KiCad (PCBNEW (5.0.0)) date 12/11/18 22:23:17*
%MOMM*%
%LPD*%
G01*
G04 APERTURE LIST*
%ADD10C,0.200000*%
%ADD11C,0.250000*%
%ADD12C,0.400000*%
%ADD13C,0.300000*%
%ADD14C,0.120000*%
%ADD15C,0.150000*%
%ADD16C,0.010000*%
G04 APERTURE END LIST*
D10*
X32500000Y-37500000D02*
X32000000Y-38000000D01*
X32000000Y-37000000D02*
X32500000Y-37500000D01*
X32500000Y-37500000D02*
X32000000Y-37000000D01*
X28000000Y-37500000D02*
X32500000Y-37500000D01*
D11*
X33400595Y-35821428D02*
X34162500Y-35821428D01*
X33781547Y-36202380D02*
X33781547Y-35440476D01*
X35162500Y-36202380D02*
X34591071Y-36202380D01*
X34876785Y-36202380D02*
X34876785Y-35202380D01*
X34781547Y-35345238D01*
X34686309Y-35440476D01*
X34591071Y-35488095D01*
X35543452Y-35297619D02*
X35591071Y-35250000D01*
X35686309Y-35202380D01*
X35924404Y-35202380D01*
X36019642Y-35250000D01*
X36067261Y-35297619D01*
X36114880Y-35392857D01*
X36114880Y-35488095D01*
X36067261Y-35630952D01*
X35495833Y-36202380D01*
X36114880Y-36202380D01*
X36400595Y-35202380D02*
X36733928Y-36202380D01*
X37067261Y-35202380D01*
X33924404Y-37000000D02*
X33829166Y-36952380D01*
X33686309Y-36952380D01*
X33543452Y-37000000D01*
X33448214Y-37095238D01*
X33400595Y-37190476D01*
X33352976Y-37380952D01*
X33352976Y-37523809D01*
X33400595Y-37714285D01*
X33448214Y-37809523D01*
X33543452Y-37904761D01*
X33686309Y-37952380D01*
X33781547Y-37952380D01*
X33924404Y-37904761D01*
X33972023Y-37857142D01*
X33972023Y-37523809D01*
X33781547Y-37523809D01*
X34400595Y-37952380D02*
X34400595Y-36952380D01*
X34972023Y-37952380D01*
X34972023Y-36952380D01*
X35448214Y-37952380D02*
X35448214Y-36952380D01*
X35686309Y-36952380D01*
X35829166Y-37000000D01*
X35924404Y-37095238D01*
X35972023Y-37190476D01*
X36019642Y-37380952D01*
X36019642Y-37523809D01*
X35972023Y-37714285D01*
X35924404Y-37809523D01*
X35829166Y-37904761D01*
X35686309Y-37952380D01*
X35448214Y-37952380D01*
X33257738Y-38702380D02*
X33591071Y-39702380D01*
X33924404Y-38702380D01*
X34829166Y-39607142D02*
X34781547Y-39654761D01*
X34638690Y-39702380D01*
X34543452Y-39702380D01*
X34400595Y-39654761D01*
X34305357Y-39559523D01*
X34257738Y-39464285D01*
X34210119Y-39273809D01*
X34210119Y-39130952D01*
X34257738Y-38940476D01*
X34305357Y-38845238D01*
X34400595Y-38750000D01*
X34543452Y-38702380D01*
X34638690Y-38702380D01*
X34781547Y-38750000D01*
X34829166Y-38797619D01*
X35829166Y-39607142D02*
X35781547Y-39654761D01*
X35638690Y-39702380D01*
X35543452Y-39702380D01*
X35400595Y-39654761D01*
X35305357Y-39559523D01*
X35257738Y-39464285D01*
X35210119Y-39273809D01*
X35210119Y-39130952D01*
X35257738Y-38940476D01*
X35305357Y-38845238D01*
X35400595Y-38750000D01*
X35543452Y-38702380D01*
X35638690Y-38702380D01*
X35781547Y-38750000D01*
X35829166Y-38797619D01*
D12*
X39500000Y-63500000D02*
X40500000Y-62500000D01*
X40500000Y-62500000D02*
X39500000Y-61500000D01*
X36000000Y-55500000D02*
X37000000Y-55500000D01*
X36000000Y-62500000D02*
X36000000Y-55500000D01*
X40500000Y-62500000D02*
X36000000Y-62500000D01*
D11*
X40900595Y-61696428D02*
X41662500Y-61696428D01*
X43424404Y-61125000D02*
X43329166Y-61077380D01*
X43186309Y-61077380D01*
X43043452Y-61125000D01*
X42948214Y-61220238D01*
X42900595Y-61315476D01*
X42852976Y-61505952D01*
X42852976Y-61648809D01*
X42900595Y-61839285D01*
X42948214Y-61934523D01*
X43043452Y-62029761D01*
X43186309Y-62077380D01*
X43281547Y-62077380D01*
X43424404Y-62029761D01*
X43472023Y-61982142D01*
X43472023Y-61648809D01*
X43281547Y-61648809D01*
X43900595Y-62077380D02*
X43900595Y-61410714D01*
X43900595Y-61601190D02*
X43948214Y-61505952D01*
X43995833Y-61458333D01*
X44091071Y-61410714D01*
X44186309Y-61410714D01*
X44948214Y-62077380D02*
X44948214Y-61553571D01*
X44900595Y-61458333D01*
X44805357Y-61410714D01*
X44614880Y-61410714D01*
X44519642Y-61458333D01*
X44948214Y-62029761D02*
X44852976Y-62077380D01*
X44614880Y-62077380D01*
X44519642Y-62029761D01*
X44472023Y-61934523D01*
X44472023Y-61839285D01*
X44519642Y-61744047D01*
X44614880Y-61696428D01*
X44852976Y-61696428D01*
X44948214Y-61648809D01*
X45329166Y-61410714D02*
X45567261Y-62077380D01*
X45805357Y-61410714D02*
X45567261Y-62077380D01*
X45472023Y-62315476D01*
X45424404Y-62363095D01*
X45329166Y-62410714D01*
X46900595Y-62029761D02*
X47043452Y-62077380D01*
X47281547Y-62077380D01*
X47376785Y-62029761D01*
X47424404Y-61982142D01*
X47472023Y-61886904D01*
X47472023Y-61791666D01*
X47424404Y-61696428D01*
X47376785Y-61648809D01*
X47281547Y-61601190D01*
X47091071Y-61553571D01*
X46995833Y-61505952D01*
X46948214Y-61458333D01*
X46900595Y-61363095D01*
X46900595Y-61267857D01*
X46948214Y-61172619D01*
X46995833Y-61125000D01*
X47091071Y-61077380D01*
X47329166Y-61077380D01*
X47472023Y-61125000D01*
X48329166Y-62029761D02*
X48233928Y-62077380D01*
X48043452Y-62077380D01*
X47948214Y-62029761D01*
X47900595Y-61982142D01*
X47852976Y-61886904D01*
X47852976Y-61601190D01*
X47900595Y-61505952D01*
X47948214Y-61458333D01*
X48043452Y-61410714D01*
X48233928Y-61410714D01*
X48329166Y-61458333D01*
X49186309Y-62077380D02*
X49186309Y-61553571D01*
X49138690Y-61458333D01*
X49043452Y-61410714D01*
X48852976Y-61410714D01*
X48757738Y-61458333D01*
X49186309Y-62029761D02*
X49091071Y-62077380D01*
X48852976Y-62077380D01*
X48757738Y-62029761D01*
X48710119Y-61934523D01*
X48710119Y-61839285D01*
X48757738Y-61744047D01*
X48852976Y-61696428D01*
X49091071Y-61696428D01*
X49186309Y-61648809D01*
X49805357Y-62077380D02*
X49710119Y-62029761D01*
X49662500Y-61934523D01*
X49662500Y-61077380D01*
X50567261Y-62029761D02*
X50472023Y-62077380D01*
X50281547Y-62077380D01*
X50186309Y-62029761D01*
X50138690Y-61934523D01*
X50138690Y-61553571D01*
X50186309Y-61458333D01*
X50281547Y-61410714D01*
X50472023Y-61410714D01*
X50567261Y-61458333D01*
X50614880Y-61553571D01*
X50614880Y-61648809D01*
X50138690Y-61744047D01*
X51805357Y-62077380D02*
X51805357Y-61077380D01*
X52138690Y-61791666D01*
X52472023Y-61077380D01*
X52472023Y-62077380D01*
X53091071Y-62077380D02*
X52995833Y-62029761D01*
X52948214Y-61982142D01*
X52900595Y-61886904D01*
X52900595Y-61601190D01*
X52948214Y-61505952D01*
X52995833Y-61458333D01*
X53091071Y-61410714D01*
X53233928Y-61410714D01*
X53329166Y-61458333D01*
X53376785Y-61505952D01*
X53424404Y-61601190D01*
X53424404Y-61886904D01*
X53376785Y-61982142D01*
X53329166Y-62029761D01*
X53233928Y-62077380D01*
X53091071Y-62077380D01*
X54281547Y-62077380D02*
X54281547Y-61077380D01*
X54281547Y-62029761D02*
X54186309Y-62077380D01*
X53995833Y-62077380D01*
X53900595Y-62029761D01*
X53852976Y-61982142D01*
X53805357Y-61886904D01*
X53805357Y-61601190D01*
X53852976Y-61505952D01*
X53900595Y-61458333D01*
X53995833Y-61410714D01*
X54186309Y-61410714D01*
X54281547Y-61458333D01*
X55138690Y-62029761D02*
X55043452Y-62077380D01*
X54852976Y-62077380D01*
X54757738Y-62029761D01*
X54710119Y-61934523D01*
X54710119Y-61553571D01*
X54757738Y-61458333D01*
X54852976Y-61410714D01*
X55043452Y-61410714D01*
X55138690Y-61458333D01*
X55186309Y-61553571D01*
X55186309Y-61648809D01*
X54710119Y-61744047D01*
X40900595Y-63446428D02*
X41662500Y-63446428D01*
X42900595Y-63827380D02*
X42900595Y-62827380D01*
X43138690Y-62827380D01*
X43281547Y-62875000D01*
X43376785Y-62970238D01*
X43424404Y-63065476D01*
X43472023Y-63255952D01*
X43472023Y-63398809D01*
X43424404Y-63589285D01*
X43376785Y-63684523D01*
X43281547Y-63779761D01*
X43138690Y-63827380D01*
X42900595Y-63827380D01*
X44043452Y-63827380D02*
X43948214Y-63779761D01*
X43900595Y-63732142D01*
X43852976Y-63636904D01*
X43852976Y-63351190D01*
X43900595Y-63255952D01*
X43948214Y-63208333D01*
X44043452Y-63160714D01*
X44186309Y-63160714D01*
X44281547Y-63208333D01*
X44329166Y-63255952D01*
X44376785Y-63351190D01*
X44376785Y-63636904D01*
X44329166Y-63732142D01*
X44281547Y-63779761D01*
X44186309Y-63827380D01*
X44043452Y-63827380D01*
X44662500Y-63160714D02*
X45043452Y-63160714D01*
X44805357Y-62827380D02*
X44805357Y-63684523D01*
X44852976Y-63779761D01*
X44948214Y-63827380D01*
X45043452Y-63827380D01*
X46710119Y-63732142D02*
X46662500Y-63779761D01*
X46519642Y-63827380D01*
X46424404Y-63827380D01*
X46281547Y-63779761D01*
X46186309Y-63684523D01*
X46138690Y-63589285D01*
X46091071Y-63398809D01*
X46091071Y-63255952D01*
X46138690Y-63065476D01*
X46186309Y-62970238D01*
X46281547Y-62875000D01*
X46424404Y-62827380D01*
X46519642Y-62827380D01*
X46662500Y-62875000D01*
X46710119Y-62922619D01*
X47281547Y-63827380D02*
X47186309Y-63779761D01*
X47138690Y-63732142D01*
X47091071Y-63636904D01*
X47091071Y-63351190D01*
X47138690Y-63255952D01*
X47186309Y-63208333D01*
X47281547Y-63160714D01*
X47424404Y-63160714D01*
X47519642Y-63208333D01*
X47567261Y-63255952D01*
X47614880Y-63351190D01*
X47614880Y-63636904D01*
X47567261Y-63732142D01*
X47519642Y-63779761D01*
X47424404Y-63827380D01*
X47281547Y-63827380D01*
X48043452Y-63827380D02*
X48043452Y-63160714D01*
X48043452Y-63351190D02*
X48091071Y-63255952D01*
X48138690Y-63208333D01*
X48233928Y-63160714D01*
X48329166Y-63160714D01*
X48662500Y-63827380D02*
X48662500Y-63160714D01*
X48662500Y-63351190D02*
X48710119Y-63255952D01*
X48757738Y-63208333D01*
X48852976Y-63160714D01*
X48948214Y-63160714D01*
X49662500Y-63779761D02*
X49567261Y-63827380D01*
X49376785Y-63827380D01*
X49281547Y-63779761D01*
X49233928Y-63684523D01*
X49233928Y-63303571D01*
X49281547Y-63208333D01*
X49376785Y-63160714D01*
X49567261Y-63160714D01*
X49662500Y-63208333D01*
X49710119Y-63303571D01*
X49710119Y-63398809D01*
X49233928Y-63494047D01*
X50567261Y-63779761D02*
X50472023Y-63827380D01*
X50281547Y-63827380D01*
X50186309Y-63779761D01*
X50138690Y-63732142D01*
X50091071Y-63636904D01*
X50091071Y-63351190D01*
X50138690Y-63255952D01*
X50186309Y-63208333D01*
X50281547Y-63160714D01*
X50472023Y-63160714D01*
X50567261Y-63208333D01*
X50852976Y-63160714D02*
X51233928Y-63160714D01*
X50995833Y-62827380D02*
X50995833Y-63684523D01*
X51043452Y-63779761D01*
X51138690Y-63827380D01*
X51233928Y-63827380D01*
X51567261Y-63827380D02*
X51567261Y-63160714D01*
X51567261Y-62827380D02*
X51519642Y-62875000D01*
X51567261Y-62922619D01*
X51614880Y-62875000D01*
X51567261Y-62827380D01*
X51567261Y-62922619D01*
X52186309Y-63827380D02*
X52091071Y-63779761D01*
X52043452Y-63732142D01*
X51995833Y-63636904D01*
X51995833Y-63351190D01*
X52043452Y-63255952D01*
X52091071Y-63208333D01*
X52186309Y-63160714D01*
X52329166Y-63160714D01*
X52424404Y-63208333D01*
X52472023Y-63255952D01*
X52519642Y-63351190D01*
X52519642Y-63636904D01*
X52472023Y-63732142D01*
X52424404Y-63779761D01*
X52329166Y-63827380D01*
X52186309Y-63827380D01*
X52948214Y-63160714D02*
X52948214Y-63827380D01*
X52948214Y-63255952D02*
X52995833Y-63208333D01*
X53091071Y-63160714D01*
X53233928Y-63160714D01*
X53329166Y-63208333D01*
X53376785Y-63303571D01*
X53376785Y-63827380D01*
X54614880Y-63827380D02*
X54614880Y-62827380D01*
X54948214Y-63541666D01*
X55281547Y-62827380D01*
X55281547Y-63827380D01*
X55900595Y-63827380D02*
X55805357Y-63779761D01*
X55757738Y-63732142D01*
X55710119Y-63636904D01*
X55710119Y-63351190D01*
X55757738Y-63255952D01*
X55805357Y-63208333D01*
X55900595Y-63160714D01*
X56043452Y-63160714D01*
X56138690Y-63208333D01*
X56186309Y-63255952D01*
X56233928Y-63351190D01*
X56233928Y-63636904D01*
X56186309Y-63732142D01*
X56138690Y-63779761D01*
X56043452Y-63827380D01*
X55900595Y-63827380D01*
X57091071Y-63827380D02*
X57091071Y-62827380D01*
X57091071Y-63779761D02*
X56995833Y-63827380D01*
X56805357Y-63827380D01*
X56710119Y-63779761D01*
X56662500Y-63732142D01*
X56614880Y-63636904D01*
X56614880Y-63351190D01*
X56662500Y-63255952D01*
X56710119Y-63208333D01*
X56805357Y-63160714D01*
X56995833Y-63160714D01*
X57091071Y-63208333D01*
X57948214Y-63779761D02*
X57852976Y-63827380D01*
X57662500Y-63827380D01*
X57567261Y-63779761D01*
X57519642Y-63684523D01*
X57519642Y-63303571D01*
X57567261Y-63208333D01*
X57662500Y-63160714D01*
X57852976Y-63160714D01*
X57948214Y-63208333D01*
X57995833Y-63303571D01*
X57995833Y-63398809D01*
X57519642Y-63494047D01*
D12*
X50000000Y-23000000D02*
X50000000Y-16000000D01*
D13*
X51052142Y-18903571D02*
X51052142Y-17403571D01*
X51623571Y-17403571D01*
X51766428Y-17475000D01*
X51837857Y-17546428D01*
X51909285Y-17689285D01*
X51909285Y-17903571D01*
X51837857Y-18046428D01*
X51766428Y-18117857D01*
X51623571Y-18189285D01*
X51052142Y-18189285D01*
X52552142Y-18903571D02*
X52552142Y-17903571D01*
X52552142Y-17403571D02*
X52480714Y-17475000D01*
X52552142Y-17546428D01*
X52623571Y-17475000D01*
X52552142Y-17403571D01*
X52552142Y-17546428D01*
X53266428Y-17903571D02*
X53266428Y-18903571D01*
X53266428Y-18046428D02*
X53337857Y-17975000D01*
X53480714Y-17903571D01*
X53695000Y-17903571D01*
X53837857Y-17975000D01*
X53909285Y-18117857D01*
X53909285Y-18903571D01*
X55123571Y-18117857D02*
X55337857Y-18189285D01*
X55409285Y-18260714D01*
X55480714Y-18403571D01*
X55480714Y-18617857D01*
X55409285Y-18760714D01*
X55337857Y-18832142D01*
X55195000Y-18903571D01*
X54623571Y-18903571D01*
X54623571Y-17403571D01*
X55123571Y-17403571D01*
X55266428Y-17475000D01*
X55337857Y-17546428D01*
X55409285Y-17689285D01*
X55409285Y-17832142D01*
X55337857Y-17975000D01*
X55266428Y-18046428D01*
X55123571Y-18117857D01*
X54623571Y-18117857D01*
X56766428Y-17903571D02*
X56766428Y-18903571D01*
X56123571Y-17903571D02*
X56123571Y-18689285D01*
X56195000Y-18832142D01*
X56337857Y-18903571D01*
X56552142Y-18903571D01*
X56695000Y-18832142D01*
X56766428Y-18760714D01*
X57409285Y-18832142D02*
X57552142Y-18903571D01*
X57837857Y-18903571D01*
X57980714Y-18832142D01*
X58052142Y-18689285D01*
X58052142Y-18617857D01*
X57980714Y-18475000D01*
X57837857Y-18403571D01*
X57623571Y-18403571D01*
X57480714Y-18332142D01*
X57409285Y-18189285D01*
X57409285Y-18117857D01*
X57480714Y-17975000D01*
X57623571Y-17903571D01*
X57837857Y-17903571D01*
X57980714Y-17975000D01*
X59623571Y-17403571D02*
X60480714Y-17403571D01*
X60052142Y-18903571D02*
X60052142Y-17403571D01*
X61695000Y-18903571D02*
X60980714Y-18903571D01*
X60980714Y-17403571D01*
X63052142Y-18760714D02*
X62980714Y-18832142D01*
X62766428Y-18903571D01*
X62623571Y-18903571D01*
X62409285Y-18832142D01*
X62266428Y-18689285D01*
X62195000Y-18546428D01*
X62123571Y-18260714D01*
X62123571Y-18046428D01*
X62195000Y-17760714D01*
X62266428Y-17617857D01*
X62409285Y-17475000D01*
X62623571Y-17403571D01*
X62766428Y-17403571D01*
X62980714Y-17475000D01*
X63052142Y-17546428D01*
X64409285Y-17403571D02*
X63695000Y-17403571D01*
X63623571Y-18117857D01*
X63695000Y-18046428D01*
X63837857Y-17975000D01*
X64195000Y-17975000D01*
X64337857Y-18046428D01*
X64409285Y-18117857D01*
X64480714Y-18260714D01*
X64480714Y-18617857D01*
X64409285Y-18760714D01*
X64337857Y-18832142D01*
X64195000Y-18903571D01*
X63837857Y-18903571D01*
X63695000Y-18832142D01*
X63623571Y-18760714D01*
X65195000Y-18903571D02*
X65480714Y-18903571D01*
X65623571Y-18832142D01*
X65695000Y-18760714D01*
X65837857Y-18546428D01*
X65909285Y-18260714D01*
X65909285Y-17689285D01*
X65837857Y-17546428D01*
X65766428Y-17475000D01*
X65623571Y-17403571D01*
X65337857Y-17403571D01*
X65195000Y-17475000D01*
X65123571Y-17546428D01*
X65052142Y-17689285D01*
X65052142Y-18046428D01*
X65123571Y-18189285D01*
X65195000Y-18260714D01*
X65337857Y-18332142D01*
X65623571Y-18332142D01*
X65766428Y-18260714D01*
X65837857Y-18189285D01*
X65909285Y-18046428D01*
X67195000Y-17903571D02*
X67195000Y-18903571D01*
X66837857Y-17332142D02*
X66480714Y-18403571D01*
X67409285Y-18403571D01*
X68266428Y-17403571D02*
X68409285Y-17403571D01*
X68552142Y-17475000D01*
X68623571Y-17546428D01*
X68695000Y-17689285D01*
X68766428Y-17975000D01*
X68766428Y-18332142D01*
X68695000Y-18617857D01*
X68623571Y-18760714D01*
X68552142Y-18832142D01*
X68409285Y-18903571D01*
X68266428Y-18903571D01*
X68123571Y-18832142D01*
X68052142Y-18760714D01*
X67980714Y-18617857D01*
X67909285Y-18332142D01*
X67909285Y-17975000D01*
X67980714Y-17689285D01*
X68052142Y-17546428D01*
X68123571Y-17475000D01*
X68266428Y-17403571D01*
X71266428Y-18903571D02*
X70552142Y-18903571D01*
X70552142Y-17403571D01*
X71766428Y-18117857D02*
X72266428Y-18117857D01*
X72480714Y-18903571D02*
X71766428Y-18903571D01*
X71766428Y-17403571D01*
X72480714Y-17403571D01*
X73123571Y-18903571D02*
X73123571Y-17403571D01*
X73480714Y-17403571D01*
X73695000Y-17475000D01*
X73837857Y-17617857D01*
X73909285Y-17760714D01*
X73980714Y-18046428D01*
X73980714Y-18260714D01*
X73909285Y-18546428D01*
X73837857Y-18689285D01*
X73695000Y-18832142D01*
X73480714Y-18903571D01*
X73123571Y-18903571D01*
X75766428Y-18903571D02*
X75766428Y-17403571D01*
X76123571Y-17403571D01*
X76337857Y-17475000D01*
X76480714Y-17617857D01*
X76552142Y-17760714D01*
X76623571Y-18046428D01*
X76623571Y-18260714D01*
X76552142Y-18546428D01*
X76480714Y-18689285D01*
X76337857Y-18832142D01*
X76123571Y-18903571D01*
X75766428Y-18903571D01*
X77266428Y-18903571D02*
X77266428Y-17903571D01*
X77266428Y-18189285D02*
X77337857Y-18046428D01*
X77409285Y-17975000D01*
X77552142Y-17903571D01*
X77695000Y-17903571D01*
X78195000Y-18903571D02*
X78195000Y-17903571D01*
X78195000Y-17403571D02*
X78123571Y-17475000D01*
X78195000Y-17546428D01*
X78266428Y-17475000D01*
X78195000Y-17403571D01*
X78195000Y-17546428D01*
X78766428Y-17903571D02*
X79123571Y-18903571D01*
X79480714Y-17903571D01*
X80623571Y-18832142D02*
X80480714Y-18903571D01*
X80195000Y-18903571D01*
X80052142Y-18832142D01*
X79980714Y-18689285D01*
X79980714Y-18117857D01*
X80052142Y-17975000D01*
X80195000Y-17903571D01*
X80480714Y-17903571D01*
X80623571Y-17975000D01*
X80695000Y-18117857D01*
X80695000Y-18260714D01*
X79980714Y-18403571D01*
X81337857Y-18903571D02*
X81337857Y-17903571D01*
X81337857Y-18189285D02*
X81409285Y-18046428D01*
X81480714Y-17975000D01*
X81623571Y-17903571D01*
X81766428Y-17903571D01*
X51909285Y-21453571D02*
X51409285Y-20739285D01*
X51052142Y-21453571D02*
X51052142Y-19953571D01*
X51623571Y-19953571D01*
X51766428Y-20025000D01*
X51837857Y-20096428D01*
X51909285Y-20239285D01*
X51909285Y-20453571D01*
X51837857Y-20596428D01*
X51766428Y-20667857D01*
X51623571Y-20739285D01*
X51052142Y-20739285D01*
X53123571Y-21382142D02*
X52980714Y-21453571D01*
X52695000Y-21453571D01*
X52552142Y-21382142D01*
X52480714Y-21239285D01*
X52480714Y-20667857D01*
X52552142Y-20525000D01*
X52695000Y-20453571D01*
X52980714Y-20453571D01*
X53123571Y-20525000D01*
X53195000Y-20667857D01*
X53195000Y-20810714D01*
X52480714Y-20953571D01*
X53695000Y-20453571D02*
X54052142Y-21453571D01*
X54409285Y-20453571D01*
X54980714Y-21310714D02*
X55052142Y-21382142D01*
X54980714Y-21453571D01*
X54909285Y-21382142D01*
X54980714Y-21310714D01*
X54980714Y-21453571D01*
X57623571Y-21453571D02*
X56766428Y-21453571D01*
X57195000Y-21453571D02*
X57195000Y-19953571D01*
X57052142Y-20167857D01*
X56909285Y-20310714D01*
X56766428Y-20382142D01*
X58266428Y-21310714D02*
X58337857Y-21382142D01*
X58266428Y-21453571D01*
X58195000Y-21382142D01*
X58266428Y-21310714D01*
X58266428Y-21453571D01*
X59266428Y-19953571D02*
X59409285Y-19953571D01*
X59552142Y-20025000D01*
X59623571Y-20096428D01*
X59695000Y-20239285D01*
X59766428Y-20525000D01*
X59766428Y-20882142D01*
X59695000Y-21167857D01*
X59623571Y-21310714D01*
X59552142Y-21382142D01*
X59409285Y-21453571D01*
X59266428Y-21453571D01*
X59123571Y-21382142D01*
X59052142Y-21310714D01*
X58980714Y-21167857D01*
X58909285Y-20882142D01*
X58909285Y-20525000D01*
X58980714Y-20239285D01*
X59052142Y-20096428D01*
X59123571Y-20025000D01*
X59266428Y-19953571D01*
X61980714Y-22025000D02*
X61909285Y-21953571D01*
X61766428Y-21739285D01*
X61695000Y-21596428D01*
X61623571Y-21382142D01*
X61552142Y-21025000D01*
X61552142Y-20739285D01*
X61623571Y-20382142D01*
X61695000Y-20167857D01*
X61766428Y-20025000D01*
X61909285Y-19810714D01*
X61980714Y-19739285D01*
X62480714Y-20096428D02*
X62552142Y-20025000D01*
X62695000Y-19953571D01*
X63052142Y-19953571D01*
X63195000Y-20025000D01*
X63266428Y-20096428D01*
X63337857Y-20239285D01*
X63337857Y-20382142D01*
X63266428Y-20596428D01*
X62409285Y-21453571D01*
X63337857Y-21453571D01*
X64266428Y-19953571D02*
X64409285Y-19953571D01*
X64552142Y-20025000D01*
X64623571Y-20096428D01*
X64695000Y-20239285D01*
X64766428Y-20525000D01*
X64766428Y-20882142D01*
X64695000Y-21167857D01*
X64623571Y-21310714D01*
X64552142Y-21382142D01*
X64409285Y-21453571D01*
X64266428Y-21453571D01*
X64123571Y-21382142D01*
X64052142Y-21310714D01*
X63980714Y-21167857D01*
X63909285Y-20882142D01*
X63909285Y-20525000D01*
X63980714Y-20239285D01*
X64052142Y-20096428D01*
X64123571Y-20025000D01*
X64266428Y-19953571D01*
X66195000Y-21453571D02*
X65337857Y-21453571D01*
X65766428Y-21453571D02*
X65766428Y-19953571D01*
X65623571Y-20167857D01*
X65480714Y-20310714D01*
X65337857Y-20382142D01*
X67052142Y-20596428D02*
X66909285Y-20525000D01*
X66837857Y-20453571D01*
X66766428Y-20310714D01*
X66766428Y-20239285D01*
X66837857Y-20096428D01*
X66909285Y-20025000D01*
X67052142Y-19953571D01*
X67337857Y-19953571D01*
X67480714Y-20025000D01*
X67552142Y-20096428D01*
X67623571Y-20239285D01*
X67623571Y-20310714D01*
X67552142Y-20453571D01*
X67480714Y-20525000D01*
X67337857Y-20596428D01*
X67052142Y-20596428D01*
X66909285Y-20667857D01*
X66837857Y-20739285D01*
X66766428Y-20882142D01*
X66766428Y-21167857D01*
X66837857Y-21310714D01*
X66909285Y-21382142D01*
X67052142Y-21453571D01*
X67337857Y-21453571D01*
X67480714Y-21382142D01*
X67552142Y-21310714D01*
X67623571Y-21167857D01*
X67623571Y-20882142D01*
X67552142Y-20739285D01*
X67480714Y-20667857D01*
X67337857Y-20596428D01*
X68266428Y-20882142D02*
X69409285Y-20882142D01*
X70909285Y-21453571D02*
X70052142Y-21453571D01*
X70480714Y-21453571D02*
X70480714Y-19953571D01*
X70337857Y-20167857D01*
X70195000Y-20310714D01*
X70052142Y-20382142D01*
X72337857Y-21453571D02*
X71480714Y-21453571D01*
X71909285Y-21453571D02*
X71909285Y-19953571D01*
X71766428Y-20167857D01*
X71623571Y-20310714D01*
X71480714Y-20382142D01*
X72980714Y-20882142D02*
X74123571Y-20882142D01*
X75623571Y-21453571D02*
X74766428Y-21453571D01*
X75195000Y-21453571D02*
X75195000Y-19953571D01*
X75052142Y-20167857D01*
X74909285Y-20310714D01*
X74766428Y-20382142D01*
X76552142Y-19953571D02*
X76695000Y-19953571D01*
X76837857Y-20025000D01*
X76909285Y-20096428D01*
X76980714Y-20239285D01*
X77052142Y-20525000D01*
X77052142Y-20882142D01*
X76980714Y-21167857D01*
X76909285Y-21310714D01*
X76837857Y-21382142D01*
X76695000Y-21453571D01*
X76552142Y-21453571D01*
X76409285Y-21382142D01*
X76337857Y-21310714D01*
X76266428Y-21167857D01*
X76195000Y-20882142D01*
X76195000Y-20525000D01*
X76266428Y-20239285D01*
X76337857Y-20096428D01*
X76409285Y-20025000D01*
X76552142Y-19953571D01*
X77552142Y-22025000D02*
X77623571Y-21953571D01*
X77766428Y-21739285D01*
X77837857Y-21596428D01*
X77909285Y-21382142D01*
X77980714Y-21025000D01*
X77980714Y-20739285D01*
X77909285Y-20382142D01*
X77837857Y-20167857D01*
X77766428Y-20025000D01*
X77623571Y-19810714D01*
X77552142Y-19739285D01*
D11*
X24553571Y-63266071D02*
X24601190Y-63123214D01*
X24648809Y-63075595D01*
X24744047Y-63027976D01*
X24886904Y-63027976D01*
X24982142Y-63075595D01*
X25029761Y-63123214D01*
X25077380Y-63218452D01*
X25077380Y-63599404D01*
X24077380Y-63599404D01*
X24077380Y-63266071D01*
X24125000Y-63170833D01*
X24172619Y-63123214D01*
X24267857Y-63075595D01*
X24363095Y-63075595D01*
X24458333Y-63123214D01*
X24505952Y-63170833D01*
X24553571Y-63266071D01*
X24553571Y-63599404D01*
X25077380Y-62123214D02*
X25077380Y-62599404D01*
X24077380Y-62599404D01*
X24791666Y-61837500D02*
X24791666Y-61361309D01*
X25077380Y-61932738D02*
X24077380Y-61599404D01*
X25077380Y-61266071D01*
X25077380Y-60932738D02*
X24077380Y-60932738D01*
X25077380Y-60361309D01*
X24077380Y-60361309D01*
X25077380Y-59885119D02*
X24077380Y-59885119D01*
X25077380Y-59313690D02*
X24505952Y-59742261D01*
X24077380Y-59313690D02*
X24648809Y-59885119D01*
X26779761Y-63647023D02*
X26827380Y-63504166D01*
X26827380Y-63266071D01*
X26779761Y-63170833D01*
X26732142Y-63123214D01*
X26636904Y-63075595D01*
X26541666Y-63075595D01*
X26446428Y-63123214D01*
X26398809Y-63170833D01*
X26351190Y-63266071D01*
X26303571Y-63456547D01*
X26255952Y-63551785D01*
X26208333Y-63599404D01*
X26113095Y-63647023D01*
X26017857Y-63647023D01*
X25922619Y-63599404D01*
X25875000Y-63551785D01*
X25827380Y-63456547D01*
X25827380Y-63218452D01*
X25875000Y-63075595D01*
X26827380Y-62647023D02*
X25827380Y-62647023D01*
X26827380Y-62170833D02*
X25827380Y-62170833D01*
X26827380Y-61599404D01*
X25827380Y-61599404D01*
X25779761Y-60408928D02*
X27065476Y-61266071D01*
X26779761Y-60123214D02*
X26827380Y-59980357D01*
X26827380Y-59742261D01*
X26779761Y-59647023D01*
X26732142Y-59599404D01*
X26636904Y-59551785D01*
X26541666Y-59551785D01*
X26446428Y-59599404D01*
X26398809Y-59647023D01*
X26351190Y-59742261D01*
X26303571Y-59932738D01*
X26255952Y-60027976D01*
X26208333Y-60075595D01*
X26113095Y-60123214D01*
X26017857Y-60123214D01*
X25922619Y-60075595D01*
X25875000Y-60027976D01*
X25827380Y-59932738D01*
X25827380Y-59694642D01*
X25875000Y-59551785D01*
X25827380Y-58932738D02*
X25827380Y-58742261D01*
X25875000Y-58647023D01*
X25970238Y-58551785D01*
X26160714Y-58504166D01*
X26494047Y-58504166D01*
X26684523Y-58551785D01*
X26779761Y-58647023D01*
X26827380Y-58742261D01*
X26827380Y-58932738D01*
X26779761Y-59027976D01*
X26684523Y-59123214D01*
X26494047Y-59170833D01*
X26160714Y-59170833D01*
X25970238Y-59123214D01*
X25875000Y-59027976D01*
X25827380Y-58932738D01*
X25827380Y-58075595D02*
X26636904Y-58075595D01*
X26732142Y-58027976D01*
X26779761Y-57980357D01*
X26827380Y-57885119D01*
X26827380Y-57694642D01*
X26779761Y-57599404D01*
X26732142Y-57551785D01*
X26636904Y-57504166D01*
X25827380Y-57504166D01*
X25827380Y-57170833D02*
X25827380Y-56599404D01*
X26827380Y-56885119D02*
X25827380Y-56885119D01*
X28529761Y-63647023D02*
X28577380Y-63504166D01*
X28577380Y-63266071D01*
X28529761Y-63170833D01*
X28482142Y-63123214D01*
X28386904Y-63075595D01*
X28291666Y-63075595D01*
X28196428Y-63123214D01*
X28148809Y-63170833D01*
X28101190Y-63266071D01*
X28053571Y-63456547D01*
X28005952Y-63551785D01*
X27958333Y-63599404D01*
X27863095Y-63647023D01*
X27767857Y-63647023D01*
X27672619Y-63599404D01*
X27625000Y-63551785D01*
X27577380Y-63456547D01*
X27577380Y-63218452D01*
X27625000Y-63075595D01*
X28482142Y-62075595D02*
X28529761Y-62123214D01*
X28577380Y-62266071D01*
X28577380Y-62361309D01*
X28529761Y-62504166D01*
X28434523Y-62599404D01*
X28339285Y-62647023D01*
X28148809Y-62694642D01*
X28005952Y-62694642D01*
X27815476Y-62647023D01*
X27720238Y-62599404D01*
X27625000Y-62504166D01*
X27577380Y-62361309D01*
X27577380Y-62266071D01*
X27625000Y-62123214D01*
X27672619Y-62075595D01*
X28577380Y-61170833D02*
X28577380Y-61647023D01*
X27577380Y-61647023D01*
X28577380Y-60837500D02*
X27577380Y-60837500D01*
X28577380Y-60266071D02*
X28005952Y-60694642D01*
X27577380Y-60266071D02*
X28148809Y-60837500D01*
X29327380Y-63694642D02*
X30327380Y-63027976D01*
X29327380Y-63027976D02*
X30327380Y-63694642D01*
X29803571Y-62647023D02*
X29803571Y-62313690D01*
X30327380Y-62170833D02*
X30327380Y-62647023D01*
X29327380Y-62647023D01*
X29327380Y-62170833D01*
X30327380Y-61170833D02*
X29851190Y-61504166D01*
X30327380Y-61742261D02*
X29327380Y-61742261D01*
X29327380Y-61361309D01*
X29375000Y-61266071D01*
X29422619Y-61218452D01*
X29517857Y-61170833D01*
X29660714Y-61170833D01*
X29755952Y-61218452D01*
X29803571Y-61266071D01*
X29851190Y-61361309D01*
X29851190Y-61742261D01*
X30327380Y-60170833D02*
X29851190Y-60504166D01*
X30327380Y-60742261D02*
X29327380Y-60742261D01*
X29327380Y-60361309D01*
X29375000Y-60266071D01*
X29422619Y-60218452D01*
X29517857Y-60170833D01*
X29660714Y-60170833D01*
X29755952Y-60218452D01*
X29803571Y-60266071D01*
X29851190Y-60361309D01*
X29851190Y-60742261D01*
X31077380Y-63694642D02*
X32077380Y-63027976D01*
X31077380Y-63027976D02*
X32077380Y-63694642D01*
X32077380Y-62170833D02*
X32077380Y-62647023D01*
X31077380Y-62647023D01*
X31791666Y-61885119D02*
X31791666Y-61408928D01*
X32077380Y-61980357D02*
X31077380Y-61647023D01*
X32077380Y-61313690D01*
X31077380Y-61123214D02*
X31077380Y-60551785D01*
X32077380Y-60837500D02*
X31077380Y-60837500D01*
X32875000Y-63075595D02*
X32827380Y-63170833D01*
X32827380Y-63313690D01*
X32875000Y-63456547D01*
X32970238Y-63551785D01*
X33065476Y-63599404D01*
X33255952Y-63647023D01*
X33398809Y-63647023D01*
X33589285Y-63599404D01*
X33684523Y-63551785D01*
X33779761Y-63456547D01*
X33827380Y-63313690D01*
X33827380Y-63218452D01*
X33779761Y-63075595D01*
X33732142Y-63027976D01*
X33398809Y-63027976D01*
X33398809Y-63218452D01*
X33779761Y-62647023D02*
X33827380Y-62504166D01*
X33827380Y-62266071D01*
X33779761Y-62170833D01*
X33732142Y-62123214D01*
X33636904Y-62075595D01*
X33541666Y-62075595D01*
X33446428Y-62123214D01*
X33398809Y-62170833D01*
X33351190Y-62266071D01*
X33303571Y-62456547D01*
X33255952Y-62551785D01*
X33208333Y-62599404D01*
X33113095Y-62647023D01*
X33017857Y-62647023D01*
X32922619Y-62599404D01*
X32875000Y-62551785D01*
X32827380Y-62456547D01*
X32827380Y-62218452D01*
X32875000Y-62075595D01*
X33732142Y-61075595D02*
X33779761Y-61123214D01*
X33827380Y-61266071D01*
X33827380Y-61361309D01*
X33779761Y-61504166D01*
X33684523Y-61599404D01*
X33589285Y-61647023D01*
X33398809Y-61694642D01*
X33255952Y-61694642D01*
X33065476Y-61647023D01*
X32970238Y-61599404D01*
X32875000Y-61504166D01*
X32827380Y-61361309D01*
X32827380Y-61266071D01*
X32875000Y-61123214D01*
X32922619Y-61075595D01*
X33827380Y-60170833D02*
X33827380Y-60647023D01*
X32827380Y-60647023D01*
X33827380Y-59837500D02*
X32827380Y-59837500D01*
X33827380Y-59266071D02*
X33255952Y-59694642D01*
X32827380Y-59266071D02*
X33398809Y-59837500D01*
D13*
X43052142Y-22107142D02*
X44195000Y-22107142D01*
X43623571Y-22678571D02*
X43623571Y-21535714D01*
X45623571Y-21178571D02*
X44909285Y-21178571D01*
X44837857Y-21892857D01*
X44909285Y-21821428D01*
X45052142Y-21750000D01*
X45409285Y-21750000D01*
X45552142Y-21821428D01*
X45623571Y-21892857D01*
X45695000Y-22035714D01*
X45695000Y-22392857D01*
X45623571Y-22535714D01*
X45552142Y-22607142D01*
X45409285Y-22678571D01*
X45052142Y-22678571D01*
X44909285Y-22607142D01*
X44837857Y-22535714D01*
X46123571Y-21178571D02*
X46623571Y-22678571D01*
X47123571Y-21178571D01*
X43052142Y-18107142D02*
X44195000Y-18107142D01*
X43623571Y-18678571D02*
X43623571Y-17535714D01*
X45695000Y-18678571D02*
X44837857Y-18678571D01*
X45266428Y-18678571D02*
X45266428Y-17178571D01*
X45123571Y-17392857D01*
X44980714Y-17535714D01*
X44837857Y-17607142D01*
X46266428Y-17321428D02*
X46337857Y-17250000D01*
X46480714Y-17178571D01*
X46837857Y-17178571D01*
X46980714Y-17250000D01*
X47052142Y-17321428D01*
X47123571Y-17464285D01*
X47123571Y-17607142D01*
X47052142Y-17821428D01*
X46195000Y-18678571D01*
X47123571Y-18678571D01*
X47552142Y-17178571D02*
X48052142Y-18678571D01*
X48552142Y-17178571D01*
X36678571Y-52178571D02*
X35178571Y-52178571D01*
X35678571Y-51464285D02*
X36678571Y-51464285D01*
X35821428Y-51464285D02*
X35750000Y-51392857D01*
X35678571Y-51250000D01*
X35678571Y-51035714D01*
X35750000Y-50892857D01*
X35892857Y-50821428D01*
X36678571Y-50821428D01*
X35178571Y-45250000D02*
X35178571Y-44964285D01*
X35250000Y-44821428D01*
X35392857Y-44678571D01*
X35678571Y-44607142D01*
X36178571Y-44607142D01*
X36464285Y-44678571D01*
X36607142Y-44821428D01*
X36678571Y-44964285D01*
X36678571Y-45250000D01*
X36607142Y-45392857D01*
X36464285Y-45535714D01*
X36178571Y-45607142D01*
X35678571Y-45607142D01*
X35392857Y-45535714D01*
X35250000Y-45392857D01*
X35178571Y-45250000D01*
X35678571Y-43321428D02*
X36678571Y-43321428D01*
X35678571Y-43964285D02*
X36464285Y-43964285D01*
X36607142Y-43892857D01*
X36678571Y-43750000D01*
X36678571Y-43535714D01*
X36607142Y-43392857D01*
X36535714Y-43321428D01*
X35678571Y-42821428D02*
X35678571Y-42250000D01*
X35178571Y-42607142D02*
X36464285Y-42607142D01*
X36607142Y-42535714D01*
X36678571Y-42392857D01*
X36678571Y-42250000D01*
D14*
G04 #@! TO.C,U1*
X41550000Y-59390000D02*
X51830000Y-59390000D01*
X41550000Y-23590000D02*
X41550000Y-59390000D01*
X51830000Y-23590000D02*
X41550000Y-23590000D01*
X51830000Y-59390000D02*
X51830000Y-23590000D01*
X44040000Y-59330000D02*
X45690000Y-59330000D01*
X44040000Y-23650000D02*
X44040000Y-59330000D01*
X49340000Y-23650000D02*
X44040000Y-23650000D01*
X49340000Y-59330000D02*
X49340000Y-23650000D01*
X47690000Y-59330000D02*
X49340000Y-59330000D01*
X45690000Y-59330000D02*
G75*
G02X47690000Y-59330000I1000000J0D01*
G01*
G04 #@! TO.C,J4*
X80450000Y-41550000D02*
X80450000Y-47500000D01*
X80450000Y-47500000D02*
X88050000Y-47500000D01*
X88050000Y-47500000D02*
X88050000Y-41550000D01*
X88050000Y-41550000D02*
X80450000Y-41550000D01*
X83750000Y-41550000D02*
X83750000Y-42300000D01*
X83750000Y-42300000D02*
X84750000Y-42300000D01*
X84750000Y-42300000D02*
X84750000Y-41550000D01*
X84750000Y-41550000D02*
X83750000Y-41550000D01*
X80450000Y-41550000D02*
X80450000Y-42300000D01*
X80450000Y-42300000D02*
X82250000Y-42300000D01*
X82250000Y-42300000D02*
X82250000Y-41550000D01*
X82250000Y-41550000D02*
X80450000Y-41550000D01*
X86250000Y-41550000D02*
X86250000Y-42300000D01*
X86250000Y-42300000D02*
X88050000Y-42300000D01*
X88050000Y-42300000D02*
X88050000Y-41550000D01*
X88050000Y-41550000D02*
X86250000Y-41550000D01*
X80450000Y-43800000D02*
X81200000Y-43800000D01*
X81200000Y-43800000D02*
X81200000Y-46750000D01*
X81200000Y-46750000D02*
X84250000Y-46750000D01*
X88050000Y-43800000D02*
X87300000Y-43800000D01*
X87300000Y-43800000D02*
X87300000Y-46750000D01*
X87300000Y-46750000D02*
X84250000Y-46750000D01*
X82650000Y-41250000D02*
X80150000Y-41250000D01*
X80150000Y-41250000D02*
X80150000Y-43750000D01*
G04 #@! TO.C,J11*
X53450000Y-33550000D02*
X53450000Y-39500000D01*
X53450000Y-39500000D02*
X61050000Y-39500000D01*
X61050000Y-39500000D02*
X61050000Y-33550000D01*
X61050000Y-33550000D02*
X53450000Y-33550000D01*
X56750000Y-33550000D02*
X56750000Y-34300000D01*
X56750000Y-34300000D02*
X57750000Y-34300000D01*
X57750000Y-34300000D02*
X57750000Y-33550000D01*
X57750000Y-33550000D02*
X56750000Y-33550000D01*
X53450000Y-33550000D02*
X53450000Y-34300000D01*
X53450000Y-34300000D02*
X55250000Y-34300000D01*
X55250000Y-34300000D02*
X55250000Y-33550000D01*
X55250000Y-33550000D02*
X53450000Y-33550000D01*
X59250000Y-33550000D02*
X59250000Y-34300000D01*
X59250000Y-34300000D02*
X61050000Y-34300000D01*
X61050000Y-34300000D02*
X61050000Y-33550000D01*
X61050000Y-33550000D02*
X59250000Y-33550000D01*
X53450000Y-35800000D02*
X54200000Y-35800000D01*
X54200000Y-35800000D02*
X54200000Y-38750000D01*
X54200000Y-38750000D02*
X57250000Y-38750000D01*
X61050000Y-35800000D02*
X60300000Y-35800000D01*
X60300000Y-35800000D02*
X60300000Y-38750000D01*
X60300000Y-38750000D02*
X57250000Y-38750000D01*
X55650000Y-33250000D02*
X53150000Y-33250000D01*
X53150000Y-33250000D02*
X53150000Y-35750000D01*
G04 #@! TO.C,C2*
X31950000Y-28500000D02*
X31050000Y-28500000D01*
X31500000Y-28050000D02*
X31500000Y-28950000D01*
X31665000Y-32831000D02*
X31335000Y-32831000D01*
X31915000Y-32791000D02*
X31085000Y-32791000D01*
X32067000Y-32751000D02*
X30933000Y-32751000D01*
X32186000Y-32711000D02*
X30814000Y-32711000D01*
X32286000Y-32671000D02*
X30714000Y-32671000D01*
X32374000Y-32631000D02*
X30626000Y-32631000D01*
X32452000Y-32591000D02*
X30548000Y-32591000D01*
X32523000Y-32551000D02*
X30477000Y-32551000D01*
X30720000Y-32511000D02*
X30412000Y-32511000D01*
X32588000Y-32511000D02*
X32280000Y-32511000D01*
X30720000Y-32471000D02*
X30352000Y-32471000D01*
X32648000Y-32471000D02*
X32280000Y-32471000D01*
X30720000Y-32431000D02*
X30296000Y-32431000D01*
X32704000Y-32431000D02*
X32280000Y-32431000D01*
X30720000Y-32391000D02*
X30244000Y-32391000D01*
X32756000Y-32391000D02*
X32280000Y-32391000D01*
X30720000Y-32351000D02*
X30195000Y-32351000D01*
X32805000Y-32351000D02*
X32280000Y-32351000D01*
X30720000Y-32311000D02*
X30149000Y-32311000D01*
X32851000Y-32311000D02*
X32280000Y-32311000D01*
X30720000Y-32271000D02*
X30105000Y-32271000D01*
X32895000Y-32271000D02*
X32280000Y-32271000D01*
X30720000Y-32231000D02*
X30064000Y-32231000D01*
X32936000Y-32231000D02*
X32280000Y-32231000D01*
X30720000Y-32191000D02*
X30025000Y-32191000D01*
X32975000Y-32191000D02*
X32280000Y-32191000D01*
X30720000Y-32151000D02*
X29988000Y-32151000D01*
X33012000Y-32151000D02*
X32280000Y-32151000D01*
X30720000Y-32111000D02*
X29953000Y-32111000D01*
X33047000Y-32111000D02*
X32280000Y-32111000D01*
X30720000Y-32071000D02*
X29919000Y-32071000D01*
X33081000Y-32071000D02*
X32280000Y-32071000D01*
X30720000Y-32031000D02*
X29887000Y-32031000D01*
X33113000Y-32031000D02*
X32280000Y-32031000D01*
X30720000Y-31991000D02*
X29857000Y-31991000D01*
X33143000Y-31991000D02*
X32280000Y-31991000D01*
X30720000Y-31951000D02*
X29828000Y-31951000D01*
X33172000Y-31951000D02*
X32280000Y-31951000D01*
X30720000Y-31911000D02*
X29801000Y-31911000D01*
X33199000Y-31911000D02*
X32280000Y-31911000D01*
X30720000Y-31871000D02*
X29775000Y-31871000D01*
X33225000Y-31871000D02*
X32280000Y-31871000D01*
X30720000Y-31831000D02*
X29750000Y-31831000D01*
X33250000Y-31831000D02*
X32280000Y-31831000D01*
X30720000Y-31791000D02*
X29727000Y-31791000D01*
X33273000Y-31791000D02*
X32280000Y-31791000D01*
X30720000Y-31751000D02*
X29704000Y-31751000D01*
X33296000Y-31751000D02*
X32280000Y-31751000D01*
X30720000Y-31711000D02*
X29683000Y-31711000D01*
X33317000Y-31711000D02*
X32280000Y-31711000D01*
X30720000Y-31671000D02*
X29663000Y-31671000D01*
X33337000Y-31671000D02*
X32280000Y-31671000D01*
X30720000Y-31631000D02*
X29644000Y-31631000D01*
X33356000Y-31631000D02*
X32280000Y-31631000D01*
X30720000Y-31591000D02*
X29626000Y-31591000D01*
X33374000Y-31591000D02*
X32280000Y-31591000D01*
X30720000Y-31551000D02*
X29609000Y-31551000D01*
X33391000Y-31551000D02*
X32280000Y-31551000D01*
X30720000Y-31511000D02*
X29593000Y-31511000D01*
X33407000Y-31511000D02*
X32280000Y-31511000D01*
X30720000Y-31471000D02*
X29577000Y-31471000D01*
X33423000Y-31471000D02*
X32280000Y-31471000D01*
X30720000Y-31430000D02*
X29563000Y-31430000D01*
X33437000Y-31430000D02*
X32280000Y-31430000D01*
X30720000Y-31390000D02*
X29550000Y-31390000D01*
X33450000Y-31390000D02*
X32280000Y-31390000D01*
X30720000Y-31350000D02*
X29537000Y-31350000D01*
X33463000Y-31350000D02*
X32280000Y-31350000D01*
X30720000Y-31310000D02*
X29526000Y-31310000D01*
X33474000Y-31310000D02*
X32280000Y-31310000D01*
X30720000Y-31270000D02*
X29515000Y-31270000D01*
X33485000Y-31270000D02*
X32280000Y-31270000D01*
X30720000Y-31230000D02*
X29505000Y-31230000D01*
X33495000Y-31230000D02*
X32280000Y-31230000D01*
X30720000Y-31190000D02*
X29496000Y-31190000D01*
X33504000Y-31190000D02*
X32280000Y-31190000D01*
X30720000Y-31150000D02*
X29488000Y-31150000D01*
X33512000Y-31150000D02*
X32280000Y-31150000D01*
X30720000Y-31110000D02*
X29481000Y-31110000D01*
X33519000Y-31110000D02*
X32280000Y-31110000D01*
X30720000Y-31070000D02*
X29474000Y-31070000D01*
X33526000Y-31070000D02*
X32280000Y-31070000D01*
X30720000Y-31030000D02*
X29468000Y-31030000D01*
X33532000Y-31030000D02*
X32280000Y-31030000D01*
X30720000Y-30990000D02*
X29463000Y-30990000D01*
X33537000Y-30990000D02*
X32280000Y-30990000D01*
X33541000Y-30950000D02*
X29459000Y-30950000D01*
X33544000Y-30910000D02*
X29456000Y-30910000D01*
X33547000Y-30870000D02*
X29453000Y-30870000D01*
X33549000Y-30830000D02*
X29451000Y-30830000D01*
X33550000Y-30790000D02*
X29450000Y-30790000D01*
X33550000Y-30750000D02*
X29450000Y-30750000D01*
X30520830Y-32596436D02*
G75*
G03X32480000Y-32595996I979170J1846436D01*
G01*
X30520830Y-32596436D02*
G75*
G02X30520000Y-28904004I979170J1846436D01*
G01*
X32479170Y-32596436D02*
G75*
G03X32480000Y-28904004I-979170J1846436D01*
G01*
G04 #@! TO.C,J0*
X80450000Y-49550000D02*
X80450000Y-55500000D01*
X80450000Y-55500000D02*
X88050000Y-55500000D01*
X88050000Y-55500000D02*
X88050000Y-49550000D01*
X88050000Y-49550000D02*
X80450000Y-49550000D01*
X83750000Y-49550000D02*
X83750000Y-50300000D01*
X83750000Y-50300000D02*
X84750000Y-50300000D01*
X84750000Y-50300000D02*
X84750000Y-49550000D01*
X84750000Y-49550000D02*
X83750000Y-49550000D01*
X80450000Y-49550000D02*
X80450000Y-50300000D01*
X80450000Y-50300000D02*
X82250000Y-50300000D01*
X82250000Y-50300000D02*
X82250000Y-49550000D01*
X82250000Y-49550000D02*
X80450000Y-49550000D01*
X86250000Y-49550000D02*
X86250000Y-50300000D01*
X86250000Y-50300000D02*
X88050000Y-50300000D01*
X88050000Y-50300000D02*
X88050000Y-49550000D01*
X88050000Y-49550000D02*
X86250000Y-49550000D01*
X80450000Y-51800000D02*
X81200000Y-51800000D01*
X81200000Y-51800000D02*
X81200000Y-54750000D01*
X81200000Y-54750000D02*
X84250000Y-54750000D01*
X88050000Y-51800000D02*
X87300000Y-51800000D01*
X87300000Y-51800000D02*
X87300000Y-54750000D01*
X87300000Y-54750000D02*
X84250000Y-54750000D01*
X82650000Y-49250000D02*
X80150000Y-49250000D01*
X80150000Y-49250000D02*
X80150000Y-51750000D01*
G04 #@! TO.C,J1*
X71150000Y-49250000D02*
X71150000Y-51750000D01*
X73650000Y-49250000D02*
X71150000Y-49250000D01*
X78300000Y-54750000D02*
X75250000Y-54750000D01*
X78300000Y-51800000D02*
X78300000Y-54750000D01*
X79050000Y-51800000D02*
X78300000Y-51800000D01*
X72200000Y-54750000D02*
X75250000Y-54750000D01*
X72200000Y-51800000D02*
X72200000Y-54750000D01*
X71450000Y-51800000D02*
X72200000Y-51800000D01*
X79050000Y-49550000D02*
X77250000Y-49550000D01*
X79050000Y-50300000D02*
X79050000Y-49550000D01*
X77250000Y-50300000D02*
X79050000Y-50300000D01*
X77250000Y-49550000D02*
X77250000Y-50300000D01*
X73250000Y-49550000D02*
X71450000Y-49550000D01*
X73250000Y-50300000D02*
X73250000Y-49550000D01*
X71450000Y-50300000D02*
X73250000Y-50300000D01*
X71450000Y-49550000D02*
X71450000Y-50300000D01*
X75750000Y-49550000D02*
X74750000Y-49550000D01*
X75750000Y-50300000D02*
X75750000Y-49550000D01*
X74750000Y-50300000D02*
X75750000Y-50300000D01*
X74750000Y-49550000D02*
X74750000Y-50300000D01*
X79050000Y-49550000D02*
X71450000Y-49550000D01*
X79050000Y-55500000D02*
X79050000Y-49550000D01*
X71450000Y-55500000D02*
X79050000Y-55500000D01*
X71450000Y-49550000D02*
X71450000Y-55500000D01*
G04 #@! TO.C,J2*
X62450000Y-49550000D02*
X62450000Y-55500000D01*
X62450000Y-55500000D02*
X70050000Y-55500000D01*
X70050000Y-55500000D02*
X70050000Y-49550000D01*
X70050000Y-49550000D02*
X62450000Y-49550000D01*
X65750000Y-49550000D02*
X65750000Y-50300000D01*
X65750000Y-50300000D02*
X66750000Y-50300000D01*
X66750000Y-50300000D02*
X66750000Y-49550000D01*
X66750000Y-49550000D02*
X65750000Y-49550000D01*
X62450000Y-49550000D02*
X62450000Y-50300000D01*
X62450000Y-50300000D02*
X64250000Y-50300000D01*
X64250000Y-50300000D02*
X64250000Y-49550000D01*
X64250000Y-49550000D02*
X62450000Y-49550000D01*
X68250000Y-49550000D02*
X68250000Y-50300000D01*
X68250000Y-50300000D02*
X70050000Y-50300000D01*
X70050000Y-50300000D02*
X70050000Y-49550000D01*
X70050000Y-49550000D02*
X68250000Y-49550000D01*
X62450000Y-51800000D02*
X63200000Y-51800000D01*
X63200000Y-51800000D02*
X63200000Y-54750000D01*
X63200000Y-54750000D02*
X66250000Y-54750000D01*
X70050000Y-51800000D02*
X69300000Y-51800000D01*
X69300000Y-51800000D02*
X69300000Y-54750000D01*
X69300000Y-54750000D02*
X66250000Y-54750000D01*
X64650000Y-49250000D02*
X62150000Y-49250000D01*
X62150000Y-49250000D02*
X62150000Y-51750000D01*
G04 #@! TO.C,J3*
X53150000Y-49250000D02*
X53150000Y-51750000D01*
X55650000Y-49250000D02*
X53150000Y-49250000D01*
X60300000Y-54750000D02*
X57250000Y-54750000D01*
X60300000Y-51800000D02*
X60300000Y-54750000D01*
X61050000Y-51800000D02*
X60300000Y-51800000D01*
X54200000Y-54750000D02*
X57250000Y-54750000D01*
X54200000Y-51800000D02*
X54200000Y-54750000D01*
X53450000Y-51800000D02*
X54200000Y-51800000D01*
X61050000Y-49550000D02*
X59250000Y-49550000D01*
X61050000Y-50300000D02*
X61050000Y-49550000D01*
X59250000Y-50300000D02*
X61050000Y-50300000D01*
X59250000Y-49550000D02*
X59250000Y-50300000D01*
X55250000Y-49550000D02*
X53450000Y-49550000D01*
X55250000Y-50300000D02*
X55250000Y-49550000D01*
X53450000Y-50300000D02*
X55250000Y-50300000D01*
X53450000Y-49550000D02*
X53450000Y-50300000D01*
X57750000Y-49550000D02*
X56750000Y-49550000D01*
X57750000Y-50300000D02*
X57750000Y-49550000D01*
X56750000Y-50300000D02*
X57750000Y-50300000D01*
X56750000Y-49550000D02*
X56750000Y-50300000D01*
X61050000Y-49550000D02*
X53450000Y-49550000D01*
X61050000Y-55500000D02*
X61050000Y-49550000D01*
X53450000Y-55500000D02*
X61050000Y-55500000D01*
X53450000Y-49550000D02*
X53450000Y-55500000D01*
G04 #@! TO.C,J5*
X71150000Y-41250000D02*
X71150000Y-43750000D01*
X73650000Y-41250000D02*
X71150000Y-41250000D01*
X78300000Y-46750000D02*
X75250000Y-46750000D01*
X78300000Y-43800000D02*
X78300000Y-46750000D01*
X79050000Y-43800000D02*
X78300000Y-43800000D01*
X72200000Y-46750000D02*
X75250000Y-46750000D01*
X72200000Y-43800000D02*
X72200000Y-46750000D01*
X71450000Y-43800000D02*
X72200000Y-43800000D01*
X79050000Y-41550000D02*
X77250000Y-41550000D01*
X79050000Y-42300000D02*
X79050000Y-41550000D01*
X77250000Y-42300000D02*
X79050000Y-42300000D01*
X77250000Y-41550000D02*
X77250000Y-42300000D01*
X73250000Y-41550000D02*
X71450000Y-41550000D01*
X73250000Y-42300000D02*
X73250000Y-41550000D01*
X71450000Y-42300000D02*
X73250000Y-42300000D01*
X71450000Y-41550000D02*
X71450000Y-42300000D01*
X75750000Y-41550000D02*
X74750000Y-41550000D01*
X75750000Y-42300000D02*
X75750000Y-41550000D01*
X74750000Y-42300000D02*
X75750000Y-42300000D01*
X74750000Y-41550000D02*
X74750000Y-42300000D01*
X79050000Y-41550000D02*
X71450000Y-41550000D01*
X79050000Y-47500000D02*
X79050000Y-41550000D01*
X71450000Y-47500000D02*
X79050000Y-47500000D01*
X71450000Y-41550000D02*
X71450000Y-47500000D01*
G04 #@! TO.C,J6*
X62450000Y-41550000D02*
X62450000Y-47500000D01*
X62450000Y-47500000D02*
X70050000Y-47500000D01*
X70050000Y-47500000D02*
X70050000Y-41550000D01*
X70050000Y-41550000D02*
X62450000Y-41550000D01*
X65750000Y-41550000D02*
X65750000Y-42300000D01*
X65750000Y-42300000D02*
X66750000Y-42300000D01*
X66750000Y-42300000D02*
X66750000Y-41550000D01*
X66750000Y-41550000D02*
X65750000Y-41550000D01*
X62450000Y-41550000D02*
X62450000Y-42300000D01*
X62450000Y-42300000D02*
X64250000Y-42300000D01*
X64250000Y-42300000D02*
X64250000Y-41550000D01*
X64250000Y-41550000D02*
X62450000Y-41550000D01*
X68250000Y-41550000D02*
X68250000Y-42300000D01*
X68250000Y-42300000D02*
X70050000Y-42300000D01*
X70050000Y-42300000D02*
X70050000Y-41550000D01*
X70050000Y-41550000D02*
X68250000Y-41550000D01*
X62450000Y-43800000D02*
X63200000Y-43800000D01*
X63200000Y-43800000D02*
X63200000Y-46750000D01*
X63200000Y-46750000D02*
X66250000Y-46750000D01*
X70050000Y-43800000D02*
X69300000Y-43800000D01*
X69300000Y-43800000D02*
X69300000Y-46750000D01*
X69300000Y-46750000D02*
X66250000Y-46750000D01*
X64650000Y-41250000D02*
X62150000Y-41250000D01*
X62150000Y-41250000D02*
X62150000Y-43750000D01*
G04 #@! TO.C,J7*
X53150000Y-41250000D02*
X53150000Y-43750000D01*
X55650000Y-41250000D02*
X53150000Y-41250000D01*
X60300000Y-46750000D02*
X57250000Y-46750000D01*
X60300000Y-43800000D02*
X60300000Y-46750000D01*
X61050000Y-43800000D02*
X60300000Y-43800000D01*
X54200000Y-46750000D02*
X57250000Y-46750000D01*
X54200000Y-43800000D02*
X54200000Y-46750000D01*
X53450000Y-43800000D02*
X54200000Y-43800000D01*
X61050000Y-41550000D02*
X59250000Y-41550000D01*
X61050000Y-42300000D02*
X61050000Y-41550000D01*
X59250000Y-42300000D02*
X61050000Y-42300000D01*
X59250000Y-41550000D02*
X59250000Y-42300000D01*
X55250000Y-41550000D02*
X53450000Y-41550000D01*
X55250000Y-42300000D02*
X55250000Y-41550000D01*
X53450000Y-42300000D02*
X55250000Y-42300000D01*
X53450000Y-41550000D02*
X53450000Y-42300000D01*
X57750000Y-41550000D02*
X56750000Y-41550000D01*
X57750000Y-42300000D02*
X57750000Y-41550000D01*
X56750000Y-42300000D02*
X57750000Y-42300000D01*
X56750000Y-41550000D02*
X56750000Y-42300000D01*
X61050000Y-41550000D02*
X53450000Y-41550000D01*
X61050000Y-47500000D02*
X61050000Y-41550000D01*
X53450000Y-47500000D02*
X61050000Y-47500000D01*
X53450000Y-41550000D02*
X53450000Y-47500000D01*
G04 #@! TO.C,J8*
X80450000Y-33550000D02*
X80450000Y-39500000D01*
X80450000Y-39500000D02*
X88050000Y-39500000D01*
X88050000Y-39500000D02*
X88050000Y-33550000D01*
X88050000Y-33550000D02*
X80450000Y-33550000D01*
X83750000Y-33550000D02*
X83750000Y-34300000D01*
X83750000Y-34300000D02*
X84750000Y-34300000D01*
X84750000Y-34300000D02*
X84750000Y-33550000D01*
X84750000Y-33550000D02*
X83750000Y-33550000D01*
X80450000Y-33550000D02*
X80450000Y-34300000D01*
X80450000Y-34300000D02*
X82250000Y-34300000D01*
X82250000Y-34300000D02*
X82250000Y-33550000D01*
X82250000Y-33550000D02*
X80450000Y-33550000D01*
X86250000Y-33550000D02*
X86250000Y-34300000D01*
X86250000Y-34300000D02*
X88050000Y-34300000D01*
X88050000Y-34300000D02*
X88050000Y-33550000D01*
X88050000Y-33550000D02*
X86250000Y-33550000D01*
X80450000Y-35800000D02*
X81200000Y-35800000D01*
X81200000Y-35800000D02*
X81200000Y-38750000D01*
X81200000Y-38750000D02*
X84250000Y-38750000D01*
X88050000Y-35800000D02*
X87300000Y-35800000D01*
X87300000Y-35800000D02*
X87300000Y-38750000D01*
X87300000Y-38750000D02*
X84250000Y-38750000D01*
X82650000Y-33250000D02*
X80150000Y-33250000D01*
X80150000Y-33250000D02*
X80150000Y-35750000D01*
G04 #@! TO.C,J9*
X71150000Y-33250000D02*
X71150000Y-35750000D01*
X73650000Y-33250000D02*
X71150000Y-33250000D01*
X78300000Y-38750000D02*
X75250000Y-38750000D01*
X78300000Y-35800000D02*
X78300000Y-38750000D01*
X79050000Y-35800000D02*
X78300000Y-35800000D01*
X72200000Y-38750000D02*
X75250000Y-38750000D01*
X72200000Y-35800000D02*
X72200000Y-38750000D01*
X71450000Y-35800000D02*
X72200000Y-35800000D01*
X79050000Y-33550000D02*
X77250000Y-33550000D01*
X79050000Y-34300000D02*
X79050000Y-33550000D01*
X77250000Y-34300000D02*
X79050000Y-34300000D01*
X77250000Y-33550000D02*
X77250000Y-34300000D01*
X73250000Y-33550000D02*
X71450000Y-33550000D01*
X73250000Y-34300000D02*
X73250000Y-33550000D01*
X71450000Y-34300000D02*
X73250000Y-34300000D01*
X71450000Y-33550000D02*
X71450000Y-34300000D01*
X75750000Y-33550000D02*
X74750000Y-33550000D01*
X75750000Y-34300000D02*
X75750000Y-33550000D01*
X74750000Y-34300000D02*
X75750000Y-34300000D01*
X74750000Y-33550000D02*
X74750000Y-34300000D01*
X79050000Y-33550000D02*
X71450000Y-33550000D01*
X79050000Y-39500000D02*
X79050000Y-33550000D01*
X71450000Y-39500000D02*
X79050000Y-39500000D01*
X71450000Y-33550000D02*
X71450000Y-39500000D01*
G04 #@! TO.C,J10*
X62150000Y-33250000D02*
X62150000Y-35750000D01*
X64650000Y-33250000D02*
X62150000Y-33250000D01*
X69300000Y-38750000D02*
X66250000Y-38750000D01*
X69300000Y-35800000D02*
X69300000Y-38750000D01*
X70050000Y-35800000D02*
X69300000Y-35800000D01*
X63200000Y-38750000D02*
X66250000Y-38750000D01*
X63200000Y-35800000D02*
X63200000Y-38750000D01*
X62450000Y-35800000D02*
X63200000Y-35800000D01*
X70050000Y-33550000D02*
X68250000Y-33550000D01*
X70050000Y-34300000D02*
X70050000Y-33550000D01*
X68250000Y-34300000D02*
X70050000Y-34300000D01*
X68250000Y-33550000D02*
X68250000Y-34300000D01*
X64250000Y-33550000D02*
X62450000Y-33550000D01*
X64250000Y-34300000D02*
X64250000Y-33550000D01*
X62450000Y-34300000D02*
X64250000Y-34300000D01*
X62450000Y-33550000D02*
X62450000Y-34300000D01*
X66750000Y-33550000D02*
X65750000Y-33550000D01*
X66750000Y-34300000D02*
X66750000Y-33550000D01*
X65750000Y-34300000D02*
X66750000Y-34300000D01*
X65750000Y-33550000D02*
X65750000Y-34300000D01*
X70050000Y-33550000D02*
X62450000Y-33550000D01*
X70050000Y-39500000D02*
X70050000Y-33550000D01*
X62450000Y-39500000D02*
X70050000Y-39500000D01*
X62450000Y-33550000D02*
X62450000Y-39500000D01*
G04 #@! TO.C,J12*
X80150000Y-25250000D02*
X80150000Y-27750000D01*
X82650000Y-25250000D02*
X80150000Y-25250000D01*
X87300000Y-30750000D02*
X84250000Y-30750000D01*
X87300000Y-27800000D02*
X87300000Y-30750000D01*
X88050000Y-27800000D02*
X87300000Y-27800000D01*
X81200000Y-30750000D02*
X84250000Y-30750000D01*
X81200000Y-27800000D02*
X81200000Y-30750000D01*
X80450000Y-27800000D02*
X81200000Y-27800000D01*
X88050000Y-25550000D02*
X86250000Y-25550000D01*
X88050000Y-26300000D02*
X88050000Y-25550000D01*
X86250000Y-26300000D02*
X88050000Y-26300000D01*
X86250000Y-25550000D02*
X86250000Y-26300000D01*
X82250000Y-25550000D02*
X80450000Y-25550000D01*
X82250000Y-26300000D02*
X82250000Y-25550000D01*
X80450000Y-26300000D02*
X82250000Y-26300000D01*
X80450000Y-25550000D02*
X80450000Y-26300000D01*
X84750000Y-25550000D02*
X83750000Y-25550000D01*
X84750000Y-26300000D02*
X84750000Y-25550000D01*
X83750000Y-26300000D02*
X84750000Y-26300000D01*
X83750000Y-25550000D02*
X83750000Y-26300000D01*
X88050000Y-25550000D02*
X80450000Y-25550000D01*
X88050000Y-31500000D02*
X88050000Y-25550000D01*
X80450000Y-31500000D02*
X88050000Y-31500000D01*
X80450000Y-25550000D02*
X80450000Y-31500000D01*
G04 #@! TO.C,J13*
X71450000Y-25550000D02*
X71450000Y-31500000D01*
X71450000Y-31500000D02*
X79050000Y-31500000D01*
X79050000Y-31500000D02*
X79050000Y-25550000D01*
X79050000Y-25550000D02*
X71450000Y-25550000D01*
X74750000Y-25550000D02*
X74750000Y-26300000D01*
X74750000Y-26300000D02*
X75750000Y-26300000D01*
X75750000Y-26300000D02*
X75750000Y-25550000D01*
X75750000Y-25550000D02*
X74750000Y-25550000D01*
X71450000Y-25550000D02*
X71450000Y-26300000D01*
X71450000Y-26300000D02*
X73250000Y-26300000D01*
X73250000Y-26300000D02*
X73250000Y-25550000D01*
X73250000Y-25550000D02*
X71450000Y-25550000D01*
X77250000Y-25550000D02*
X77250000Y-26300000D01*
X77250000Y-26300000D02*
X79050000Y-26300000D01*
X79050000Y-26300000D02*
X79050000Y-25550000D01*
X79050000Y-25550000D02*
X77250000Y-25550000D01*
X71450000Y-27800000D02*
X72200000Y-27800000D01*
X72200000Y-27800000D02*
X72200000Y-30750000D01*
X72200000Y-30750000D02*
X75250000Y-30750000D01*
X79050000Y-27800000D02*
X78300000Y-27800000D01*
X78300000Y-27800000D02*
X78300000Y-30750000D01*
X78300000Y-30750000D02*
X75250000Y-30750000D01*
X73650000Y-25250000D02*
X71150000Y-25250000D01*
X71150000Y-25250000D02*
X71150000Y-27750000D01*
G04 #@! TO.C,J14*
X62150000Y-25250000D02*
X62150000Y-27750000D01*
X64650000Y-25250000D02*
X62150000Y-25250000D01*
X69300000Y-30750000D02*
X66250000Y-30750000D01*
X69300000Y-27800000D02*
X69300000Y-30750000D01*
X70050000Y-27800000D02*
X69300000Y-27800000D01*
X63200000Y-30750000D02*
X66250000Y-30750000D01*
X63200000Y-27800000D02*
X63200000Y-30750000D01*
X62450000Y-27800000D02*
X63200000Y-27800000D01*
X70050000Y-25550000D02*
X68250000Y-25550000D01*
X70050000Y-26300000D02*
X70050000Y-25550000D01*
X68250000Y-26300000D02*
X70050000Y-26300000D01*
X68250000Y-25550000D02*
X68250000Y-26300000D01*
X64250000Y-25550000D02*
X62450000Y-25550000D01*
X64250000Y-26300000D02*
X64250000Y-25550000D01*
X62450000Y-26300000D02*
X64250000Y-26300000D01*
X62450000Y-25550000D02*
X62450000Y-26300000D01*
X66750000Y-25550000D02*
X65750000Y-25550000D01*
X66750000Y-26300000D02*
X66750000Y-25550000D01*
X65750000Y-26300000D02*
X66750000Y-26300000D01*
X65750000Y-25550000D02*
X65750000Y-26300000D01*
X70050000Y-25550000D02*
X62450000Y-25550000D01*
X70050000Y-31500000D02*
X70050000Y-25550000D01*
X62450000Y-31500000D02*
X70050000Y-31500000D01*
X62450000Y-25550000D02*
X62450000Y-31500000D01*
G04 #@! TO.C,J15*
X53450000Y-25550000D02*
X53450000Y-31500000D01*
X53450000Y-31500000D02*
X61050000Y-31500000D01*
X61050000Y-31500000D02*
X61050000Y-25550000D01*
X61050000Y-25550000D02*
X53450000Y-25550000D01*
X56750000Y-25550000D02*
X56750000Y-26300000D01*
X56750000Y-26300000D02*
X57750000Y-26300000D01*
X57750000Y-26300000D02*
X57750000Y-25550000D01*
X57750000Y-25550000D02*
X56750000Y-25550000D01*
X53450000Y-25550000D02*
X53450000Y-26300000D01*
X53450000Y-26300000D02*
X55250000Y-26300000D01*
X55250000Y-26300000D02*
X55250000Y-25550000D01*
X55250000Y-25550000D02*
X53450000Y-25550000D01*
X59250000Y-25550000D02*
X59250000Y-26300000D01*
X59250000Y-26300000D02*
X61050000Y-26300000D01*
X61050000Y-26300000D02*
X61050000Y-25550000D01*
X61050000Y-25550000D02*
X59250000Y-25550000D01*
X53450000Y-27800000D02*
X54200000Y-27800000D01*
X54200000Y-27800000D02*
X54200000Y-30750000D01*
X54200000Y-30750000D02*
X57250000Y-30750000D01*
X61050000Y-27800000D02*
X60300000Y-27800000D01*
X60300000Y-27800000D02*
X60300000Y-30750000D01*
X60300000Y-30750000D02*
X57250000Y-30750000D01*
X55650000Y-25250000D02*
X53150000Y-25250000D01*
X53150000Y-25250000D02*
X53150000Y-27750000D01*
G04 #@! TO.C,J16*
X40330000Y-59330000D02*
X39000000Y-59330000D01*
X40330000Y-58000000D02*
X40330000Y-59330000D01*
X37670000Y-56730000D02*
X40330000Y-56730000D01*
X37670000Y-51590000D02*
X37670000Y-56730000D01*
X40330000Y-51590000D02*
X37670000Y-51590000D01*
X40330000Y-56730000D02*
X40330000Y-51590000D01*
G04 #@! TO.C,J17*
X16716702Y-48547261D02*
X16716702Y-54497261D01*
X16716702Y-54497261D02*
X34316702Y-54497261D01*
X34316702Y-54497261D02*
X34316702Y-48547261D01*
X34316702Y-48547261D02*
X16716702Y-48547261D01*
X20016702Y-48547261D02*
X20016702Y-49297261D01*
X20016702Y-49297261D02*
X31016702Y-49297261D01*
X31016702Y-49297261D02*
X31016702Y-48547261D01*
X31016702Y-48547261D02*
X20016702Y-48547261D01*
X16716702Y-48547261D02*
X16716702Y-49297261D01*
X16716702Y-49297261D02*
X18516702Y-49297261D01*
X18516702Y-49297261D02*
X18516702Y-48547261D01*
X18516702Y-48547261D02*
X16716702Y-48547261D01*
X32516702Y-48547261D02*
X32516702Y-49297261D01*
X32516702Y-49297261D02*
X34316702Y-49297261D01*
X34316702Y-49297261D02*
X34316702Y-48547261D01*
X34316702Y-48547261D02*
X32516702Y-48547261D01*
X16716702Y-50797261D02*
X17466702Y-50797261D01*
X17466702Y-50797261D02*
X17466702Y-53747261D01*
X17466702Y-53747261D02*
X25516702Y-53747261D01*
X34316702Y-50797261D02*
X33566702Y-50797261D01*
X33566702Y-50797261D02*
X33566702Y-53747261D01*
X33566702Y-53747261D02*
X25516702Y-53747261D01*
X18916702Y-48247261D02*
X16416702Y-48247261D01*
X16416702Y-48247261D02*
X16416702Y-50747261D01*
G04 #@! TO.C,J18*
X34616702Y-47247261D02*
X34616702Y-44747261D01*
X32116702Y-47247261D02*
X34616702Y-47247261D01*
X17466702Y-41747261D02*
X25516702Y-41747261D01*
X17466702Y-44697261D02*
X17466702Y-41747261D01*
X16716702Y-44697261D02*
X17466702Y-44697261D01*
X33566702Y-41747261D02*
X25516702Y-41747261D01*
X33566702Y-44697261D02*
X33566702Y-41747261D01*
X34316702Y-44697261D02*
X33566702Y-44697261D01*
X16716702Y-46947261D02*
X18516702Y-46947261D01*
X16716702Y-46197261D02*
X16716702Y-46947261D01*
X18516702Y-46197261D02*
X16716702Y-46197261D01*
X18516702Y-46947261D02*
X18516702Y-46197261D01*
X32516702Y-46947261D02*
X34316702Y-46947261D01*
X32516702Y-46197261D02*
X32516702Y-46947261D01*
X34316702Y-46197261D02*
X32516702Y-46197261D01*
X34316702Y-46947261D02*
X34316702Y-46197261D01*
X20016702Y-46947261D02*
X31016702Y-46947261D01*
X20016702Y-46197261D02*
X20016702Y-46947261D01*
X31016702Y-46197261D02*
X20016702Y-46197261D01*
X31016702Y-46947261D02*
X31016702Y-46197261D01*
X16716702Y-46947261D02*
X34316702Y-46947261D01*
X16716702Y-40997261D02*
X16716702Y-46947261D01*
X34316702Y-40997261D02*
X16716702Y-40997261D01*
X34316702Y-46947261D02*
X34316702Y-40997261D01*
G04 #@! TO.C,R1*
X39500000Y-29480400D02*
X39500000Y-30550400D01*
X39500000Y-35340400D02*
X39500000Y-34270400D01*
X38640000Y-30550400D02*
X38640000Y-34270400D01*
X40360000Y-30550400D02*
X38640000Y-30550400D01*
X40360000Y-34270400D02*
X40360000Y-30550400D01*
X38640000Y-34270400D02*
X40360000Y-34270400D01*
D15*
G04 #@! TO.C,J20*
X26830000Y-38655000D02*
X16670000Y-38655000D01*
X26830000Y-26907500D02*
X26830000Y-38655000D01*
X16670000Y-26907500D02*
X26830000Y-26907500D01*
X16670000Y-38655000D02*
X16670000Y-26907500D01*
X24925000Y-28495000D02*
X26830000Y-28495000D01*
X24925000Y-37385000D02*
X24925000Y-28495000D01*
X26830000Y-37385000D02*
X24925000Y-37385000D01*
D14*
G04 #@! TO.C,D1*
X39290000Y-21920000D02*
X39290000Y-21764000D01*
X39290000Y-24236000D02*
X39290000Y-24080000D01*
X36688870Y-21920163D02*
G75*
G02X38770961Y-21920000I1041130J-1079837D01*
G01*
X36688870Y-24079837D02*
G75*
G03X38770961Y-24080000I1041130J1079837D01*
G01*
X36057665Y-21921392D02*
G75*
G02X39290000Y-21764484I1672335J-1078608D01*
G01*
X36057665Y-24078608D02*
G75*
G03X39290000Y-24235516I1672335J1078608D01*
G01*
G04 #@! TO.C,D2*
X36057665Y-19078608D02*
G75*
G03X39290000Y-19235516I1672335J1078608D01*
G01*
X36057665Y-16921392D02*
G75*
G02X39290000Y-16764484I1672335J-1078608D01*
G01*
X36688870Y-19079837D02*
G75*
G03X38770961Y-19080000I1041130J1079837D01*
G01*
X36688870Y-16920163D02*
G75*
G02X38770961Y-16920000I1041130J-1079837D01*
G01*
X39290000Y-19236000D02*
X39290000Y-19080000D01*
X39290000Y-16920000D02*
X39290000Y-16764000D01*
G04 #@! TO.C,R2*
X27950000Y-22140000D02*
X27950000Y-23860000D01*
X27950000Y-23860000D02*
X31670000Y-23860000D01*
X31670000Y-23860000D02*
X31670000Y-22140000D01*
X31670000Y-22140000D02*
X27950000Y-22140000D01*
X26880000Y-23000000D02*
X27950000Y-23000000D01*
X32740000Y-23000000D02*
X31670000Y-23000000D01*
G04 #@! TO.C,R3*
X32740000Y-18000000D02*
X31670000Y-18000000D01*
X26880000Y-18000000D02*
X27950000Y-18000000D01*
X31670000Y-17140000D02*
X27950000Y-17140000D01*
X31670000Y-18860000D02*
X31670000Y-17140000D01*
X27950000Y-18860000D02*
X31670000Y-18860000D01*
X27950000Y-17140000D02*
X27950000Y-18860000D01*
G04 #@! TO.C,C1*
X40560000Y-45060000D02*
X38440000Y-45060000D01*
X40560000Y-37940000D02*
X38440000Y-37940000D01*
X38440000Y-37940000D02*
X38440000Y-45060000D01*
X40560000Y-37940000D02*
X40560000Y-45060000D01*
D16*
G04 #@! TO.C,REF\002A\002A\002A*
G36*
X63099744Y-62419918D02*
X63155201Y-62447568D01*
X63204148Y-62498480D01*
X63217629Y-62517338D01*
X63232314Y-62542015D01*
X63241842Y-62568816D01*
X63247293Y-62604587D01*
X63249747Y-62656169D01*
X63250286Y-62724267D01*
X63247852Y-62817588D01*
X63239394Y-62887657D01*
X63223174Y-62939931D01*
X63197454Y-62979869D01*
X63160497Y-63012929D01*
X63157782Y-63014886D01*
X63121360Y-63034908D01*
X63077502Y-63044815D01*
X63021724Y-63047257D01*
X62931048Y-63047257D01*
X62931010Y-63135283D01*
X62930166Y-63184308D01*
X62925024Y-63213065D01*
X62911587Y-63230311D01*
X62885858Y-63244808D01*
X62879679Y-63247769D01*
X62850764Y-63261648D01*
X62828376Y-63270414D01*
X62811729Y-63271171D01*
X62800036Y-63261023D01*
X62792510Y-63237073D01*
X62788366Y-63196426D01*
X62786815Y-63136186D01*
X62787071Y-63053455D01*
X62788349Y-62945339D01*
X62788748Y-62913000D01*
X62790185Y-62801524D01*
X62791472Y-62728603D01*
X62930971Y-62728603D01*
X62931755Y-62790499D01*
X62935240Y-62830997D01*
X62943124Y-62857708D01*
X62957105Y-62878244D01*
X62966597Y-62888260D01*
X63005404Y-62917567D01*
X63039763Y-62919952D01*
X63075216Y-62895750D01*
X63076114Y-62894857D01*
X63090539Y-62876153D01*
X63099313Y-62850732D01*
X63103739Y-62811584D01*
X63105118Y-62751697D01*
X63105143Y-62738430D01*
X63101812Y-62655901D01*
X63090969Y-62598691D01*
X63071340Y-62563766D01*
X63041650Y-62548094D01*
X63024491Y-62546514D01*
X62983766Y-62553926D01*
X62955832Y-62578330D01*
X62939017Y-62622980D01*
X62931650Y-62691130D01*
X62930971Y-62728603D01*
X62791472Y-62728603D01*
X62791708Y-62715245D01*
X62793677Y-62650333D01*
X62796450Y-62602958D01*
X62800388Y-62569290D01*
X62805849Y-62545498D01*
X62813192Y-62527753D01*
X62822777Y-62512224D01*
X62826887Y-62506381D01*
X62881405Y-62451185D01*
X62950336Y-62419890D01*
X63030072Y-62411165D01*
X63099744Y-62419918D01*
X63099744Y-62419918D01*
G37*
X63099744Y-62419918D02*
X63155201Y-62447568D01*
X63204148Y-62498480D01*
X63217629Y-62517338D01*
X63232314Y-62542015D01*
X63241842Y-62568816D01*
X63247293Y-62604587D01*
X63249747Y-62656169D01*
X63250286Y-62724267D01*
X63247852Y-62817588D01*
X63239394Y-62887657D01*
X63223174Y-62939931D01*
X63197454Y-62979869D01*
X63160497Y-63012929D01*
X63157782Y-63014886D01*
X63121360Y-63034908D01*
X63077502Y-63044815D01*
X63021724Y-63047257D01*
X62931048Y-63047257D01*
X62931010Y-63135283D01*
X62930166Y-63184308D01*
X62925024Y-63213065D01*
X62911587Y-63230311D01*
X62885858Y-63244808D01*
X62879679Y-63247769D01*
X62850764Y-63261648D01*
X62828376Y-63270414D01*
X62811729Y-63271171D01*
X62800036Y-63261023D01*
X62792510Y-63237073D01*
X62788366Y-63196426D01*
X62786815Y-63136186D01*
X62787071Y-63053455D01*
X62788349Y-62945339D01*
X62788748Y-62913000D01*
X62790185Y-62801524D01*
X62791472Y-62728603D01*
X62930971Y-62728603D01*
X62931755Y-62790499D01*
X62935240Y-62830997D01*
X62943124Y-62857708D01*
X62957105Y-62878244D01*
X62966597Y-62888260D01*
X63005404Y-62917567D01*
X63039763Y-62919952D01*
X63075216Y-62895750D01*
X63076114Y-62894857D01*
X63090539Y-62876153D01*
X63099313Y-62850732D01*
X63103739Y-62811584D01*
X63105118Y-62751697D01*
X63105143Y-62738430D01*
X63101812Y-62655901D01*
X63090969Y-62598691D01*
X63071340Y-62563766D01*
X63041650Y-62548094D01*
X63024491Y-62546514D01*
X62983766Y-62553926D01*
X62955832Y-62578330D01*
X62939017Y-62622980D01*
X62931650Y-62691130D01*
X62930971Y-62728603D01*
X62791472Y-62728603D01*
X62791708Y-62715245D01*
X62793677Y-62650333D01*
X62796450Y-62602958D01*
X62800388Y-62569290D01*
X62805849Y-62545498D01*
X62813192Y-62527753D01*
X62822777Y-62512224D01*
X62826887Y-62506381D01*
X62881405Y-62451185D01*
X62950336Y-62419890D01*
X63030072Y-62411165D01*
X63099744Y-62419918D01*
G36*
X64216093Y-62427780D02*
X64262672Y-62454723D01*
X64295057Y-62481466D01*
X64318742Y-62509484D01*
X64335059Y-62543748D01*
X64345339Y-62589227D01*
X64350914Y-62650892D01*
X64353116Y-62733711D01*
X64353371Y-62793246D01*
X64353371Y-63012391D01*
X64291686Y-63040044D01*
X64230000Y-63067697D01*
X64222743Y-62827670D01*
X64219744Y-62738028D01*
X64216598Y-62672962D01*
X64212701Y-62628026D01*
X64207447Y-62598770D01*
X64200231Y-62580748D01*
X64190450Y-62569511D01*
X64187312Y-62567079D01*
X64139761Y-62548083D01*
X64091697Y-62555600D01*
X64063086Y-62575543D01*
X64051447Y-62589675D01*
X64043391Y-62608220D01*
X64038271Y-62636334D01*
X64035441Y-62679173D01*
X64034256Y-62741895D01*
X64034057Y-62807261D01*
X64034018Y-62889268D01*
X64032614Y-62947316D01*
X64027914Y-62986465D01*
X64017987Y-63011780D01*
X64000903Y-63028323D01*
X63974732Y-63041156D01*
X63939775Y-63054491D01*
X63901596Y-63069007D01*
X63906141Y-62811389D01*
X63907971Y-62718519D01*
X63910112Y-62649889D01*
X63913181Y-62600711D01*
X63917794Y-62566198D01*
X63924568Y-62541562D01*
X63934119Y-62522016D01*
X63945634Y-62504770D01*
X64001190Y-62449680D01*
X64068980Y-62417822D01*
X64142713Y-62410191D01*
X64216093Y-62427780D01*
X64216093Y-62427780D01*
G37*
X64216093Y-62427780D02*
X64262672Y-62454723D01*
X64295057Y-62481466D01*
X64318742Y-62509484D01*
X64335059Y-62543748D01*
X64345339Y-62589227D01*
X64350914Y-62650892D01*
X64353116Y-62733711D01*
X64353371Y-62793246D01*
X64353371Y-63012391D01*
X64291686Y-63040044D01*
X64230000Y-63067697D01*
X64222743Y-62827670D01*
X64219744Y-62738028D01*
X64216598Y-62672962D01*
X64212701Y-62628026D01*
X64207447Y-62598770D01*
X64200231Y-62580748D01*
X64190450Y-62569511D01*
X64187312Y-62567079D01*
X64139761Y-62548083D01*
X64091697Y-62555600D01*
X64063086Y-62575543D01*
X64051447Y-62589675D01*
X64043391Y-62608220D01*
X64038271Y-62636334D01*
X64035441Y-62679173D01*
X64034256Y-62741895D01*
X64034057Y-62807261D01*
X64034018Y-62889268D01*
X64032614Y-62947316D01*
X64027914Y-62986465D01*
X64017987Y-63011780D01*
X64000903Y-63028323D01*
X63974732Y-63041156D01*
X63939775Y-63054491D01*
X63901596Y-63069007D01*
X63906141Y-62811389D01*
X63907971Y-62718519D01*
X63910112Y-62649889D01*
X63913181Y-62600711D01*
X63917794Y-62566198D01*
X63924568Y-62541562D01*
X63934119Y-62522016D01*
X63945634Y-62504770D01*
X64001190Y-62449680D01*
X64068980Y-62417822D01*
X64142713Y-62410191D01*
X64216093Y-62427780D01*
G36*
X62541115Y-62421962D02*
X62609145Y-62457733D01*
X62659351Y-62515301D01*
X62677185Y-62552312D01*
X62691063Y-62607882D01*
X62698167Y-62678096D01*
X62698840Y-62754727D01*
X62693427Y-62829552D01*
X62682270Y-62894342D01*
X62665714Y-62940873D01*
X62660626Y-62948887D01*
X62600355Y-63008707D01*
X62528769Y-63044535D01*
X62451092Y-63055020D01*
X62372548Y-63038810D01*
X62350689Y-63029092D01*
X62308122Y-62999143D01*
X62270763Y-62959433D01*
X62267232Y-62954397D01*
X62252881Y-62930124D01*
X62243394Y-62904178D01*
X62237790Y-62870022D01*
X62235086Y-62821119D01*
X62234299Y-62750935D01*
X62234286Y-62735200D01*
X62234322Y-62730192D01*
X62379429Y-62730192D01*
X62380273Y-62796430D01*
X62383596Y-62840386D01*
X62390583Y-62868779D01*
X62402416Y-62888325D01*
X62408457Y-62894857D01*
X62443186Y-62919680D01*
X62476903Y-62918548D01*
X62510995Y-62897016D01*
X62531329Y-62874029D01*
X62543371Y-62840478D01*
X62550134Y-62787569D01*
X62550598Y-62781399D01*
X62551752Y-62685513D01*
X62539688Y-62614299D01*
X62514570Y-62568194D01*
X62476560Y-62547635D01*
X62462992Y-62546514D01*
X62427364Y-62552152D01*
X62402994Y-62571686D01*
X62388093Y-62609042D01*
X62380875Y-62668150D01*
X62379429Y-62730192D01*
X62234322Y-62730192D01*
X62234826Y-62660413D01*
X62237096Y-62608159D01*
X62242068Y-62571949D01*
X62250713Y-62545299D01*
X62264005Y-62521722D01*
X62266943Y-62517338D01*
X62316313Y-62458249D01*
X62370109Y-62423947D01*
X62435602Y-62410331D01*
X62457842Y-62409665D01*
X62541115Y-62421962D01*
X62541115Y-62421962D01*
G37*
X62541115Y-62421962D02*
X62609145Y-62457733D01*
X62659351Y-62515301D01*
X62677185Y-62552312D01*
X62691063Y-62607882D01*
X62698167Y-62678096D01*
X62698840Y-62754727D01*
X62693427Y-62829552D01*
X62682270Y-62894342D01*
X62665714Y-62940873D01*
X62660626Y-62948887D01*
X62600355Y-63008707D01*
X62528769Y-63044535D01*
X62451092Y-63055020D01*
X62372548Y-63038810D01*
X62350689Y-63029092D01*
X62308122Y-62999143D01*
X62270763Y-62959433D01*
X62267232Y-62954397D01*
X62252881Y-62930124D01*
X62243394Y-62904178D01*
X62237790Y-62870022D01*
X62235086Y-62821119D01*
X62234299Y-62750935D01*
X62234286Y-62735200D01*
X62234322Y-62730192D01*
X62379429Y-62730192D01*
X62380273Y-62796430D01*
X62383596Y-62840386D01*
X62390583Y-62868779D01*
X62402416Y-62888325D01*
X62408457Y-62894857D01*
X62443186Y-62919680D01*
X62476903Y-62918548D01*
X62510995Y-62897016D01*
X62531329Y-62874029D01*
X62543371Y-62840478D01*
X62550134Y-62787569D01*
X62550598Y-62781399D01*
X62551752Y-62685513D01*
X62539688Y-62614299D01*
X62514570Y-62568194D01*
X62476560Y-62547635D01*
X62462992Y-62546514D01*
X62427364Y-62552152D01*
X62402994Y-62571686D01*
X62388093Y-62609042D01*
X62380875Y-62668150D01*
X62379429Y-62730192D01*
X62234322Y-62730192D01*
X62234826Y-62660413D01*
X62237096Y-62608159D01*
X62242068Y-62571949D01*
X62250713Y-62545299D01*
X62264005Y-62521722D01*
X62266943Y-62517338D01*
X62316313Y-62458249D01*
X62370109Y-62423947D01*
X62435602Y-62410331D01*
X62457842Y-62409665D01*
X62541115Y-62421962D01*
G36*
X63668303Y-62431239D02*
X63725527Y-62469735D01*
X63769749Y-62525335D01*
X63796167Y-62596086D01*
X63801510Y-62648162D01*
X63800903Y-62669893D01*
X63795822Y-62686531D01*
X63781855Y-62701437D01*
X63754589Y-62717973D01*
X63709612Y-62739498D01*
X63642511Y-62769374D01*
X63642171Y-62769524D01*
X63580407Y-62797813D01*
X63529759Y-62822933D01*
X63495404Y-62842179D01*
X63482518Y-62852848D01*
X63482514Y-62852934D01*
X63493872Y-62876166D01*
X63520431Y-62901774D01*
X63550923Y-62920221D01*
X63566370Y-62923886D01*
X63608515Y-62911212D01*
X63644808Y-62879471D01*
X63662517Y-62844572D01*
X63679552Y-62818845D01*
X63712922Y-62789546D01*
X63752149Y-62764235D01*
X63786756Y-62750471D01*
X63793993Y-62749714D01*
X63802139Y-62762160D01*
X63802630Y-62793972D01*
X63796643Y-62836866D01*
X63785357Y-62882558D01*
X63769950Y-62922761D01*
X63769171Y-62924322D01*
X63722804Y-62989062D01*
X63662711Y-63033097D01*
X63594465Y-63054711D01*
X63523638Y-63052185D01*
X63455804Y-63023804D01*
X63452788Y-63021808D01*
X63399427Y-62973448D01*
X63364340Y-62910352D01*
X63344922Y-62827387D01*
X63342316Y-62804078D01*
X63337701Y-62694055D01*
X63343233Y-62642748D01*
X63482514Y-62642748D01*
X63484324Y-62674753D01*
X63494222Y-62684093D01*
X63518898Y-62677105D01*
X63557795Y-62660587D01*
X63601275Y-62639881D01*
X63602356Y-62639333D01*
X63639209Y-62619949D01*
X63654000Y-62607013D01*
X63650353Y-62593451D01*
X63634995Y-62575632D01*
X63595923Y-62549845D01*
X63553846Y-62547950D01*
X63516103Y-62566717D01*
X63490034Y-62602915D01*
X63482514Y-62642748D01*
X63343233Y-62642748D01*
X63347194Y-62606027D01*
X63371550Y-62536212D01*
X63405456Y-62487302D01*
X63466653Y-62437878D01*
X63534063Y-62413359D01*
X63602880Y-62411797D01*
X63668303Y-62431239D01*
X63668303Y-62431239D01*
G37*
X63668303Y-62431239D02*
X63725527Y-62469735D01*
X63769749Y-62525335D01*
X63796167Y-62596086D01*
X63801510Y-62648162D01*
X63800903Y-62669893D01*
X63795822Y-62686531D01*
X63781855Y-62701437D01*
X63754589Y-62717973D01*
X63709612Y-62739498D01*
X63642511Y-62769374D01*
X63642171Y-62769524D01*
X63580407Y-62797813D01*
X63529759Y-62822933D01*
X63495404Y-62842179D01*
X63482518Y-62852848D01*
X63482514Y-62852934D01*
X63493872Y-62876166D01*
X63520431Y-62901774D01*
X63550923Y-62920221D01*
X63566370Y-62923886D01*
X63608515Y-62911212D01*
X63644808Y-62879471D01*
X63662517Y-62844572D01*
X63679552Y-62818845D01*
X63712922Y-62789546D01*
X63752149Y-62764235D01*
X63786756Y-62750471D01*
X63793993Y-62749714D01*
X63802139Y-62762160D01*
X63802630Y-62793972D01*
X63796643Y-62836866D01*
X63785357Y-62882558D01*
X63769950Y-62922761D01*
X63769171Y-62924322D01*
X63722804Y-62989062D01*
X63662711Y-63033097D01*
X63594465Y-63054711D01*
X63523638Y-63052185D01*
X63455804Y-63023804D01*
X63452788Y-63021808D01*
X63399427Y-62973448D01*
X63364340Y-62910352D01*
X63344922Y-62827387D01*
X63342316Y-62804078D01*
X63337701Y-62694055D01*
X63343233Y-62642748D01*
X63482514Y-62642748D01*
X63484324Y-62674753D01*
X63494222Y-62684093D01*
X63518898Y-62677105D01*
X63557795Y-62660587D01*
X63601275Y-62639881D01*
X63602356Y-62639333D01*
X63639209Y-62619949D01*
X63654000Y-62607013D01*
X63650353Y-62593451D01*
X63634995Y-62575632D01*
X63595923Y-62549845D01*
X63553846Y-62547950D01*
X63516103Y-62566717D01*
X63490034Y-62602915D01*
X63482514Y-62642748D01*
X63343233Y-62642748D01*
X63347194Y-62606027D01*
X63371550Y-62536212D01*
X63405456Y-62487302D01*
X63466653Y-62437878D01*
X63534063Y-62413359D01*
X63602880Y-62411797D01*
X63668303Y-62431239D01*
G36*
X64875886Y-62351289D02*
X64880139Y-62410613D01*
X64885025Y-62445572D01*
X64891795Y-62460820D01*
X64901702Y-62461015D01*
X64904914Y-62459195D01*
X64947644Y-62446015D01*
X65003227Y-62446785D01*
X65059737Y-62460333D01*
X65095082Y-62477861D01*
X65131321Y-62505861D01*
X65157813Y-62537549D01*
X65175999Y-62577813D01*
X65187322Y-62631543D01*
X65193222Y-62703626D01*
X65195143Y-62798951D01*
X65195177Y-62817237D01*
X65195200Y-63022646D01*
X65149491Y-63038580D01*
X65117027Y-63049420D01*
X65099215Y-63054468D01*
X65098691Y-63054514D01*
X65096937Y-63040828D01*
X65095444Y-63003076D01*
X65094326Y-62946224D01*
X65093697Y-62875234D01*
X65093600Y-62832073D01*
X65093398Y-62746973D01*
X65092358Y-62685981D01*
X65089831Y-62644177D01*
X65085164Y-62616642D01*
X65077707Y-62598456D01*
X65066811Y-62584698D01*
X65060007Y-62578073D01*
X65013272Y-62551375D01*
X64962272Y-62549375D01*
X64916001Y-62571955D01*
X64907444Y-62580107D01*
X64894893Y-62595436D01*
X64886188Y-62613618D01*
X64880631Y-62639909D01*
X64877526Y-62679562D01*
X64876176Y-62737832D01*
X64875886Y-62818173D01*
X64875886Y-63022646D01*
X64830177Y-63038580D01*
X64797713Y-63049420D01*
X64779901Y-63054468D01*
X64779377Y-63054514D01*
X64778037Y-63040623D01*
X64776828Y-63001439D01*
X64775801Y-62940700D01*
X64775002Y-62862141D01*
X64774481Y-62769498D01*
X64774286Y-62666509D01*
X64774286Y-62269342D01*
X64821457Y-62249444D01*
X64868629Y-62229547D01*
X64875886Y-62351289D01*
X64875886Y-62351289D01*
G37*
X64875886Y-62351289D02*
X64880139Y-62410613D01*
X64885025Y-62445572D01*
X64891795Y-62460820D01*
X64901702Y-62461015D01*
X64904914Y-62459195D01*
X64947644Y-62446015D01*
X65003227Y-62446785D01*
X65059737Y-62460333D01*
X65095082Y-62477861D01*
X65131321Y-62505861D01*
X65157813Y-62537549D01*
X65175999Y-62577813D01*
X65187322Y-62631543D01*
X65193222Y-62703626D01*
X65195143Y-62798951D01*
X65195177Y-62817237D01*
X65195200Y-63022646D01*
X65149491Y-63038580D01*
X65117027Y-63049420D01*
X65099215Y-63054468D01*
X65098691Y-63054514D01*
X65096937Y-63040828D01*
X65095444Y-63003076D01*
X65094326Y-62946224D01*
X65093697Y-62875234D01*
X65093600Y-62832073D01*
X65093398Y-62746973D01*
X65092358Y-62685981D01*
X65089831Y-62644177D01*
X65085164Y-62616642D01*
X65077707Y-62598456D01*
X65066811Y-62584698D01*
X65060007Y-62578073D01*
X65013272Y-62551375D01*
X64962272Y-62549375D01*
X64916001Y-62571955D01*
X64907444Y-62580107D01*
X64894893Y-62595436D01*
X64886188Y-62613618D01*
X64880631Y-62639909D01*
X64877526Y-62679562D01*
X64876176Y-62737832D01*
X64875886Y-62818173D01*
X64875886Y-63022646D01*
X64830177Y-63038580D01*
X64797713Y-63049420D01*
X64779901Y-63054468D01*
X64779377Y-63054514D01*
X64778037Y-63040623D01*
X64776828Y-63001439D01*
X64775801Y-62940700D01*
X64775002Y-62862141D01*
X64774481Y-62769498D01*
X64774286Y-62666509D01*
X64774286Y-62269342D01*
X64821457Y-62249444D01*
X64868629Y-62229547D01*
X64875886Y-62351289D01*
G36*
X65539744Y-62450968D02*
X65596616Y-62472087D01*
X65597267Y-62472493D01*
X65632440Y-62498380D01*
X65658407Y-62528633D01*
X65676670Y-62568058D01*
X65688732Y-62621462D01*
X65696096Y-62693651D01*
X65700264Y-62789432D01*
X65700629Y-62803078D01*
X65705876Y-63008842D01*
X65661716Y-63031678D01*
X65629763Y-63047110D01*
X65610470Y-63054423D01*
X65609578Y-63054514D01*
X65606239Y-63041022D01*
X65603587Y-63004626D01*
X65601956Y-62951452D01*
X65601600Y-62908393D01*
X65601592Y-62838641D01*
X65598403Y-62794837D01*
X65587288Y-62773944D01*
X65563501Y-62772925D01*
X65522296Y-62788741D01*
X65460086Y-62817815D01*
X65414341Y-62841963D01*
X65390813Y-62862913D01*
X65383896Y-62885747D01*
X65383886Y-62886877D01*
X65395299Y-62926212D01*
X65429092Y-62947462D01*
X65480809Y-62950539D01*
X65518061Y-62950006D01*
X65537703Y-62960735D01*
X65549952Y-62986505D01*
X65557002Y-63019337D01*
X65546842Y-63037966D01*
X65543017Y-63040632D01*
X65507001Y-63051340D01*
X65456566Y-63052856D01*
X65404626Y-63045759D01*
X65367822Y-63032788D01*
X65316938Y-62989585D01*
X65288014Y-62929446D01*
X65282286Y-62882462D01*
X65286657Y-62840082D01*
X65302475Y-62805488D01*
X65333797Y-62774763D01*
X65384678Y-62743990D01*
X65459176Y-62709252D01*
X65463714Y-62707288D01*
X65530821Y-62676287D01*
X65572232Y-62650862D01*
X65589981Y-62628014D01*
X65586107Y-62604745D01*
X65562643Y-62578056D01*
X65555627Y-62571914D01*
X65508630Y-62548100D01*
X65459933Y-62549103D01*
X65417522Y-62572451D01*
X65389384Y-62615675D01*
X65386769Y-62624160D01*
X65361308Y-62665308D01*
X65329001Y-62685128D01*
X65282286Y-62704770D01*
X65282286Y-62653950D01*
X65296496Y-62580082D01*
X65338675Y-62512327D01*
X65360624Y-62489661D01*
X65410517Y-62460569D01*
X65473967Y-62447400D01*
X65539744Y-62450968D01*
X65539744Y-62450968D01*
G37*
X65539744Y-62450968D02*
X65596616Y-62472087D01*
X65597267Y-62472493D01*
X65632440Y-62498380D01*
X65658407Y-62528633D01*
X65676670Y-62568058D01*
X65688732Y-62621462D01*
X65696096Y-62693651D01*
X65700264Y-62789432D01*
X65700629Y-62803078D01*
X65705876Y-63008842D01*
X65661716Y-63031678D01*
X65629763Y-63047110D01*
X65610470Y-63054423D01*
X65609578Y-63054514D01*
X65606239Y-63041022D01*
X65603587Y-63004626D01*
X65601956Y-62951452D01*
X65601600Y-62908393D01*
X65601592Y-62838641D01*
X65598403Y-62794837D01*
X65587288Y-62773944D01*
X65563501Y-62772925D01*
X65522296Y-62788741D01*
X65460086Y-62817815D01*
X65414341Y-62841963D01*
X65390813Y-62862913D01*
X65383896Y-62885747D01*
X65383886Y-62886877D01*
X65395299Y-62926212D01*
X65429092Y-62947462D01*
X65480809Y-62950539D01*
X65518061Y-62950006D01*
X65537703Y-62960735D01*
X65549952Y-62986505D01*
X65557002Y-63019337D01*
X65546842Y-63037966D01*
X65543017Y-63040632D01*
X65507001Y-63051340D01*
X65456566Y-63052856D01*
X65404626Y-63045759D01*
X65367822Y-63032788D01*
X65316938Y-62989585D01*
X65288014Y-62929446D01*
X65282286Y-62882462D01*
X65286657Y-62840082D01*
X65302475Y-62805488D01*
X65333797Y-62774763D01*
X65384678Y-62743990D01*
X65459176Y-62709252D01*
X65463714Y-62707288D01*
X65530821Y-62676287D01*
X65572232Y-62650862D01*
X65589981Y-62628014D01*
X65586107Y-62604745D01*
X65562643Y-62578056D01*
X65555627Y-62571914D01*
X65508630Y-62548100D01*
X65459933Y-62549103D01*
X65417522Y-62572451D01*
X65389384Y-62615675D01*
X65386769Y-62624160D01*
X65361308Y-62665308D01*
X65329001Y-62685128D01*
X65282286Y-62704770D01*
X65282286Y-62653950D01*
X65296496Y-62580082D01*
X65338675Y-62512327D01*
X65360624Y-62489661D01*
X65410517Y-62460569D01*
X65473967Y-62447400D01*
X65539744Y-62450968D01*
G36*
X66029926Y-62449755D02*
X66095858Y-62474084D01*
X66149273Y-62517117D01*
X66170164Y-62547409D01*
X66192939Y-62602994D01*
X66192466Y-62643186D01*
X66168562Y-62670217D01*
X66159717Y-62674813D01*
X66121530Y-62689144D01*
X66102028Y-62685472D01*
X66095422Y-62661407D01*
X66095086Y-62648114D01*
X66082992Y-62599210D01*
X66051471Y-62564999D01*
X66007659Y-62548476D01*
X65958695Y-62552634D01*
X65918894Y-62574227D01*
X65905450Y-62586544D01*
X65895921Y-62601487D01*
X65889485Y-62624075D01*
X65885317Y-62659328D01*
X65882597Y-62712266D01*
X65880502Y-62787907D01*
X65879960Y-62811857D01*
X65877981Y-62893790D01*
X65875731Y-62951455D01*
X65872357Y-62989608D01*
X65867006Y-63013004D01*
X65858824Y-63026398D01*
X65846959Y-63034545D01*
X65839362Y-63038144D01*
X65807102Y-63050452D01*
X65788111Y-63054514D01*
X65781836Y-63040948D01*
X65778006Y-62999934D01*
X65776600Y-62930999D01*
X65777598Y-62833669D01*
X65777908Y-62818657D01*
X65780101Y-62729859D01*
X65782693Y-62665019D01*
X65786382Y-62619067D01*
X65791864Y-62586935D01*
X65799835Y-62563553D01*
X65810993Y-62543852D01*
X65816830Y-62535410D01*
X65850296Y-62498057D01*
X65887727Y-62469003D01*
X65892309Y-62466467D01*
X65959426Y-62446443D01*
X66029926Y-62449755D01*
X66029926Y-62449755D01*
G37*
X66029926Y-62449755D02*
X66095858Y-62474084D01*
X66149273Y-62517117D01*
X66170164Y-62547409D01*
X66192939Y-62602994D01*
X66192466Y-62643186D01*
X66168562Y-62670217D01*
X66159717Y-62674813D01*
X66121530Y-62689144D01*
X66102028Y-62685472D01*
X66095422Y-62661407D01*
X66095086Y-62648114D01*
X66082992Y-62599210D01*
X66051471Y-62564999D01*
X66007659Y-62548476D01*
X65958695Y-62552634D01*
X65918894Y-62574227D01*
X65905450Y-62586544D01*
X65895921Y-62601487D01*
X65889485Y-62624075D01*
X65885317Y-62659328D01*
X65882597Y-62712266D01*
X65880502Y-62787907D01*
X65879960Y-62811857D01*
X65877981Y-62893790D01*
X65875731Y-62951455D01*
X65872357Y-62989608D01*
X65867006Y-63013004D01*
X65858824Y-63026398D01*
X65846959Y-63034545D01*
X65839362Y-63038144D01*
X65807102Y-63050452D01*
X65788111Y-63054514D01*
X65781836Y-63040948D01*
X65778006Y-62999934D01*
X65776600Y-62930999D01*
X65777598Y-62833669D01*
X65777908Y-62818657D01*
X65780101Y-62729859D01*
X65782693Y-62665019D01*
X65786382Y-62619067D01*
X65791864Y-62586935D01*
X65799835Y-62563553D01*
X65810993Y-62543852D01*
X65816830Y-62535410D01*
X65850296Y-62498057D01*
X65887727Y-62469003D01*
X65892309Y-62466467D01*
X65959426Y-62446443D01*
X66029926Y-62449755D01*
G36*
X66690117Y-62565358D02*
X66689933Y-62673837D01*
X66689219Y-62757287D01*
X66687675Y-62819704D01*
X66685001Y-62865085D01*
X66680894Y-62897429D01*
X66675055Y-62920733D01*
X66667182Y-62938995D01*
X66661221Y-62949418D01*
X66611855Y-63005945D01*
X66549264Y-63041377D01*
X66480013Y-63054090D01*
X66410668Y-63042463D01*
X66369375Y-63021568D01*
X66326025Y-62985422D01*
X66296481Y-62941276D01*
X66278655Y-62883462D01*
X66270463Y-62806313D01*
X66269302Y-62749714D01*
X66269458Y-62745647D01*
X66370857Y-62745647D01*
X66371476Y-62810550D01*
X66374314Y-62853514D01*
X66380840Y-62881622D01*
X66392523Y-62901953D01*
X66406483Y-62917288D01*
X66453365Y-62946890D01*
X66503701Y-62949419D01*
X66551276Y-62924705D01*
X66554979Y-62921356D01*
X66570783Y-62903935D01*
X66580693Y-62883209D01*
X66586058Y-62852362D01*
X66588228Y-62804577D01*
X66588571Y-62751748D01*
X66587827Y-62685381D01*
X66584748Y-62641106D01*
X66578061Y-62612009D01*
X66566496Y-62591173D01*
X66557013Y-62580107D01*
X66512960Y-62552198D01*
X66462224Y-62548843D01*
X66413796Y-62570159D01*
X66404450Y-62578073D01*
X66388540Y-62595647D01*
X66378610Y-62616587D01*
X66373278Y-62647782D01*
X66371163Y-62696122D01*
X66370857Y-62745647D01*
X66269458Y-62745647D01*
X66272810Y-62658568D01*
X66284726Y-62590086D01*
X66307135Y-62538600D01*
X66342124Y-62498443D01*
X66369375Y-62477861D01*
X66418907Y-62455625D01*
X66476316Y-62445304D01*
X66529682Y-62448067D01*
X66559543Y-62459212D01*
X66571261Y-62462383D01*
X66579037Y-62450557D01*
X66584465Y-62418866D01*
X66588571Y-62370593D01*
X66593067Y-62316829D01*
X66599313Y-62284482D01*
X66610676Y-62265985D01*
X66630528Y-62253770D01*
X66643000Y-62248362D01*
X66690171Y-62228601D01*
X66690117Y-62565358D01*
X66690117Y-62565358D01*
G37*
X66690117Y-62565358D02*
X66689933Y-62673837D01*
X66689219Y-62757287D01*
X66687675Y-62819704D01*
X66685001Y-62865085D01*
X66680894Y-62897429D01*
X66675055Y-62920733D01*
X66667182Y-62938995D01*
X66661221Y-62949418D01*
X66611855Y-63005945D01*
X66549264Y-63041377D01*
X66480013Y-63054090D01*
X66410668Y-63042463D01*
X66369375Y-63021568D01*
X66326025Y-62985422D01*
X66296481Y-62941276D01*
X66278655Y-62883462D01*
X66270463Y-62806313D01*
X66269302Y-62749714D01*
X66269458Y-62745647D01*
X66370857Y-62745647D01*
X66371476Y-62810550D01*
X66374314Y-62853514D01*
X66380840Y-62881622D01*
X66392523Y-62901953D01*
X66406483Y-62917288D01*
X66453365Y-62946890D01*
X66503701Y-62949419D01*
X66551276Y-62924705D01*
X66554979Y-62921356D01*
X66570783Y-62903935D01*
X66580693Y-62883209D01*
X66586058Y-62852362D01*
X66588228Y-62804577D01*
X66588571Y-62751748D01*
X66587827Y-62685381D01*
X66584748Y-62641106D01*
X66578061Y-62612009D01*
X66566496Y-62591173D01*
X66557013Y-62580107D01*
X66512960Y-62552198D01*
X66462224Y-62548843D01*
X66413796Y-62570159D01*
X66404450Y-62578073D01*
X66388540Y-62595647D01*
X66378610Y-62616587D01*
X66373278Y-62647782D01*
X66371163Y-62696122D01*
X66370857Y-62745647D01*
X66269458Y-62745647D01*
X66272810Y-62658568D01*
X66284726Y-62590086D01*
X66307135Y-62538600D01*
X66342124Y-62498443D01*
X66369375Y-62477861D01*
X66418907Y-62455625D01*
X66476316Y-62445304D01*
X66529682Y-62448067D01*
X66559543Y-62459212D01*
X66571261Y-62462383D01*
X66579037Y-62450557D01*
X66584465Y-62418866D01*
X66588571Y-62370593D01*
X66593067Y-62316829D01*
X66599313Y-62284482D01*
X66610676Y-62265985D01*
X66630528Y-62253770D01*
X66643000Y-62248362D01*
X66690171Y-62228601D01*
X66690117Y-62565358D01*
G36*
X67279833Y-62458663D02*
X67282048Y-62496850D01*
X67283784Y-62554886D01*
X67284899Y-62628180D01*
X67285257Y-62705055D01*
X67285257Y-62965196D01*
X67239326Y-63011127D01*
X67207675Y-63039429D01*
X67179890Y-63050893D01*
X67141915Y-63050168D01*
X67126840Y-63048321D01*
X67079726Y-63042948D01*
X67040756Y-63039869D01*
X67031257Y-63039585D01*
X66999233Y-63041445D01*
X66953432Y-63046114D01*
X66935674Y-63048321D01*
X66892057Y-63051735D01*
X66862745Y-63044320D01*
X66833680Y-63021427D01*
X66823188Y-63011127D01*
X66777257Y-62965196D01*
X66777257Y-62478602D01*
X66814226Y-62461758D01*
X66846059Y-62449282D01*
X66864683Y-62444914D01*
X66869458Y-62458718D01*
X66873921Y-62497286D01*
X66877775Y-62556356D01*
X66880722Y-62631663D01*
X66882143Y-62695286D01*
X66886114Y-62945657D01*
X66920759Y-62950556D01*
X66952268Y-62947131D01*
X66967708Y-62936041D01*
X66972023Y-62915308D01*
X66975708Y-62871145D01*
X66978469Y-62809146D01*
X66980012Y-62734909D01*
X66980235Y-62696706D01*
X66980457Y-62476783D01*
X67026166Y-62460849D01*
X67058518Y-62450015D01*
X67076115Y-62444962D01*
X67076623Y-62444914D01*
X67078388Y-62458648D01*
X67080329Y-62496730D01*
X67082282Y-62554482D01*
X67084084Y-62627227D01*
X67085343Y-62695286D01*
X67089314Y-62945657D01*
X67176400Y-62945657D01*
X67180396Y-62717240D01*
X67184392Y-62488822D01*
X67226847Y-62466868D01*
X67258192Y-62451793D01*
X67276744Y-62444951D01*
X67277279Y-62444914D01*
X67279833Y-62458663D01*
X67279833Y-62458663D01*
G37*
X67279833Y-62458663D02*
X67282048Y-62496850D01*
X67283784Y-62554886D01*
X67284899Y-62628180D01*
X67285257Y-62705055D01*
X67285257Y-62965196D01*
X67239326Y-63011127D01*
X67207675Y-63039429D01*
X67179890Y-63050893D01*
X67141915Y-63050168D01*
X67126840Y-63048321D01*
X67079726Y-63042948D01*
X67040756Y-63039869D01*
X67031257Y-63039585D01*
X66999233Y-63041445D01*
X66953432Y-63046114D01*
X66935674Y-63048321D01*
X66892057Y-63051735D01*
X66862745Y-63044320D01*
X66833680Y-63021427D01*
X66823188Y-63011127D01*
X66777257Y-62965196D01*
X66777257Y-62478602D01*
X66814226Y-62461758D01*
X66846059Y-62449282D01*
X66864683Y-62444914D01*
X66869458Y-62458718D01*
X66873921Y-62497286D01*
X66877775Y-62556356D01*
X66880722Y-62631663D01*
X66882143Y-62695286D01*
X66886114Y-62945657D01*
X66920759Y-62950556D01*
X66952268Y-62947131D01*
X66967708Y-62936041D01*
X66972023Y-62915308D01*
X66975708Y-62871145D01*
X66978469Y-62809146D01*
X66980012Y-62734909D01*
X66980235Y-62696706D01*
X66980457Y-62476783D01*
X67026166Y-62460849D01*
X67058518Y-62450015D01*
X67076115Y-62444962D01*
X67076623Y-62444914D01*
X67078388Y-62458648D01*
X67080329Y-62496730D01*
X67082282Y-62554482D01*
X67084084Y-62627227D01*
X67085343Y-62695286D01*
X67089314Y-62945657D01*
X67176400Y-62945657D01*
X67180396Y-62717240D01*
X67184392Y-62488822D01*
X67226847Y-62466868D01*
X67258192Y-62451793D01*
X67276744Y-62444951D01*
X67277279Y-62444914D01*
X67279833Y-62458663D01*
G36*
X67644876Y-62456335D02*
X67686667Y-62475344D01*
X67719469Y-62498378D01*
X67743503Y-62524133D01*
X67760097Y-62557358D01*
X67770577Y-62602800D01*
X67776271Y-62665207D01*
X67778507Y-62749327D01*
X67778743Y-62804721D01*
X67778743Y-63020826D01*
X67741774Y-63037670D01*
X67712656Y-63049981D01*
X67698231Y-63054514D01*
X67695472Y-63041025D01*
X67693282Y-63004653D01*
X67691942Y-62951542D01*
X67691657Y-62909372D01*
X67690434Y-62848447D01*
X67687136Y-62800115D01*
X67682321Y-62770518D01*
X67678496Y-62764229D01*
X67652783Y-62770652D01*
X67612418Y-62787125D01*
X67565679Y-62809458D01*
X67520845Y-62833457D01*
X67486193Y-62854930D01*
X67470002Y-62869685D01*
X67469938Y-62869845D01*
X67471330Y-62897152D01*
X67483818Y-62923219D01*
X67505743Y-62944392D01*
X67537743Y-62951474D01*
X67565092Y-62950649D01*
X67603826Y-62950042D01*
X67624158Y-62959116D01*
X67636369Y-62983092D01*
X67637909Y-62987613D01*
X67643203Y-63021806D01*
X67629047Y-63042568D01*
X67592148Y-63052462D01*
X67552289Y-63054292D01*
X67480562Y-63040727D01*
X67443432Y-63021355D01*
X67397576Y-62975845D01*
X67373256Y-62919983D01*
X67371073Y-62860957D01*
X67391629Y-62805953D01*
X67422549Y-62771486D01*
X67453420Y-62752189D01*
X67501942Y-62727759D01*
X67558485Y-62702985D01*
X67567910Y-62699199D01*
X67630019Y-62671791D01*
X67665822Y-62647634D01*
X67677337Y-62623619D01*
X67666580Y-62596635D01*
X67648114Y-62575543D01*
X67604469Y-62549572D01*
X67556446Y-62547624D01*
X67512406Y-62567637D01*
X67480709Y-62607551D01*
X67476549Y-62617848D01*
X67452327Y-62655724D01*
X67416965Y-62683842D01*
X67372343Y-62706917D01*
X67372343Y-62641485D01*
X67374969Y-62601506D01*
X67386230Y-62569997D01*
X67411199Y-62536378D01*
X67435169Y-62510484D01*
X67472441Y-62473817D01*
X67501401Y-62454121D01*
X67532505Y-62446220D01*
X67567713Y-62444914D01*
X67644876Y-62456335D01*
X67644876Y-62456335D01*
G37*
X67644876Y-62456335D02*
X67686667Y-62475344D01*
X67719469Y-62498378D01*
X67743503Y-62524133D01*
X67760097Y-62557358D01*
X67770577Y-62602800D01*
X67776271Y-62665207D01*
X67778507Y-62749327D01*
X67778743Y-62804721D01*
X67778743Y-63020826D01*
X67741774Y-63037670D01*
X67712656Y-63049981D01*
X67698231Y-63054514D01*
X67695472Y-63041025D01*
X67693282Y-63004653D01*
X67691942Y-62951542D01*
X67691657Y-62909372D01*
X67690434Y-62848447D01*
X67687136Y-62800115D01*
X67682321Y-62770518D01*
X67678496Y-62764229D01*
X67652783Y-62770652D01*
X67612418Y-62787125D01*
X67565679Y-62809458D01*
X67520845Y-62833457D01*
X67486193Y-62854930D01*
X67470002Y-62869685D01*
X67469938Y-62869845D01*
X67471330Y-62897152D01*
X67483818Y-62923219D01*
X67505743Y-62944392D01*
X67537743Y-62951474D01*
X67565092Y-62950649D01*
X67603826Y-62950042D01*
X67624158Y-62959116D01*
X67636369Y-62983092D01*
X67637909Y-62987613D01*
X67643203Y-63021806D01*
X67629047Y-63042568D01*
X67592148Y-63052462D01*
X67552289Y-63054292D01*
X67480562Y-63040727D01*
X67443432Y-63021355D01*
X67397576Y-62975845D01*
X67373256Y-62919983D01*
X67371073Y-62860957D01*
X67391629Y-62805953D01*
X67422549Y-62771486D01*
X67453420Y-62752189D01*
X67501942Y-62727759D01*
X67558485Y-62702985D01*
X67567910Y-62699199D01*
X67630019Y-62671791D01*
X67665822Y-62647634D01*
X67677337Y-62623619D01*
X67666580Y-62596635D01*
X67648114Y-62575543D01*
X67604469Y-62549572D01*
X67556446Y-62547624D01*
X67512406Y-62567637D01*
X67480709Y-62607551D01*
X67476549Y-62617848D01*
X67452327Y-62655724D01*
X67416965Y-62683842D01*
X67372343Y-62706917D01*
X67372343Y-62641485D01*
X67374969Y-62601506D01*
X67386230Y-62569997D01*
X67411199Y-62536378D01*
X67435169Y-62510484D01*
X67472441Y-62473817D01*
X67501401Y-62454121D01*
X67532505Y-62446220D01*
X67567713Y-62444914D01*
X67644876Y-62456335D01*
G36*
X68152600Y-62458752D02*
X68169948Y-62466334D01*
X68211356Y-62499128D01*
X68246765Y-62546547D01*
X68268664Y-62597151D01*
X68272229Y-62622098D01*
X68260279Y-62656927D01*
X68234067Y-62675357D01*
X68205964Y-62686516D01*
X68193095Y-62688572D01*
X68186829Y-62673649D01*
X68174456Y-62641175D01*
X68169028Y-62626502D01*
X68138590Y-62575744D01*
X68094520Y-62550427D01*
X68038010Y-62551206D01*
X68033825Y-62552203D01*
X68003655Y-62566507D01*
X67981476Y-62594393D01*
X67966327Y-62639287D01*
X67957250Y-62704615D01*
X67953286Y-62793804D01*
X67952914Y-62841261D01*
X67952730Y-62916071D01*
X67951522Y-62967069D01*
X67948309Y-62999471D01*
X67942109Y-63018495D01*
X67931940Y-63029356D01*
X67916819Y-63037272D01*
X67915946Y-63037670D01*
X67886828Y-63049981D01*
X67872403Y-63054514D01*
X67870186Y-63040809D01*
X67868289Y-63002925D01*
X67866847Y-62945715D01*
X67865998Y-62874027D01*
X67865829Y-62821565D01*
X67866692Y-62720047D01*
X67870070Y-62643032D01*
X67877142Y-62586023D01*
X67889088Y-62544526D01*
X67907090Y-62514043D01*
X67932327Y-62490080D01*
X67957247Y-62473355D01*
X68017171Y-62451097D01*
X68086911Y-62446076D01*
X68152600Y-62458752D01*
X68152600Y-62458752D01*
G37*
X68152600Y-62458752D02*
X68169948Y-62466334D01*
X68211356Y-62499128D01*
X68246765Y-62546547D01*
X68268664Y-62597151D01*
X68272229Y-62622098D01*
X68260279Y-62656927D01*
X68234067Y-62675357D01*
X68205964Y-62686516D01*
X68193095Y-62688572D01*
X68186829Y-62673649D01*
X68174456Y-62641175D01*
X68169028Y-62626502D01*
X68138590Y-62575744D01*
X68094520Y-62550427D01*
X68038010Y-62551206D01*
X68033825Y-62552203D01*
X68003655Y-62566507D01*
X67981476Y-62594393D01*
X67966327Y-62639287D01*
X67957250Y-62704615D01*
X67953286Y-62793804D01*
X67952914Y-62841261D01*
X67952730Y-62916071D01*
X67951522Y-62967069D01*
X67948309Y-62999471D01*
X67942109Y-63018495D01*
X67931940Y-63029356D01*
X67916819Y-63037272D01*
X67915946Y-63037670D01*
X67886828Y-63049981D01*
X67872403Y-63054514D01*
X67870186Y-63040809D01*
X67868289Y-63002925D01*
X67866847Y-62945715D01*
X67865998Y-62874027D01*
X67865829Y-62821565D01*
X67866692Y-62720047D01*
X67870070Y-62643032D01*
X67877142Y-62586023D01*
X67889088Y-62544526D01*
X67907090Y-62514043D01*
X67932327Y-62490080D01*
X67957247Y-62473355D01*
X68017171Y-62451097D01*
X68086911Y-62446076D01*
X68152600Y-62458752D01*
G36*
X68653595Y-62466966D02*
X68711021Y-62504497D01*
X68738719Y-62538096D01*
X68760662Y-62599064D01*
X68762405Y-62647308D01*
X68758457Y-62711816D01*
X68609686Y-62776934D01*
X68537349Y-62810202D01*
X68490084Y-62836964D01*
X68465507Y-62860144D01*
X68461237Y-62882667D01*
X68474889Y-62907455D01*
X68489943Y-62923886D01*
X68533746Y-62950235D01*
X68581389Y-62952081D01*
X68625145Y-62931546D01*
X68657289Y-62890752D01*
X68663038Y-62876347D01*
X68690576Y-62831356D01*
X68722258Y-62812182D01*
X68765714Y-62795779D01*
X68765714Y-62857966D01*
X68761872Y-62900283D01*
X68746823Y-62935969D01*
X68715280Y-62976943D01*
X68710592Y-62982267D01*
X68675506Y-63018720D01*
X68645347Y-63038283D01*
X68607615Y-63047283D01*
X68576335Y-63050230D01*
X68520385Y-63050965D01*
X68480555Y-63041660D01*
X68455708Y-63027846D01*
X68416656Y-62997467D01*
X68389625Y-62964613D01*
X68372517Y-62923294D01*
X68363238Y-62867521D01*
X68359693Y-62791305D01*
X68359410Y-62752622D01*
X68360372Y-62706247D01*
X68448007Y-62706247D01*
X68449023Y-62731126D01*
X68451556Y-62735200D01*
X68468274Y-62729665D01*
X68504249Y-62715017D01*
X68552331Y-62694190D01*
X68562386Y-62689714D01*
X68623152Y-62658814D01*
X68656632Y-62631657D01*
X68663990Y-62606220D01*
X68646391Y-62580481D01*
X68631856Y-62569109D01*
X68579410Y-62546364D01*
X68530322Y-62550122D01*
X68489227Y-62577884D01*
X68460758Y-62627152D01*
X68451631Y-62666257D01*
X68448007Y-62706247D01*
X68360372Y-62706247D01*
X68361285Y-62662249D01*
X68368196Y-62595384D01*
X68381884Y-62546695D01*
X68404096Y-62510849D01*
X68436574Y-62482513D01*
X68450733Y-62473355D01*
X68515053Y-62449507D01*
X68585473Y-62448006D01*
X68653595Y-62466966D01*
X68653595Y-62466966D01*
G37*
X68653595Y-62466966D02*
X68711021Y-62504497D01*
X68738719Y-62538096D01*
X68760662Y-62599064D01*
X68762405Y-62647308D01*
X68758457Y-62711816D01*
X68609686Y-62776934D01*
X68537349Y-62810202D01*
X68490084Y-62836964D01*
X68465507Y-62860144D01*
X68461237Y-62882667D01*
X68474889Y-62907455D01*
X68489943Y-62923886D01*
X68533746Y-62950235D01*
X68581389Y-62952081D01*
X68625145Y-62931546D01*
X68657289Y-62890752D01*
X68663038Y-62876347D01*
X68690576Y-62831356D01*
X68722258Y-62812182D01*
X68765714Y-62795779D01*
X68765714Y-62857966D01*
X68761872Y-62900283D01*
X68746823Y-62935969D01*
X68715280Y-62976943D01*
X68710592Y-62982267D01*
X68675506Y-63018720D01*
X68645347Y-63038283D01*
X68607615Y-63047283D01*
X68576335Y-63050230D01*
X68520385Y-63050965D01*
X68480555Y-63041660D01*
X68455708Y-63027846D01*
X68416656Y-62997467D01*
X68389625Y-62964613D01*
X68372517Y-62923294D01*
X68363238Y-62867521D01*
X68359693Y-62791305D01*
X68359410Y-62752622D01*
X68360372Y-62706247D01*
X68448007Y-62706247D01*
X68449023Y-62731126D01*
X68451556Y-62735200D01*
X68468274Y-62729665D01*
X68504249Y-62715017D01*
X68552331Y-62694190D01*
X68562386Y-62689714D01*
X68623152Y-62658814D01*
X68656632Y-62631657D01*
X68663990Y-62606220D01*
X68646391Y-62580481D01*
X68631856Y-62569109D01*
X68579410Y-62546364D01*
X68530322Y-62550122D01*
X68489227Y-62577884D01*
X68460758Y-62627152D01*
X68451631Y-62666257D01*
X68448007Y-62706247D01*
X68360372Y-62706247D01*
X68361285Y-62662249D01*
X68368196Y-62595384D01*
X68381884Y-62546695D01*
X68404096Y-62510849D01*
X68436574Y-62482513D01*
X68450733Y-62473355D01*
X68515053Y-62449507D01*
X68585473Y-62448006D01*
X68653595Y-62466966D01*
G36*
X65603910Y-57742348D02*
X65682454Y-57742778D01*
X65739298Y-57743942D01*
X65778105Y-57746207D01*
X65802538Y-57749940D01*
X65816262Y-57755506D01*
X65822940Y-57763273D01*
X65826236Y-57773605D01*
X65826556Y-57774943D01*
X65831562Y-57799079D01*
X65840829Y-57846701D01*
X65853392Y-57912741D01*
X65868287Y-57992128D01*
X65884551Y-58079796D01*
X65885119Y-58082875D01*
X65901410Y-58168789D01*
X65916652Y-58244696D01*
X65929861Y-58306045D01*
X65940054Y-58348282D01*
X65946248Y-58366855D01*
X65946543Y-58367184D01*
X65964788Y-58376253D01*
X66002405Y-58391367D01*
X66051271Y-58409262D01*
X66051543Y-58409358D01*
X66113093Y-58432493D01*
X66185657Y-58461965D01*
X66254057Y-58491597D01*
X66257294Y-58493062D01*
X66368702Y-58543626D01*
X66615399Y-58375160D01*
X66691077Y-58323803D01*
X66759631Y-58277889D01*
X66817088Y-58240030D01*
X66859476Y-58212837D01*
X66882825Y-58198921D01*
X66885042Y-58197889D01*
X66902010Y-58202484D01*
X66933701Y-58224655D01*
X66981352Y-58265447D01*
X67046198Y-58325905D01*
X67112397Y-58390227D01*
X67176214Y-58453612D01*
X67233329Y-58511451D01*
X67280305Y-58560175D01*
X67313703Y-58596210D01*
X67330085Y-58615984D01*
X67330694Y-58617002D01*
X67332505Y-58630572D01*
X67325683Y-58652733D01*
X67308540Y-58686478D01*
X67279393Y-58734800D01*
X67236555Y-58800692D01*
X67179448Y-58885517D01*
X67128766Y-58960177D01*
X67083461Y-59027140D01*
X67046150Y-59082516D01*
X67019452Y-59122420D01*
X67005985Y-59142962D01*
X67005137Y-59144356D01*
X67006781Y-59164038D01*
X67019245Y-59202293D01*
X67040048Y-59251889D01*
X67047462Y-59267728D01*
X67079814Y-59338290D01*
X67114328Y-59418353D01*
X67142365Y-59487629D01*
X67162568Y-59539045D01*
X67178615Y-59578119D01*
X67187888Y-59598541D01*
X67189041Y-59600114D01*
X67206096Y-59602721D01*
X67246298Y-59609863D01*
X67304302Y-59620523D01*
X67374763Y-59633685D01*
X67452335Y-59648333D01*
X67531672Y-59663449D01*
X67607431Y-59678018D01*
X67674264Y-59691022D01*
X67726828Y-59701445D01*
X67759776Y-59708270D01*
X67767857Y-59710199D01*
X67776205Y-59714962D01*
X67782506Y-59725718D01*
X67787045Y-59746098D01*
X67790104Y-59779734D01*
X67791967Y-59830255D01*
X67792918Y-59901292D01*
X67793240Y-59996476D01*
X67793257Y-60035492D01*
X67793257Y-60352799D01*
X67717057Y-60367839D01*
X67674663Y-60375995D01*
X67611400Y-60387899D01*
X67534962Y-60402116D01*
X67453043Y-60417210D01*
X67430400Y-60421355D01*
X67354806Y-60436053D01*
X67288953Y-60450505D01*
X67238366Y-60463375D01*
X67208574Y-60473322D01*
X67203612Y-60476287D01*
X67191426Y-60497283D01*
X67173953Y-60537967D01*
X67154577Y-60590322D01*
X67150734Y-60601600D01*
X67125339Y-60671523D01*
X67093817Y-60750418D01*
X67062969Y-60821266D01*
X67062817Y-60821595D01*
X67011447Y-60932733D01*
X67180399Y-61181253D01*
X67349352Y-61429772D01*
X67132429Y-61647058D01*
X67066819Y-61711726D01*
X67006979Y-61768733D01*
X66956267Y-61815033D01*
X66918046Y-61847584D01*
X66895675Y-61863343D01*
X66892466Y-61864343D01*
X66873626Y-61856469D01*
X66835180Y-61834578D01*
X66781330Y-61801267D01*
X66716276Y-61759131D01*
X66645940Y-61711943D01*
X66574555Y-61663810D01*
X66510908Y-61621928D01*
X66459041Y-61588871D01*
X66422995Y-61567218D01*
X66406867Y-61559543D01*
X66387189Y-61566037D01*
X66349875Y-61583150D01*
X66302621Y-61607326D01*
X66297612Y-61610013D01*
X66233977Y-61641927D01*
X66190341Y-61657579D01*
X66163202Y-61657745D01*
X66149057Y-61643204D01*
X66148975Y-61643000D01*
X66141905Y-61625779D01*
X66125042Y-61584899D01*
X66099695Y-61523525D01*
X66067171Y-61444819D01*
X66028778Y-61351947D01*
X65985822Y-61248072D01*
X65944222Y-61147502D01*
X65898504Y-61036516D01*
X65856526Y-60933703D01*
X65819548Y-60842215D01*
X65788827Y-60765201D01*
X65765622Y-60705815D01*
X65751190Y-60667209D01*
X65746743Y-60652800D01*
X65757896Y-60636272D01*
X65787069Y-60609930D01*
X65825971Y-60580887D01*
X65936757Y-60489039D01*
X66023351Y-60383759D01*
X66084716Y-60267266D01*
X66119815Y-60141776D01*
X66127608Y-60009507D01*
X66121943Y-59948457D01*
X66091078Y-59821795D01*
X66037920Y-59709941D01*
X65965767Y-59614001D01*
X65877917Y-59535076D01*
X65777665Y-59474270D01*
X65668310Y-59432687D01*
X65553147Y-59411428D01*
X65435475Y-59411599D01*
X65318590Y-59434301D01*
X65205789Y-59480638D01*
X65100369Y-59551713D01*
X65056368Y-59591911D01*
X64971979Y-59695129D01*
X64913222Y-59807925D01*
X64879704Y-59927010D01*
X64871035Y-60049095D01*
X64886823Y-60170893D01*
X64926678Y-60289116D01*
X64990207Y-60400475D01*
X65077021Y-60501684D01*
X65174029Y-60580887D01*
X65214437Y-60611162D01*
X65242982Y-60637219D01*
X65253257Y-60652825D01*
X65247877Y-60669843D01*
X65232575Y-60710500D01*
X65208612Y-60771642D01*
X65177244Y-60850119D01*
X65139732Y-60942780D01*
X65097333Y-61046472D01*
X65055663Y-61147526D01*
X65009690Y-61258607D01*
X64967107Y-61361541D01*
X64929221Y-61453165D01*
X64897340Y-61530316D01*
X64872771Y-61589831D01*
X64856820Y-61628544D01*
X64850910Y-61643000D01*
X64836948Y-61657685D01*
X64809940Y-61657642D01*
X64766413Y-61642099D01*
X64702890Y-61610284D01*
X64702388Y-61610013D01*
X64654560Y-61585323D01*
X64615897Y-61567338D01*
X64594095Y-61559614D01*
X64593133Y-61559543D01*
X64576721Y-61567378D01*
X64540487Y-61589165D01*
X64488474Y-61622328D01*
X64424725Y-61664291D01*
X64354060Y-61711943D01*
X64282116Y-61760191D01*
X64217274Y-61802151D01*
X64163735Y-61835227D01*
X64125697Y-61856821D01*
X64107533Y-61864343D01*
X64090808Y-61854457D01*
X64057180Y-61826826D01*
X64010010Y-61784495D01*
X63952658Y-61730505D01*
X63888484Y-61667899D01*
X63867497Y-61646983D01*
X63650499Y-61429623D01*
X63815668Y-61187220D01*
X63865864Y-61112781D01*
X63909919Y-61045972D01*
X63945362Y-60990665D01*
X63969719Y-60950729D01*
X63980522Y-60930036D01*
X63980838Y-60928563D01*
X63975143Y-60909058D01*
X63959826Y-60869822D01*
X63937537Y-60817430D01*
X63921893Y-60782355D01*
X63892641Y-60715201D01*
X63865094Y-60647358D01*
X63843737Y-60590034D01*
X63837935Y-60572572D01*
X63821452Y-60525938D01*
X63805340Y-60489905D01*
X63796490Y-60476287D01*
X63776960Y-60467952D01*
X63734334Y-60456137D01*
X63674145Y-60442181D01*
X63601922Y-60427422D01*
X63569600Y-60421355D01*
X63487522Y-60406273D01*
X63408795Y-60391669D01*
X63341109Y-60378980D01*
X63292160Y-60369642D01*
X63282943Y-60367839D01*
X63206743Y-60352799D01*
X63206743Y-60035492D01*
X63206914Y-59931154D01*
X63207616Y-59852213D01*
X63209134Y-59795038D01*
X63211749Y-59755999D01*
X63215746Y-59731465D01*
X63221409Y-59717805D01*
X63229020Y-59711389D01*
X63232143Y-59710199D01*
X63250978Y-59705980D01*
X63292588Y-59697562D01*
X63351630Y-59685961D01*
X63422757Y-59672195D01*
X63500625Y-59657280D01*
X63579887Y-59642232D01*
X63655198Y-59628069D01*
X63721213Y-59615806D01*
X63772587Y-59606461D01*
X63803975Y-59601050D01*
X63810959Y-59600114D01*
X63817285Y-59587596D01*
X63831290Y-59554246D01*
X63850355Y-59506377D01*
X63857634Y-59487629D01*
X63886996Y-59415195D01*
X63921571Y-59335170D01*
X63952537Y-59267728D01*
X63975323Y-59216159D01*
X63990482Y-59173785D01*
X63995542Y-59147834D01*
X63994736Y-59144356D01*
X63984041Y-59127936D01*
X63959620Y-59091417D01*
X63924095Y-59038687D01*
X63880087Y-58973635D01*
X63830217Y-58900151D01*
X63820356Y-58885645D01*
X63762492Y-58799704D01*
X63719956Y-58734261D01*
X63691054Y-58686304D01*
X63674090Y-58652820D01*
X63667367Y-58630795D01*
X63669190Y-58617217D01*
X63669236Y-58617131D01*
X63683586Y-58599297D01*
X63715323Y-58564817D01*
X63761010Y-58517268D01*
X63817204Y-58460222D01*
X63880468Y-58397255D01*
X63887602Y-58390227D01*
X63967330Y-58313020D01*
X64028857Y-58256330D01*
X64073421Y-58219110D01*
X64102257Y-58200315D01*
X64114958Y-58197889D01*
X64133494Y-58208471D01*
X64171961Y-58232916D01*
X64226386Y-58268612D01*
X64292798Y-58312947D01*
X64367225Y-58363311D01*
X64384601Y-58375160D01*
X64631297Y-58543626D01*
X64742706Y-58493062D01*
X64810457Y-58463595D01*
X64883183Y-58433959D01*
X64945703Y-58410330D01*
X64948457Y-58409358D01*
X64997360Y-58391457D01*
X65035057Y-58376320D01*
X65053425Y-58367210D01*
X65053456Y-58367184D01*
X65059285Y-58350717D01*
X65069192Y-58310219D01*
X65082195Y-58250242D01*
X65097309Y-58175340D01*
X65113552Y-58090064D01*
X65114881Y-58082875D01*
X65131175Y-57995014D01*
X65146133Y-57915260D01*
X65158791Y-57848681D01*
X65168186Y-57800347D01*
X65173354Y-57775325D01*
X65173444Y-57774943D01*
X65176589Y-57764299D01*
X65182704Y-57756262D01*
X65195453Y-57750467D01*
X65218500Y-57746547D01*
X65255509Y-57744135D01*
X65310144Y-57742865D01*
X65386067Y-57742371D01*
X65486944Y-57742286D01*
X65500000Y-57742286D01*
X65603910Y-57742348D01*
X65603910Y-57742348D01*
G37*
X65603910Y-57742348D02*
X65682454Y-57742778D01*
X65739298Y-57743942D01*
X65778105Y-57746207D01*
X65802538Y-57749940D01*
X65816262Y-57755506D01*
X65822940Y-57763273D01*
X65826236Y-57773605D01*
X65826556Y-57774943D01*
X65831562Y-57799079D01*
X65840829Y-57846701D01*
X65853392Y-57912741D01*
X65868287Y-57992128D01*
X65884551Y-58079796D01*
X65885119Y-58082875D01*
X65901410Y-58168789D01*
X65916652Y-58244696D01*
X65929861Y-58306045D01*
X65940054Y-58348282D01*
X65946248Y-58366855D01*
X65946543Y-58367184D01*
X65964788Y-58376253D01*
X66002405Y-58391367D01*
X66051271Y-58409262D01*
X66051543Y-58409358D01*
X66113093Y-58432493D01*
X66185657Y-58461965D01*
X66254057Y-58491597D01*
X66257294Y-58493062D01*
X66368702Y-58543626D01*
X66615399Y-58375160D01*
X66691077Y-58323803D01*
X66759631Y-58277889D01*
X66817088Y-58240030D01*
X66859476Y-58212837D01*
X66882825Y-58198921D01*
X66885042Y-58197889D01*
X66902010Y-58202484D01*
X66933701Y-58224655D01*
X66981352Y-58265447D01*
X67046198Y-58325905D01*
X67112397Y-58390227D01*
X67176214Y-58453612D01*
X67233329Y-58511451D01*
X67280305Y-58560175D01*
X67313703Y-58596210D01*
X67330085Y-58615984D01*
X67330694Y-58617002D01*
X67332505Y-58630572D01*
X67325683Y-58652733D01*
X67308540Y-58686478D01*
X67279393Y-58734800D01*
X67236555Y-58800692D01*
X67179448Y-58885517D01*
X67128766Y-58960177D01*
X67083461Y-59027140D01*
X67046150Y-59082516D01*
X67019452Y-59122420D01*
X67005985Y-59142962D01*
X67005137Y-59144356D01*
X67006781Y-59164038D01*
X67019245Y-59202293D01*
X67040048Y-59251889D01*
X67047462Y-59267728D01*
X67079814Y-59338290D01*
X67114328Y-59418353D01*
X67142365Y-59487629D01*
X67162568Y-59539045D01*
X67178615Y-59578119D01*
X67187888Y-59598541D01*
X67189041Y-59600114D01*
X67206096Y-59602721D01*
X67246298Y-59609863D01*
X67304302Y-59620523D01*
X67374763Y-59633685D01*
X67452335Y-59648333D01*
X67531672Y-59663449D01*
X67607431Y-59678018D01*
X67674264Y-59691022D01*
X67726828Y-59701445D01*
X67759776Y-59708270D01*
X67767857Y-59710199D01*
X67776205Y-59714962D01*
X67782506Y-59725718D01*
X67787045Y-59746098D01*
X67790104Y-59779734D01*
X67791967Y-59830255D01*
X67792918Y-59901292D01*
X67793240Y-59996476D01*
X67793257Y-60035492D01*
X67793257Y-60352799D01*
X67717057Y-60367839D01*
X67674663Y-60375995D01*
X67611400Y-60387899D01*
X67534962Y-60402116D01*
X67453043Y-60417210D01*
X67430400Y-60421355D01*
X67354806Y-60436053D01*
X67288953Y-60450505D01*
X67238366Y-60463375D01*
X67208574Y-60473322D01*
X67203612Y-60476287D01*
X67191426Y-60497283D01*
X67173953Y-60537967D01*
X67154577Y-60590322D01*
X67150734Y-60601600D01*
X67125339Y-60671523D01*
X67093817Y-60750418D01*
X67062969Y-60821266D01*
X67062817Y-60821595D01*
X67011447Y-60932733D01*
X67180399Y-61181253D01*
X67349352Y-61429772D01*
X67132429Y-61647058D01*
X67066819Y-61711726D01*
X67006979Y-61768733D01*
X66956267Y-61815033D01*
X66918046Y-61847584D01*
X66895675Y-61863343D01*
X66892466Y-61864343D01*
X66873626Y-61856469D01*
X66835180Y-61834578D01*
X66781330Y-61801267D01*
X66716276Y-61759131D01*
X66645940Y-61711943D01*
X66574555Y-61663810D01*
X66510908Y-61621928D01*
X66459041Y-61588871D01*
X66422995Y-61567218D01*
X66406867Y-61559543D01*
X66387189Y-61566037D01*
X66349875Y-61583150D01*
X66302621Y-61607326D01*
X66297612Y-61610013D01*
X66233977Y-61641927D01*
X66190341Y-61657579D01*
X66163202Y-61657745D01*
X66149057Y-61643204D01*
X66148975Y-61643000D01*
X66141905Y-61625779D01*
X66125042Y-61584899D01*
X66099695Y-61523525D01*
X66067171Y-61444819D01*
X66028778Y-61351947D01*
X65985822Y-61248072D01*
X65944222Y-61147502D01*
X65898504Y-61036516D01*
X65856526Y-60933703D01*
X65819548Y-60842215D01*
X65788827Y-60765201D01*
X65765622Y-60705815D01*
X65751190Y-60667209D01*
X65746743Y-60652800D01*
X65757896Y-60636272D01*
X65787069Y-60609930D01*
X65825971Y-60580887D01*
X65936757Y-60489039D01*
X66023351Y-60383759D01*
X66084716Y-60267266D01*
X66119815Y-60141776D01*
X66127608Y-60009507D01*
X66121943Y-59948457D01*
X66091078Y-59821795D01*
X66037920Y-59709941D01*
X65965767Y-59614001D01*
X65877917Y-59535076D01*
X65777665Y-59474270D01*
X65668310Y-59432687D01*
X65553147Y-59411428D01*
X65435475Y-59411599D01*
X65318590Y-59434301D01*
X65205789Y-59480638D01*
X65100369Y-59551713D01*
X65056368Y-59591911D01*
X64971979Y-59695129D01*
X64913222Y-59807925D01*
X64879704Y-59927010D01*
X64871035Y-60049095D01*
X64886823Y-60170893D01*
X64926678Y-60289116D01*
X64990207Y-60400475D01*
X65077021Y-60501684D01*
X65174029Y-60580887D01*
X65214437Y-60611162D01*
X65242982Y-60637219D01*
X65253257Y-60652825D01*
X65247877Y-60669843D01*
X65232575Y-60710500D01*
X65208612Y-60771642D01*
X65177244Y-60850119D01*
X65139732Y-60942780D01*
X65097333Y-61046472D01*
X65055663Y-61147526D01*
X65009690Y-61258607D01*
X64967107Y-61361541D01*
X64929221Y-61453165D01*
X64897340Y-61530316D01*
X64872771Y-61589831D01*
X64856820Y-61628544D01*
X64850910Y-61643000D01*
X64836948Y-61657685D01*
X64809940Y-61657642D01*
X64766413Y-61642099D01*
X64702890Y-61610284D01*
X64702388Y-61610013D01*
X64654560Y-61585323D01*
X64615897Y-61567338D01*
X64594095Y-61559614D01*
X64593133Y-61559543D01*
X64576721Y-61567378D01*
X64540487Y-61589165D01*
X64488474Y-61622328D01*
X64424725Y-61664291D01*
X64354060Y-61711943D01*
X64282116Y-61760191D01*
X64217274Y-61802151D01*
X64163735Y-61835227D01*
X64125697Y-61856821D01*
X64107533Y-61864343D01*
X64090808Y-61854457D01*
X64057180Y-61826826D01*
X64010010Y-61784495D01*
X63952658Y-61730505D01*
X63888484Y-61667899D01*
X63867497Y-61646983D01*
X63650499Y-61429623D01*
X63815668Y-61187220D01*
X63865864Y-61112781D01*
X63909919Y-61045972D01*
X63945362Y-60990665D01*
X63969719Y-60950729D01*
X63980522Y-60930036D01*
X63980838Y-60928563D01*
X63975143Y-60909058D01*
X63959826Y-60869822D01*
X63937537Y-60817430D01*
X63921893Y-60782355D01*
X63892641Y-60715201D01*
X63865094Y-60647358D01*
X63843737Y-60590034D01*
X63837935Y-60572572D01*
X63821452Y-60525938D01*
X63805340Y-60489905D01*
X63796490Y-60476287D01*
X63776960Y-60467952D01*
X63734334Y-60456137D01*
X63674145Y-60442181D01*
X63601922Y-60427422D01*
X63569600Y-60421355D01*
X63487522Y-60406273D01*
X63408795Y-60391669D01*
X63341109Y-60378980D01*
X63292160Y-60369642D01*
X63282943Y-60367839D01*
X63206743Y-60352799D01*
X63206743Y-60035492D01*
X63206914Y-59931154D01*
X63207616Y-59852213D01*
X63209134Y-59795038D01*
X63211749Y-59755999D01*
X63215746Y-59731465D01*
X63221409Y-59717805D01*
X63229020Y-59711389D01*
X63232143Y-59710199D01*
X63250978Y-59705980D01*
X63292588Y-59697562D01*
X63351630Y-59685961D01*
X63422757Y-59672195D01*
X63500625Y-59657280D01*
X63579887Y-59642232D01*
X63655198Y-59628069D01*
X63721213Y-59615806D01*
X63772587Y-59606461D01*
X63803975Y-59601050D01*
X63810959Y-59600114D01*
X63817285Y-59587596D01*
X63831290Y-59554246D01*
X63850355Y-59506377D01*
X63857634Y-59487629D01*
X63886996Y-59415195D01*
X63921571Y-59335170D01*
X63952537Y-59267728D01*
X63975323Y-59216159D01*
X63990482Y-59173785D01*
X63995542Y-59147834D01*
X63994736Y-59144356D01*
X63984041Y-59127936D01*
X63959620Y-59091417D01*
X63924095Y-59038687D01*
X63880087Y-58973635D01*
X63830217Y-58900151D01*
X63820356Y-58885645D01*
X63762492Y-58799704D01*
X63719956Y-58734261D01*
X63691054Y-58686304D01*
X63674090Y-58652820D01*
X63667367Y-58630795D01*
X63669190Y-58617217D01*
X63669236Y-58617131D01*
X63683586Y-58599297D01*
X63715323Y-58564817D01*
X63761010Y-58517268D01*
X63817204Y-58460222D01*
X63880468Y-58397255D01*
X63887602Y-58390227D01*
X63967330Y-58313020D01*
X64028857Y-58256330D01*
X64073421Y-58219110D01*
X64102257Y-58200315D01*
X64114958Y-58197889D01*
X64133494Y-58208471D01*
X64171961Y-58232916D01*
X64226386Y-58268612D01*
X64292798Y-58312947D01*
X64367225Y-58363311D01*
X64384601Y-58375160D01*
X64631297Y-58543626D01*
X64742706Y-58493062D01*
X64810457Y-58463595D01*
X64883183Y-58433959D01*
X64945703Y-58410330D01*
X64948457Y-58409358D01*
X64997360Y-58391457D01*
X65035057Y-58376320D01*
X65053425Y-58367210D01*
X65053456Y-58367184D01*
X65059285Y-58350717D01*
X65069192Y-58310219D01*
X65082195Y-58250242D01*
X65097309Y-58175340D01*
X65113552Y-58090064D01*
X65114881Y-58082875D01*
X65131175Y-57995014D01*
X65146133Y-57915260D01*
X65158791Y-57848681D01*
X65168186Y-57800347D01*
X65173354Y-57775325D01*
X65173444Y-57774943D01*
X65176589Y-57764299D01*
X65182704Y-57756262D01*
X65195453Y-57750467D01*
X65218500Y-57746547D01*
X65255509Y-57744135D01*
X65310144Y-57742865D01*
X65386067Y-57742371D01*
X65486944Y-57742286D01*
X65500000Y-57742286D01*
X65603910Y-57742348D01*
G04 #@! TO.C,U1*
D15*
X45928095Y-59782380D02*
X45928095Y-60591904D01*
X45975714Y-60687142D01*
X46023333Y-60734761D01*
X46118571Y-60782380D01*
X46309047Y-60782380D01*
X46404285Y-60734761D01*
X46451904Y-60687142D01*
X46499523Y-60591904D01*
X46499523Y-59782380D01*
X47499523Y-60782380D02*
X46928095Y-60782380D01*
X47213809Y-60782380D02*
X47213809Y-59782380D01*
X47118571Y-59925238D01*
X47023333Y-60020476D01*
X46928095Y-60068095D01*
G04 #@! TO.C,J4*
X83916666Y-39952380D02*
X83916666Y-40666666D01*
X83869047Y-40809523D01*
X83773809Y-40904761D01*
X83630952Y-40952380D01*
X83535714Y-40952380D01*
X84821428Y-40285714D02*
X84821428Y-40952380D01*
X84583333Y-39904761D02*
X84345238Y-40619047D01*
X84964285Y-40619047D01*
G04 #@! TO.C,J11*
X56440476Y-31952380D02*
X56440476Y-32666666D01*
X56392857Y-32809523D01*
X56297619Y-32904761D01*
X56154761Y-32952380D01*
X56059523Y-32952380D01*
X57440476Y-32952380D02*
X56869047Y-32952380D01*
X57154761Y-32952380D02*
X57154761Y-31952380D01*
X57059523Y-32095238D01*
X56964285Y-32190476D01*
X56869047Y-32238095D01*
X58392857Y-32952380D02*
X57821428Y-32952380D01*
X58107142Y-32952380D02*
X58107142Y-31952380D01*
X58011904Y-32095238D01*
X57916666Y-32190476D01*
X57821428Y-32238095D01*
G04 #@! TO.C,C2*
X31857142Y-34416666D02*
X31904761Y-34464285D01*
X31952380Y-34607142D01*
X31952380Y-34702380D01*
X31904761Y-34845238D01*
X31809523Y-34940476D01*
X31714285Y-34988095D01*
X31523809Y-35035714D01*
X31380952Y-35035714D01*
X31190476Y-34988095D01*
X31095238Y-34940476D01*
X31000000Y-34845238D01*
X30952380Y-34702380D01*
X30952380Y-34607142D01*
X31000000Y-34464285D01*
X31047619Y-34416666D01*
X31047619Y-34035714D02*
X31000000Y-33988095D01*
X30952380Y-33892857D01*
X30952380Y-33654761D01*
X31000000Y-33559523D01*
X31047619Y-33511904D01*
X31142857Y-33464285D01*
X31238095Y-33464285D01*
X31380952Y-33511904D01*
X31952380Y-34083333D01*
X31952380Y-33464285D01*
G04 #@! TO.C,J0*
X83916666Y-47952380D02*
X83916666Y-48666666D01*
X83869047Y-48809523D01*
X83773809Y-48904761D01*
X83630952Y-48952380D01*
X83535714Y-48952380D01*
X84583333Y-47952380D02*
X84678571Y-47952380D01*
X84773809Y-48000000D01*
X84821428Y-48047619D01*
X84869047Y-48142857D01*
X84916666Y-48333333D01*
X84916666Y-48571428D01*
X84869047Y-48761904D01*
X84821428Y-48857142D01*
X84773809Y-48904761D01*
X84678571Y-48952380D01*
X84583333Y-48952380D01*
X84488095Y-48904761D01*
X84440476Y-48857142D01*
X84392857Y-48761904D01*
X84345238Y-48571428D01*
X84345238Y-48333333D01*
X84392857Y-48142857D01*
X84440476Y-48047619D01*
X84488095Y-48000000D01*
X84583333Y-47952380D01*
G04 #@! TO.C,J1*
X74916666Y-47952380D02*
X74916666Y-48666666D01*
X74869047Y-48809523D01*
X74773809Y-48904761D01*
X74630952Y-48952380D01*
X74535714Y-48952380D01*
X75916666Y-48952380D02*
X75345238Y-48952380D01*
X75630952Y-48952380D02*
X75630952Y-47952380D01*
X75535714Y-48095238D01*
X75440476Y-48190476D01*
X75345238Y-48238095D01*
G04 #@! TO.C,J2*
X65916666Y-47952380D02*
X65916666Y-48666666D01*
X65869047Y-48809523D01*
X65773809Y-48904761D01*
X65630952Y-48952380D01*
X65535714Y-48952380D01*
X66345238Y-48047619D02*
X66392857Y-48000000D01*
X66488095Y-47952380D01*
X66726190Y-47952380D01*
X66821428Y-48000000D01*
X66869047Y-48047619D01*
X66916666Y-48142857D01*
X66916666Y-48238095D01*
X66869047Y-48380952D01*
X66297619Y-48952380D01*
X66916666Y-48952380D01*
G04 #@! TO.C,J3*
X56916666Y-47952380D02*
X56916666Y-48666666D01*
X56869047Y-48809523D01*
X56773809Y-48904761D01*
X56630952Y-48952380D01*
X56535714Y-48952380D01*
X57297619Y-47952380D02*
X57916666Y-47952380D01*
X57583333Y-48333333D01*
X57726190Y-48333333D01*
X57821428Y-48380952D01*
X57869047Y-48428571D01*
X57916666Y-48523809D01*
X57916666Y-48761904D01*
X57869047Y-48857142D01*
X57821428Y-48904761D01*
X57726190Y-48952380D01*
X57440476Y-48952380D01*
X57345238Y-48904761D01*
X57297619Y-48857142D01*
G04 #@! TO.C,J5*
X74916666Y-39952380D02*
X74916666Y-40666666D01*
X74869047Y-40809523D01*
X74773809Y-40904761D01*
X74630952Y-40952380D01*
X74535714Y-40952380D01*
X75869047Y-39952380D02*
X75392857Y-39952380D01*
X75345238Y-40428571D01*
X75392857Y-40380952D01*
X75488095Y-40333333D01*
X75726190Y-40333333D01*
X75821428Y-40380952D01*
X75869047Y-40428571D01*
X75916666Y-40523809D01*
X75916666Y-40761904D01*
X75869047Y-40857142D01*
X75821428Y-40904761D01*
X75726190Y-40952380D01*
X75488095Y-40952380D01*
X75392857Y-40904761D01*
X75345238Y-40857142D01*
G04 #@! TO.C,J6*
X65916666Y-39952380D02*
X65916666Y-40666666D01*
X65869047Y-40809523D01*
X65773809Y-40904761D01*
X65630952Y-40952380D01*
X65535714Y-40952380D01*
X66821428Y-39952380D02*
X66630952Y-39952380D01*
X66535714Y-40000000D01*
X66488095Y-40047619D01*
X66392857Y-40190476D01*
X66345238Y-40380952D01*
X66345238Y-40761904D01*
X66392857Y-40857142D01*
X66440476Y-40904761D01*
X66535714Y-40952380D01*
X66726190Y-40952380D01*
X66821428Y-40904761D01*
X66869047Y-40857142D01*
X66916666Y-40761904D01*
X66916666Y-40523809D01*
X66869047Y-40428571D01*
X66821428Y-40380952D01*
X66726190Y-40333333D01*
X66535714Y-40333333D01*
X66440476Y-40380952D01*
X66392857Y-40428571D01*
X66345238Y-40523809D01*
G04 #@! TO.C,J7*
X56916666Y-39952380D02*
X56916666Y-40666666D01*
X56869047Y-40809523D01*
X56773809Y-40904761D01*
X56630952Y-40952380D01*
X56535714Y-40952380D01*
X57297619Y-39952380D02*
X57964285Y-39952380D01*
X57535714Y-40952380D01*
G04 #@! TO.C,J8*
X83916666Y-31952380D02*
X83916666Y-32666666D01*
X83869047Y-32809523D01*
X83773809Y-32904761D01*
X83630952Y-32952380D01*
X83535714Y-32952380D01*
X84535714Y-32380952D02*
X84440476Y-32333333D01*
X84392857Y-32285714D01*
X84345238Y-32190476D01*
X84345238Y-32142857D01*
X84392857Y-32047619D01*
X84440476Y-32000000D01*
X84535714Y-31952380D01*
X84726190Y-31952380D01*
X84821428Y-32000000D01*
X84869047Y-32047619D01*
X84916666Y-32142857D01*
X84916666Y-32190476D01*
X84869047Y-32285714D01*
X84821428Y-32333333D01*
X84726190Y-32380952D01*
X84535714Y-32380952D01*
X84440476Y-32428571D01*
X84392857Y-32476190D01*
X84345238Y-32571428D01*
X84345238Y-32761904D01*
X84392857Y-32857142D01*
X84440476Y-32904761D01*
X84535714Y-32952380D01*
X84726190Y-32952380D01*
X84821428Y-32904761D01*
X84869047Y-32857142D01*
X84916666Y-32761904D01*
X84916666Y-32571428D01*
X84869047Y-32476190D01*
X84821428Y-32428571D01*
X84726190Y-32380952D01*
G04 #@! TO.C,J9*
X74916666Y-31952380D02*
X74916666Y-32666666D01*
X74869047Y-32809523D01*
X74773809Y-32904761D01*
X74630952Y-32952380D01*
X74535714Y-32952380D01*
X75440476Y-32952380D02*
X75630952Y-32952380D01*
X75726190Y-32904761D01*
X75773809Y-32857142D01*
X75869047Y-32714285D01*
X75916666Y-32523809D01*
X75916666Y-32142857D01*
X75869047Y-32047619D01*
X75821428Y-32000000D01*
X75726190Y-31952380D01*
X75535714Y-31952380D01*
X75440476Y-32000000D01*
X75392857Y-32047619D01*
X75345238Y-32142857D01*
X75345238Y-32380952D01*
X75392857Y-32476190D01*
X75440476Y-32523809D01*
X75535714Y-32571428D01*
X75726190Y-32571428D01*
X75821428Y-32523809D01*
X75869047Y-32476190D01*
X75916666Y-32380952D01*
G04 #@! TO.C,J10*
X65440476Y-31952380D02*
X65440476Y-32666666D01*
X65392857Y-32809523D01*
X65297619Y-32904761D01*
X65154761Y-32952380D01*
X65059523Y-32952380D01*
X66440476Y-32952380D02*
X65869047Y-32952380D01*
X66154761Y-32952380D02*
X66154761Y-31952380D01*
X66059523Y-32095238D01*
X65964285Y-32190476D01*
X65869047Y-32238095D01*
X67059523Y-31952380D02*
X67154761Y-31952380D01*
X67250000Y-32000000D01*
X67297619Y-32047619D01*
X67345238Y-32142857D01*
X67392857Y-32333333D01*
X67392857Y-32571428D01*
X67345238Y-32761904D01*
X67297619Y-32857142D01*
X67250000Y-32904761D01*
X67154761Y-32952380D01*
X67059523Y-32952380D01*
X66964285Y-32904761D01*
X66916666Y-32857142D01*
X66869047Y-32761904D01*
X66821428Y-32571428D01*
X66821428Y-32333333D01*
X66869047Y-32142857D01*
X66916666Y-32047619D01*
X66964285Y-32000000D01*
X67059523Y-31952380D01*
G04 #@! TO.C,J12*
X83440476Y-23952380D02*
X83440476Y-24666666D01*
X83392857Y-24809523D01*
X83297619Y-24904761D01*
X83154761Y-24952380D01*
X83059523Y-24952380D01*
X84440476Y-24952380D02*
X83869047Y-24952380D01*
X84154761Y-24952380D02*
X84154761Y-23952380D01*
X84059523Y-24095238D01*
X83964285Y-24190476D01*
X83869047Y-24238095D01*
X84821428Y-24047619D02*
X84869047Y-24000000D01*
X84964285Y-23952380D01*
X85202380Y-23952380D01*
X85297619Y-24000000D01*
X85345238Y-24047619D01*
X85392857Y-24142857D01*
X85392857Y-24238095D01*
X85345238Y-24380952D01*
X84773809Y-24952380D01*
X85392857Y-24952380D01*
G04 #@! TO.C,J13*
X74440476Y-23952380D02*
X74440476Y-24666666D01*
X74392857Y-24809523D01*
X74297619Y-24904761D01*
X74154761Y-24952380D01*
X74059523Y-24952380D01*
X75440476Y-24952380D02*
X74869047Y-24952380D01*
X75154761Y-24952380D02*
X75154761Y-23952380D01*
X75059523Y-24095238D01*
X74964285Y-24190476D01*
X74869047Y-24238095D01*
X75773809Y-23952380D02*
X76392857Y-23952380D01*
X76059523Y-24333333D01*
X76202380Y-24333333D01*
X76297619Y-24380952D01*
X76345238Y-24428571D01*
X76392857Y-24523809D01*
X76392857Y-24761904D01*
X76345238Y-24857142D01*
X76297619Y-24904761D01*
X76202380Y-24952380D01*
X75916666Y-24952380D01*
X75821428Y-24904761D01*
X75773809Y-24857142D01*
G04 #@! TO.C,J14*
X65440476Y-23952380D02*
X65440476Y-24666666D01*
X65392857Y-24809523D01*
X65297619Y-24904761D01*
X65154761Y-24952380D01*
X65059523Y-24952380D01*
X66440476Y-24952380D02*
X65869047Y-24952380D01*
X66154761Y-24952380D02*
X66154761Y-23952380D01*
X66059523Y-24095238D01*
X65964285Y-24190476D01*
X65869047Y-24238095D01*
X67297619Y-24285714D02*
X67297619Y-24952380D01*
X67059523Y-23904761D02*
X66821428Y-24619047D01*
X67440476Y-24619047D01*
G04 #@! TO.C,J15*
X56440476Y-23952380D02*
X56440476Y-24666666D01*
X56392857Y-24809523D01*
X56297619Y-24904761D01*
X56154761Y-24952380D01*
X56059523Y-24952380D01*
X57440476Y-24952380D02*
X56869047Y-24952380D01*
X57154761Y-24952380D02*
X57154761Y-23952380D01*
X57059523Y-24095238D01*
X56964285Y-24190476D01*
X56869047Y-24238095D01*
X58345238Y-23952380D02*
X57869047Y-23952380D01*
X57821428Y-24428571D01*
X57869047Y-24380952D01*
X57964285Y-24333333D01*
X58202380Y-24333333D01*
X58297619Y-24380952D01*
X58345238Y-24428571D01*
X58392857Y-24523809D01*
X58392857Y-24761904D01*
X58345238Y-24857142D01*
X58297619Y-24904761D01*
X58202380Y-24952380D01*
X57964285Y-24952380D01*
X57869047Y-24904761D01*
X57821428Y-24857142D01*
G04 #@! TO.C,J16*
X38190476Y-59782380D02*
X38190476Y-60496666D01*
X38142857Y-60639523D01*
X38047619Y-60734761D01*
X37904761Y-60782380D01*
X37809523Y-60782380D01*
X39190476Y-60782380D02*
X38619047Y-60782380D01*
X38904761Y-60782380D02*
X38904761Y-59782380D01*
X38809523Y-59925238D01*
X38714285Y-60020476D01*
X38619047Y-60068095D01*
X40047619Y-59782380D02*
X39857142Y-59782380D01*
X39761904Y-59830000D01*
X39714285Y-59877619D01*
X39619047Y-60020476D01*
X39571428Y-60210952D01*
X39571428Y-60591904D01*
X39619047Y-60687142D01*
X39666666Y-60734761D01*
X39761904Y-60782380D01*
X39952380Y-60782380D01*
X40047619Y-60734761D01*
X40095238Y-60687142D01*
X40142857Y-60591904D01*
X40142857Y-60353809D01*
X40095238Y-60258571D01*
X40047619Y-60210952D01*
X39952380Y-60163333D01*
X39761904Y-60163333D01*
X39666666Y-60210952D01*
X39619047Y-60258571D01*
X39571428Y-60353809D01*
G04 #@! TO.C,J17*
X24709578Y-54878841D02*
X24709578Y-55593127D01*
X24661959Y-55735984D01*
X24566721Y-55831222D01*
X24423863Y-55878841D01*
X24328625Y-55878841D01*
X25709578Y-55878841D02*
X25138149Y-55878841D01*
X25423863Y-55878841D02*
X25423863Y-54878841D01*
X25328625Y-55021699D01*
X25233387Y-55116937D01*
X25138149Y-55164556D01*
X26042911Y-54878841D02*
X26709578Y-54878841D01*
X26281006Y-55878841D01*
G04 #@! TO.C,J18*
X24709578Y-39435641D02*
X24709578Y-40149927D01*
X24661959Y-40292784D01*
X24566721Y-40388022D01*
X24423863Y-40435641D01*
X24328625Y-40435641D01*
X25709578Y-40435641D02*
X25138149Y-40435641D01*
X25423863Y-40435641D02*
X25423863Y-39435641D01*
X25328625Y-39578499D01*
X25233387Y-39673737D01*
X25138149Y-39721356D01*
X26281006Y-39864213D02*
X26185768Y-39816594D01*
X26138149Y-39768975D01*
X26090530Y-39673737D01*
X26090530Y-39626118D01*
X26138149Y-39530880D01*
X26185768Y-39483261D01*
X26281006Y-39435641D01*
X26471482Y-39435641D01*
X26566721Y-39483261D01*
X26614340Y-39530880D01*
X26661959Y-39626118D01*
X26661959Y-39673737D01*
X26614340Y-39768975D01*
X26566721Y-39816594D01*
X26471482Y-39864213D01*
X26281006Y-39864213D01*
X26185768Y-39911832D01*
X26138149Y-39959451D01*
X26090530Y-40054689D01*
X26090530Y-40245165D01*
X26138149Y-40340403D01*
X26185768Y-40388022D01*
X26281006Y-40435641D01*
X26471482Y-40435641D01*
X26566721Y-40388022D01*
X26614340Y-40340403D01*
X26661959Y-40245165D01*
X26661959Y-40054689D01*
X26614340Y-39959451D01*
X26566721Y-39911832D01*
X26471482Y-39864213D01*
G04 #@! TO.C,R1*
X38092380Y-32577066D02*
X37616190Y-32910400D01*
X38092380Y-33148495D02*
X37092380Y-33148495D01*
X37092380Y-32767542D01*
X37140000Y-32672304D01*
X37187619Y-32624685D01*
X37282857Y-32577066D01*
X37425714Y-32577066D01*
X37520952Y-32624685D01*
X37568571Y-32672304D01*
X37616190Y-32767542D01*
X37616190Y-33148495D01*
X38092380Y-31624685D02*
X38092380Y-32196114D01*
X38092380Y-31910400D02*
X37092380Y-31910400D01*
X37235238Y-32005638D01*
X37330476Y-32100876D01*
X37378095Y-32196114D01*
G04 #@! TO.C,J20*
X27586980Y-33559523D02*
X28301266Y-33559523D01*
X28444123Y-33607142D01*
X28539361Y-33702380D01*
X28586980Y-33845238D01*
X28586980Y-33940476D01*
X27682219Y-33130952D02*
X27634600Y-33083333D01*
X27586980Y-32988095D01*
X27586980Y-32750000D01*
X27634600Y-32654761D01*
X27682219Y-32607142D01*
X27777457Y-32559523D01*
X27872695Y-32559523D01*
X28015552Y-32607142D01*
X28586980Y-33178571D01*
X28586980Y-32559523D01*
X27586980Y-31940476D02*
X27586980Y-31845238D01*
X27634600Y-31750000D01*
X27682219Y-31702380D01*
X27777457Y-31654761D01*
X27967933Y-31607142D01*
X28206028Y-31607142D01*
X28396504Y-31654761D01*
X28491742Y-31702380D01*
X28539361Y-31750000D01*
X28586980Y-31845238D01*
X28586980Y-31940476D01*
X28539361Y-32035714D01*
X28491742Y-32083333D01*
X28396504Y-32130952D01*
X28206028Y-32178571D01*
X27967933Y-32178571D01*
X27777457Y-32130952D01*
X27682219Y-32083333D01*
X27634600Y-32035714D01*
X27586980Y-31940476D01*
G04 #@! TO.C,D1*
X40261904Y-21952380D02*
X40261904Y-20952380D01*
X40500000Y-20952380D01*
X40642857Y-21000000D01*
X40738095Y-21095238D01*
X40785714Y-21190476D01*
X40833333Y-21380952D01*
X40833333Y-21523809D01*
X40785714Y-21714285D01*
X40738095Y-21809523D01*
X40642857Y-21904761D01*
X40500000Y-21952380D01*
X40261904Y-21952380D01*
X41785714Y-21952380D02*
X41214285Y-21952380D01*
X41500000Y-21952380D02*
X41500000Y-20952380D01*
X41404761Y-21095238D01*
X41309523Y-21190476D01*
X41214285Y-21238095D01*
G04 #@! TO.C,D2*
X40261904Y-16952380D02*
X40261904Y-15952380D01*
X40500000Y-15952380D01*
X40642857Y-16000000D01*
X40738095Y-16095238D01*
X40785714Y-16190476D01*
X40833333Y-16380952D01*
X40833333Y-16523809D01*
X40785714Y-16714285D01*
X40738095Y-16809523D01*
X40642857Y-16904761D01*
X40500000Y-16952380D01*
X40261904Y-16952380D01*
X41214285Y-16047619D02*
X41261904Y-16000000D01*
X41357142Y-15952380D01*
X41595238Y-15952380D01*
X41690476Y-16000000D01*
X41738095Y-16047619D01*
X41785714Y-16142857D01*
X41785714Y-16238095D01*
X41738095Y-16380952D01*
X41166666Y-16952380D01*
X41785714Y-16952380D01*
G04 #@! TO.C,R2*
X29643333Y-21592380D02*
X29310000Y-21116190D01*
X29071904Y-21592380D02*
X29071904Y-20592380D01*
X29452857Y-20592380D01*
X29548095Y-20640000D01*
X29595714Y-20687619D01*
X29643333Y-20782857D01*
X29643333Y-20925714D01*
X29595714Y-21020952D01*
X29548095Y-21068571D01*
X29452857Y-21116190D01*
X29071904Y-21116190D01*
X30024285Y-20687619D02*
X30071904Y-20640000D01*
X30167142Y-20592380D01*
X30405238Y-20592380D01*
X30500476Y-20640000D01*
X30548095Y-20687619D01*
X30595714Y-20782857D01*
X30595714Y-20878095D01*
X30548095Y-21020952D01*
X29976666Y-21592380D01*
X30595714Y-21592380D01*
G04 #@! TO.C,R3*
X29643333Y-16592380D02*
X29310000Y-16116190D01*
X29071904Y-16592380D02*
X29071904Y-15592380D01*
X29452857Y-15592380D01*
X29548095Y-15640000D01*
X29595714Y-15687619D01*
X29643333Y-15782857D01*
X29643333Y-15925714D01*
X29595714Y-16020952D01*
X29548095Y-16068571D01*
X29452857Y-16116190D01*
X29071904Y-16116190D01*
X29976666Y-15592380D02*
X30595714Y-15592380D01*
X30262380Y-15973333D01*
X30405238Y-15973333D01*
X30500476Y-16020952D01*
X30548095Y-16068571D01*
X30595714Y-16163809D01*
X30595714Y-16401904D01*
X30548095Y-16497142D01*
X30500476Y-16544761D01*
X30405238Y-16592380D01*
X30119523Y-16592380D01*
X30024285Y-16544761D01*
X29976666Y-16497142D01*
G04 #@! TO.C,C1*
X37857142Y-41666666D02*
X37904761Y-41714285D01*
X37952380Y-41857142D01*
X37952380Y-41952380D01*
X37904761Y-42095238D01*
X37809523Y-42190476D01*
X37714285Y-42238095D01*
X37523809Y-42285714D01*
X37380952Y-42285714D01*
X37190476Y-42238095D01*
X37095238Y-42190476D01*
X37000000Y-42095238D01*
X36952380Y-41952380D01*
X36952380Y-41857142D01*
X37000000Y-41714285D01*
X37047619Y-41666666D01*
X37952380Y-40714285D02*
X37952380Y-41285714D01*
X37952380Y-41000000D02*
X36952380Y-41000000D01*
X37095238Y-41095238D01*
X37190476Y-41190476D01*
X37238095Y-41285714D01*
G04 #@! TD*
M02*
