G04 #@! TF.GenerationSoftware,KiCad,Pcbnew,(5.0.0)*
G04 #@! TF.CreationDate,2018-12-11T22:23:17+01:00*
G04 #@! TF.ProjectId,TLC5940_LED_driver_board-rev_1.0,544C43353934305F4C45445F64726976,rev?*
G04 #@! TF.SameCoordinates,Original*
G04 #@! TF.FileFunction,Copper,L1,Top,Signal*
G04 #@! TF.FilePolarity,Positive*
%FSLAX46Y46*%
G04 Gerber Fmt 4.6, Leading zero omitted, Abs format (unit mm)*
G04 Created by KiCad (PCBNEW (5.0.0)) date 12/11/18 22:23:17*
%MOMM*%
%LPD*%
G01*
G04 APERTURE LIST*
G04 #@! TA.AperFunction,ComponentPad*
%ADD10O,1.600000X1.600000*%
G04 #@! TD*
G04 #@! TA.AperFunction,ComponentPad*
%ADD11R,1.600000X1.600000*%
G04 #@! TD*
G04 #@! TA.AperFunction,ComponentPad*
%ADD12R,1.750000X1.750000*%
G04 #@! TD*
G04 #@! TA.AperFunction,ComponentPad*
%ADD13C,1.750000*%
G04 #@! TD*
G04 #@! TA.AperFunction,ComponentPad*
%ADD14C,5.600000*%
G04 #@! TD*
G04 #@! TA.AperFunction,ComponentPad*
%ADD15C,1.200000*%
G04 #@! TD*
G04 #@! TA.AperFunction,ComponentPad*
%ADD16R,1.200000X1.200000*%
G04 #@! TD*
G04 #@! TA.AperFunction,ComponentPad*
%ADD17O,1.700000X1.700000*%
G04 #@! TD*
G04 #@! TA.AperFunction,ComponentPad*
%ADD18R,1.700000X1.700000*%
G04 #@! TD*
G04 #@! TA.AperFunction,ComponentPad*
%ADD19O,1.400000X1.400000*%
G04 #@! TD*
G04 #@! TA.AperFunction,ComponentPad*
%ADD20C,1.400000*%
G04 #@! TD*
G04 #@! TA.AperFunction,ComponentPad*
%ADD21O,4.000000X3.000000*%
G04 #@! TD*
G04 #@! TA.AperFunction,ComponentPad*
%ADD22R,4.000000X3.000000*%
G04 #@! TD*
G04 #@! TA.AperFunction,ComponentPad*
%ADD23C,1.800000*%
G04 #@! TD*
G04 #@! TA.AperFunction,ComponentPad*
%ADD24R,1.800000X1.800000*%
G04 #@! TD*
G04 #@! TA.AperFunction,ComponentPad*
%ADD25C,1.600000*%
G04 #@! TD*
G04 #@! TA.AperFunction,ViaPad*
%ADD26C,0.800000*%
G04 #@! TD*
G04 #@! TA.AperFunction,Conductor*
%ADD27C,0.750000*%
G04 #@! TD*
G04 #@! TA.AperFunction,Conductor*
%ADD28C,0.500000*%
G04 #@! TD*
G04 #@! TA.AperFunction,Conductor*
%ADD29C,0.350000*%
G04 #@! TD*
G04 APERTURE END LIST*
D10*
G04 #@! TO.P,U1,28*
G04 #@! TO.N,Net-(J0-Pad2)*
X42880000Y-58000000D03*
G04 #@! TO.P,U1,14*
G04 #@! TO.N,Net-(J14-Pad2)*
X50500000Y-24980000D03*
G04 #@! TO.P,U1,27*
G04 #@! TO.N,Net-(J16-Pad2)*
X42880000Y-55460000D03*
G04 #@! TO.P,U1,13*
G04 #@! TO.N,Net-(J13-Pad2)*
X50500000Y-27520000D03*
G04 #@! TO.P,U1,26*
G04 #@! TO.N,Net-(J17-Pad2)*
X42880000Y-52920000D03*
G04 #@! TO.P,U1,12*
G04 #@! TO.N,Net-(J12-Pad2)*
X50500000Y-30060000D03*
G04 #@! TO.P,U1,25*
G04 #@! TO.N,Net-(J17-Pad3)*
X42880000Y-50380000D03*
G04 #@! TO.P,U1,11*
G04 #@! TO.N,Net-(J11-Pad2)*
X50500000Y-32600000D03*
G04 #@! TO.P,U1,24*
G04 #@! TO.N,Net-(J17-Pad5)*
X42880000Y-47840000D03*
G04 #@! TO.P,U1,10*
G04 #@! TO.N,Net-(J10-Pad2)*
X50500000Y-35140000D03*
G04 #@! TO.P,U1,23*
G04 #@! TO.N,Net-(J17-Pad1)*
X42880000Y-45300000D03*
G04 #@! TO.P,U1,9*
G04 #@! TO.N,Net-(J9-Pad2)*
X50500000Y-37680000D03*
G04 #@! TO.P,U1,22*
G04 #@! TO.N,GND*
X42880000Y-42760000D03*
G04 #@! TO.P,U1,8*
G04 #@! TO.N,Net-(J8-Pad2)*
X50500000Y-40220000D03*
G04 #@! TO.P,U1,21*
G04 #@! TO.N,VCC*
X42880000Y-40220000D03*
G04 #@! TO.P,U1,7*
G04 #@! TO.N,Net-(J7-Pad2)*
X50500000Y-42760000D03*
G04 #@! TO.P,U1,20*
G04 #@! TO.N,Net-(R1-Pad1)*
X42880000Y-37680000D03*
G04 #@! TO.P,U1,6*
G04 #@! TO.N,Net-(J6-Pad2)*
X50500000Y-45300000D03*
G04 #@! TO.P,U1,19*
G04 #@! TO.N,VCC*
X42880000Y-35140000D03*
G04 #@! TO.P,U1,5*
G04 #@! TO.N,Net-(J5-Pad2)*
X50500000Y-47840000D03*
G04 #@! TO.P,U1,18*
G04 #@! TO.N,Net-(J17-Pad6)*
X42880000Y-32600000D03*
G04 #@! TO.P,U1,4*
G04 #@! TO.N,Net-(J4-Pad2)*
X50500000Y-50380000D03*
G04 #@! TO.P,U1,17*
G04 #@! TO.N,Net-(J18-Pad5)*
X42880000Y-30060000D03*
G04 #@! TO.P,U1,3*
G04 #@! TO.N,Net-(J3-Pad2)*
X50500000Y-52920000D03*
G04 #@! TO.P,U1,16*
G04 #@! TO.N,Net-(J17-Pad4)*
X42880000Y-27520000D03*
G04 #@! TO.P,U1,2*
G04 #@! TO.N,Net-(J2-Pad2)*
X50500000Y-55460000D03*
G04 #@! TO.P,U1,15*
G04 #@! TO.N,Net-(J15-Pad2)*
X42880000Y-24980000D03*
D11*
G04 #@! TO.P,U1,1*
G04 #@! TO.N,Net-(J1-Pad2)*
X50500000Y-58000000D03*
G04 #@! TD*
D12*
G04 #@! TO.P,J4,1*
G04 #@! TO.N,+12V*
X83000000Y-44000000D03*
D13*
G04 #@! TO.P,J4,2*
G04 #@! TO.N,Net-(J4-Pad2)*
X85500000Y-44000000D03*
G04 #@! TD*
D12*
G04 #@! TO.P,J11,1*
G04 #@! TO.N,+12V*
X56000000Y-36000000D03*
D13*
G04 #@! TO.P,J11,2*
G04 #@! TO.N,Net-(J11-Pad2)*
X58500000Y-36000000D03*
G04 #@! TD*
D14*
G04 #@! TO.P,REF\002A\002A,1*
G04 #@! TO.N,N/C*
X20000000Y-20000000D03*
G04 #@! TD*
G04 #@! TO.P,REF\002A\002A,1*
G04 #@! TO.N,N/C*
X85000000Y-60000000D03*
G04 #@! TD*
G04 #@! TO.P,REF\002A\002A,1*
G04 #@! TO.N,N/C*
X20000000Y-60000000D03*
G04 #@! TD*
D15*
G04 #@! TO.P,C2,2*
G04 #@! TO.N,GND*
X31500000Y-31750000D03*
D16*
G04 #@! TO.P,C2,1*
G04 #@! TO.N,+12V*
X31500000Y-29750000D03*
G04 #@! TD*
D12*
G04 #@! TO.P,J0,1*
G04 #@! TO.N,+12V*
X83000000Y-52000000D03*
D13*
G04 #@! TO.P,J0,2*
G04 #@! TO.N,Net-(J0-Pad2)*
X85500000Y-52000000D03*
G04 #@! TD*
G04 #@! TO.P,J1,2*
G04 #@! TO.N,Net-(J1-Pad2)*
X76500000Y-52000000D03*
D12*
G04 #@! TO.P,J1,1*
G04 #@! TO.N,+12V*
X74000000Y-52000000D03*
G04 #@! TD*
G04 #@! TO.P,J2,1*
G04 #@! TO.N,+12V*
X65000000Y-52000000D03*
D13*
G04 #@! TO.P,J2,2*
G04 #@! TO.N,Net-(J2-Pad2)*
X67500000Y-52000000D03*
G04 #@! TD*
G04 #@! TO.P,J3,2*
G04 #@! TO.N,Net-(J3-Pad2)*
X58500000Y-52000000D03*
D12*
G04 #@! TO.P,J3,1*
G04 #@! TO.N,+12V*
X56000000Y-52000000D03*
G04 #@! TD*
D13*
G04 #@! TO.P,J5,2*
G04 #@! TO.N,Net-(J5-Pad2)*
X76500000Y-44000000D03*
D12*
G04 #@! TO.P,J5,1*
G04 #@! TO.N,+12V*
X74000000Y-44000000D03*
G04 #@! TD*
G04 #@! TO.P,J6,1*
G04 #@! TO.N,+12V*
X65000000Y-44000000D03*
D13*
G04 #@! TO.P,J6,2*
G04 #@! TO.N,Net-(J6-Pad2)*
X67500000Y-44000000D03*
G04 #@! TD*
G04 #@! TO.P,J7,2*
G04 #@! TO.N,Net-(J7-Pad2)*
X58500000Y-44000000D03*
D12*
G04 #@! TO.P,J7,1*
G04 #@! TO.N,+12V*
X56000000Y-44000000D03*
G04 #@! TD*
G04 #@! TO.P,J8,1*
G04 #@! TO.N,+12V*
X83000000Y-36000000D03*
D13*
G04 #@! TO.P,J8,2*
G04 #@! TO.N,Net-(J8-Pad2)*
X85500000Y-36000000D03*
G04 #@! TD*
G04 #@! TO.P,J9,2*
G04 #@! TO.N,Net-(J9-Pad2)*
X76500000Y-36000000D03*
D12*
G04 #@! TO.P,J9,1*
G04 #@! TO.N,+12V*
X74000000Y-36000000D03*
G04 #@! TD*
D13*
G04 #@! TO.P,J10,2*
G04 #@! TO.N,Net-(J10-Pad2)*
X67500000Y-36000000D03*
D12*
G04 #@! TO.P,J10,1*
G04 #@! TO.N,+12V*
X65000000Y-36000000D03*
G04 #@! TD*
D13*
G04 #@! TO.P,J12,2*
G04 #@! TO.N,Net-(J12-Pad2)*
X85500000Y-28000000D03*
D12*
G04 #@! TO.P,J12,1*
G04 #@! TO.N,+12V*
X83000000Y-28000000D03*
G04 #@! TD*
G04 #@! TO.P,J13,1*
G04 #@! TO.N,+12V*
X74000000Y-28000000D03*
D13*
G04 #@! TO.P,J13,2*
G04 #@! TO.N,Net-(J13-Pad2)*
X76500000Y-28000000D03*
G04 #@! TD*
G04 #@! TO.P,J14,2*
G04 #@! TO.N,Net-(J14-Pad2)*
X67500000Y-28000000D03*
D12*
G04 #@! TO.P,J14,1*
G04 #@! TO.N,+12V*
X65000000Y-28000000D03*
G04 #@! TD*
G04 #@! TO.P,J15,1*
G04 #@! TO.N,+12V*
X56000000Y-28000000D03*
D13*
G04 #@! TO.P,J15,2*
G04 #@! TO.N,Net-(J15-Pad2)*
X58500000Y-28000000D03*
G04 #@! TD*
D17*
G04 #@! TO.P,J16,3*
G04 #@! TO.N,GND*
X39000000Y-52920000D03*
G04 #@! TO.P,J16,2*
G04 #@! TO.N,Net-(J16-Pad2)*
X39000000Y-55460000D03*
D18*
G04 #@! TO.P,J16,1*
G04 #@! TO.N,VCC*
X39000000Y-58000000D03*
G04 #@! TD*
D12*
G04 #@! TO.P,J17,1*
G04 #@! TO.N,Net-(J17-Pad1)*
X19266702Y-50997261D03*
D13*
G04 #@! TO.P,J17,2*
G04 #@! TO.N,Net-(J17-Pad2)*
X21766702Y-50997261D03*
G04 #@! TO.P,J17,3*
G04 #@! TO.N,Net-(J17-Pad3)*
X24266702Y-50997261D03*
G04 #@! TO.P,J17,4*
G04 #@! TO.N,Net-(J17-Pad4)*
X26766702Y-50997261D03*
G04 #@! TO.P,J17,5*
G04 #@! TO.N,Net-(J17-Pad5)*
X29266702Y-50997261D03*
G04 #@! TO.P,J17,6*
G04 #@! TO.N,Net-(J17-Pad6)*
X31766702Y-50997261D03*
G04 #@! TD*
G04 #@! TO.P,J18,6*
G04 #@! TO.N,Net-(J17-Pad1)*
X19266702Y-44497261D03*
G04 #@! TO.P,J18,5*
G04 #@! TO.N,Net-(J18-Pad5)*
X21766702Y-44497261D03*
G04 #@! TO.P,J18,4*
G04 #@! TO.N,Net-(J17-Pad3)*
X24266702Y-44497261D03*
G04 #@! TO.P,J18,3*
G04 #@! TO.N,Net-(J17-Pad4)*
X26766702Y-44497261D03*
G04 #@! TO.P,J18,2*
G04 #@! TO.N,Net-(J17-Pad5)*
X29266702Y-44497261D03*
D12*
G04 #@! TO.P,J18,1*
G04 #@! TO.N,Net-(J17-Pad6)*
X31766702Y-44497261D03*
G04 #@! TD*
D19*
G04 #@! TO.P,R1,2*
G04 #@! TO.N,GND*
X39500000Y-28600400D03*
D20*
G04 #@! TO.P,R1,1*
G04 #@! TO.N,Net-(R1-Pad1)*
X39500000Y-36220400D03*
G04 #@! TD*
D14*
G04 #@! TO.P,REF\002A\002A,1*
G04 #@! TO.N,N/C*
X85000000Y-20000000D03*
G04 #@! TD*
D21*
G04 #@! TO.P,J20,3*
G04 #@! TO.N,+12V*
X21750000Y-28825200D03*
G04 #@! TO.P,J20,2*
G04 #@! TO.N,GND*
X21750000Y-32787600D03*
D22*
G04 #@! TO.P,J20,1*
G04 #@! TO.N,VCC*
X21750000Y-36750000D03*
G04 #@! TD*
D23*
G04 #@! TO.P,D1,2*
G04 #@! TO.N,Net-(D1-Pad2)*
X36460000Y-23000000D03*
D24*
G04 #@! TO.P,D1,1*
G04 #@! TO.N,GND*
X39000000Y-23000000D03*
G04 #@! TD*
G04 #@! TO.P,D2,1*
G04 #@! TO.N,GND*
X39000000Y-18000000D03*
D23*
G04 #@! TO.P,D2,2*
G04 #@! TO.N,Net-(D2-Pad2)*
X36460000Y-18000000D03*
G04 #@! TD*
D20*
G04 #@! TO.P,R2,1*
G04 #@! TO.N,VCC*
X26000000Y-23000000D03*
D19*
G04 #@! TO.P,R2,2*
G04 #@! TO.N,Net-(D1-Pad2)*
X33620000Y-23000000D03*
G04 #@! TD*
G04 #@! TO.P,R3,2*
G04 #@! TO.N,Net-(D2-Pad2)*
X33620000Y-18000000D03*
D20*
G04 #@! TO.P,R3,1*
G04 #@! TO.N,+12V*
X26000000Y-18000000D03*
G04 #@! TD*
D25*
G04 #@! TO.P,C1,2*
G04 #@! TO.N,GND*
X39500000Y-44000000D03*
G04 #@! TO.P,C1,1*
G04 #@! TO.N,VCC*
X39500000Y-39000000D03*
G04 #@! TD*
D26*
G04 #@! TO.N,VCC*
X27500000Y-34500000D03*
X37500000Y-39000000D03*
X36500000Y-39000000D03*
X28500000Y-35500000D03*
G04 #@! TO.N,Net-(J17-Pad1)*
X23000000Y-46500000D03*
X33000000Y-46500000D03*
G04 #@! TO.N,Net-(J17-Pad4)*
X26766702Y-41233298D03*
X29000000Y-39000000D03*
G04 #@! TO.N,Net-(J17-Pad5)*
X33000000Y-48000000D03*
X30500000Y-48000000D03*
G04 #@! TD*
D27*
G04 #@! TO.N,GND*
X39000000Y-18000000D02*
X39000000Y-23000000D01*
G04 #@! TO.N,VCC*
X40720000Y-40220000D02*
X42880000Y-40220000D01*
X39500000Y-39000000D02*
X40720000Y-40220000D01*
X42880000Y-40220000D02*
X44280000Y-40220000D01*
X42880000Y-35140000D02*
X44140000Y-35140000D01*
X44140000Y-35140000D02*
X44500000Y-35500000D01*
X44280000Y-40220000D02*
X44500000Y-40000000D01*
X44500000Y-35500000D02*
X44500000Y-40000000D01*
X22250000Y-36750000D02*
X21750000Y-36750000D01*
X26000000Y-23000000D02*
X26000000Y-33000000D01*
X25500000Y-33500000D02*
X26500000Y-33500000D01*
X26000000Y-33000000D02*
X26500000Y-33500000D01*
X25500000Y-33500000D02*
X22250000Y-36750000D01*
X26000000Y-33000000D02*
X25500000Y-33500000D01*
X19000000Y-36750000D02*
X16500000Y-39250000D01*
X21750000Y-36750000D02*
X19000000Y-36750000D01*
X16500000Y-39250000D02*
X16500000Y-55000000D01*
X16500000Y-55000000D02*
X17500000Y-56000000D01*
X17500000Y-56000000D02*
X35000000Y-56000000D01*
X37000000Y-58000000D02*
X39000000Y-58000000D01*
X35000000Y-56000000D02*
X37000000Y-58000000D01*
X26500000Y-33500000D02*
X27500000Y-34500000D01*
X39500000Y-39000000D02*
X37500000Y-39000000D01*
X37500000Y-39000000D02*
X36500000Y-39000000D01*
D28*
G04 #@! TO.N,Net-(J0-Pad2)*
X45380000Y-60500000D02*
X42880000Y-58000000D01*
X78500000Y-60500000D02*
X45380000Y-60500000D01*
X85500000Y-52000000D02*
X85500000Y-53500000D01*
X85500000Y-53500000D02*
X78500000Y-60500000D01*
G04 #@! TO.N,Net-(J1-Pad2)*
X72000000Y-58000000D02*
X50500000Y-58000000D01*
X76500000Y-52000000D02*
X76500000Y-53500000D01*
X76500000Y-53500000D02*
X72000000Y-58000000D01*
G04 #@! TO.N,Net-(J2-Pad2)*
X65540000Y-55460000D02*
X50500000Y-55460000D01*
X67500000Y-52000000D02*
X67500000Y-53500000D01*
X67500000Y-53500000D02*
X65540000Y-55460000D01*
G04 #@! TO.N,Net-(J3-Pad2)*
X51580000Y-54000000D02*
X50500000Y-52920000D01*
X58000000Y-54000000D02*
X51580000Y-54000000D01*
X58500000Y-52000000D02*
X58500000Y-53500000D01*
X58500000Y-53500000D02*
X58000000Y-54000000D01*
G04 #@! TO.N,Net-(J4-Pad2)*
X51880000Y-49000000D02*
X50500000Y-50380000D01*
X82000000Y-49000000D02*
X51880000Y-49000000D01*
X85500000Y-44000000D02*
X85500000Y-45500000D01*
X85500000Y-45500000D02*
X82000000Y-49000000D01*
G04 #@! TO.N,Net-(J5-Pad2)*
X50660000Y-48000000D02*
X50500000Y-47840000D01*
X74000000Y-48000000D02*
X50660000Y-48000000D01*
X76500000Y-44000000D02*
X76500000Y-45500000D01*
X76500000Y-45500000D02*
X74000000Y-48000000D01*
G04 #@! TO.N,Net-(J6-Pad2)*
X52200000Y-47000000D02*
X50500000Y-45300000D01*
X66000000Y-47000000D02*
X52200000Y-47000000D01*
X67500000Y-44000000D02*
X67500000Y-45500000D01*
X67500000Y-45500000D02*
X66000000Y-47000000D01*
G04 #@! TO.N,Net-(J7-Pad2)*
X51260000Y-42760000D02*
X50500000Y-42760000D01*
X54500000Y-46000000D02*
X51260000Y-42760000D01*
X58000000Y-46000000D02*
X54500000Y-46000000D01*
X58500000Y-44000000D02*
X58500000Y-45500000D01*
X58500000Y-45500000D02*
X58000000Y-46000000D01*
G04 #@! TO.N,Net-(J8-Pad2)*
X82780000Y-40220000D02*
X50500000Y-40220000D01*
X85500000Y-36000000D02*
X85500000Y-37500000D01*
X85500000Y-37500000D02*
X82780000Y-40220000D01*
G04 #@! TO.N,Net-(J9-Pad2)*
X51820000Y-39000000D02*
X50500000Y-37680000D01*
X75000000Y-39000000D02*
X51820000Y-39000000D01*
X76500000Y-36000000D02*
X76500000Y-37500000D01*
X76500000Y-37500000D02*
X75000000Y-39000000D01*
G04 #@! TO.N,Net-(J10-Pad2)*
X53360000Y-38000000D02*
X50500000Y-35140000D01*
X67000000Y-38000000D02*
X53360000Y-38000000D01*
X67500000Y-36000000D02*
X67500000Y-37500000D01*
X67500000Y-37500000D02*
X67000000Y-38000000D01*
G04 #@! TO.N,Net-(J11-Pad2)*
X50900000Y-33000000D02*
X50500000Y-32600000D01*
X57000000Y-33000000D02*
X50900000Y-33000000D01*
X58500000Y-36000000D02*
X58500000Y-34500000D01*
X58500000Y-34500000D02*
X57000000Y-33000000D01*
G04 #@! TO.N,Net-(J12-Pad2)*
X85500000Y-28000000D02*
X85500000Y-29500000D01*
X85500000Y-29500000D02*
X83000000Y-32000000D01*
X52440000Y-32000000D02*
X50500000Y-30060000D01*
X83000000Y-32000000D02*
X52440000Y-32000000D01*
G04 #@! TO.N,Net-(J13-Pad2)*
X76500000Y-28000000D02*
X76500000Y-29500000D01*
X76500000Y-29500000D02*
X75000000Y-31000000D01*
X75000000Y-31000000D02*
X54000000Y-31000000D01*
X54000000Y-31000000D02*
X52500000Y-29500000D01*
X52480000Y-29500000D02*
X50500000Y-27520000D01*
X52500000Y-29500000D02*
X52480000Y-29500000D01*
G04 #@! TO.N,Net-(J14-Pad2)*
X51980000Y-24980000D02*
X50500000Y-24980000D01*
X67500000Y-29500000D02*
X67000000Y-30000000D01*
X67000000Y-30000000D02*
X54500000Y-30000000D01*
X67500000Y-28000000D02*
X67500000Y-29500000D01*
X54500000Y-30000000D02*
X54000000Y-29500000D01*
X54000000Y-29500000D02*
X54000000Y-27000000D01*
X54000000Y-27000000D02*
X51980000Y-24980000D01*
G04 #@! TO.N,Net-(J15-Pad2)*
X58500000Y-28000000D02*
X58500000Y-26500000D01*
X58500000Y-26500000D02*
X55500000Y-23500000D01*
X44360000Y-23500000D02*
X42880000Y-24980000D01*
X55500000Y-23500000D02*
X44360000Y-23500000D01*
D29*
G04 #@! TO.N,Net-(J16-Pad2)*
X41748630Y-55460000D02*
X39000000Y-55460000D01*
X42880000Y-55460000D02*
X41748630Y-55460000D01*
G04 #@! TO.N,Net-(J17-Pad1)*
X19266702Y-46000000D02*
X19266702Y-46266702D01*
X19266702Y-44497261D02*
X19266702Y-46000000D01*
X19266702Y-46266702D02*
X19500000Y-46500000D01*
X19266702Y-46733298D02*
X19500000Y-46500000D01*
X19266702Y-47000000D02*
X19266702Y-46733298D01*
X19266702Y-47000000D02*
X19266702Y-50997261D01*
X19266702Y-46000000D02*
X19266702Y-47000000D01*
X19500000Y-46500000D02*
X23000000Y-46500000D01*
X41700000Y-45300000D02*
X42880000Y-45300000D01*
X33000000Y-46500000D02*
X40500000Y-46500000D01*
X40500000Y-46500000D02*
X41700000Y-45300000D01*
G04 #@! TO.N,Net-(J17-Pad2)*
X21766702Y-53766702D02*
X21766702Y-50997261D01*
X22500000Y-54500000D02*
X21766702Y-53766702D01*
X33000000Y-54500000D02*
X22500000Y-54500000D01*
X37000000Y-50500000D02*
X33000000Y-54500000D01*
X42880000Y-52920000D02*
X40460000Y-50500000D01*
X40460000Y-50500000D02*
X37000000Y-50500000D01*
G04 #@! TO.N,Net-(J17-Pad3)*
X24266702Y-44497261D02*
X24266702Y-50997261D01*
X42880000Y-50380000D02*
X42000000Y-49500000D01*
X42000000Y-49500000D02*
X36000000Y-49500000D01*
X36000000Y-49500000D02*
X32500000Y-53000000D01*
X32500000Y-53000000D02*
X25000000Y-53000000D01*
X24266702Y-52266702D02*
X24266702Y-50997261D01*
X25000000Y-53000000D02*
X24266702Y-52266702D01*
G04 #@! TO.N,Net-(J17-Pad4)*
X26766702Y-44497261D02*
X26766702Y-50997261D01*
X26766702Y-44497261D02*
X26766702Y-41233298D01*
X42880000Y-27520000D02*
X31400000Y-39000000D01*
X31400000Y-39000000D02*
X29000000Y-39000000D01*
G04 #@! TO.N,Net-(J17-Pad5)*
X29266702Y-44497261D02*
X29266702Y-47500000D01*
X29266702Y-48500000D02*
X29266702Y-50997261D01*
X42880000Y-47840000D02*
X41160000Y-47840000D01*
X41000000Y-48000000D02*
X33000000Y-48000000D01*
X41160000Y-47840000D02*
X41000000Y-48000000D01*
X30500000Y-48000000D02*
X29766702Y-48000000D01*
X29500000Y-47983298D02*
X29266702Y-47750000D01*
X29500000Y-48000000D02*
X29500000Y-47983298D01*
X29266702Y-47750000D02*
X29266702Y-48000000D01*
X29266702Y-47500000D02*
X29266702Y-47750000D01*
X29500000Y-48000000D02*
X29266702Y-48000000D01*
X29766702Y-48000000D02*
X29500000Y-48000000D01*
X29500000Y-48016702D02*
X29266702Y-48250000D01*
X29500000Y-48000000D02*
X29500000Y-48016702D01*
X29266702Y-48000000D02*
X29266702Y-48250000D01*
X29266702Y-48250000D02*
X29266702Y-48500000D01*
G04 #@! TO.N,Net-(J17-Pad6)*
X31766702Y-44497261D02*
X31766702Y-50997261D01*
X31766702Y-44497261D02*
X31766702Y-41233298D01*
X40400000Y-32600000D02*
X42880000Y-32600000D01*
X31766702Y-41233298D02*
X40400000Y-32600000D01*
G04 #@! TO.N,Net-(J18-Pad5)*
X21766702Y-44497261D02*
X21766702Y-41233298D01*
X21766702Y-41233298D02*
X23000000Y-40000000D01*
X41748630Y-30060000D02*
X42880000Y-30060000D01*
X31808630Y-40000000D02*
X41748630Y-30060000D01*
X23000000Y-40000000D02*
X31808630Y-40000000D01*
G04 #@! TO.N,Net-(R1-Pad1)*
X39500000Y-36220400D02*
X40489949Y-36220400D01*
X42880000Y-37680000D02*
X42180000Y-37680000D01*
X40720400Y-36220400D02*
X40489949Y-36220400D01*
X42180000Y-37680000D02*
X40720400Y-36220400D01*
G04 #@! TO.N,Net-(D1-Pad2)*
X33620000Y-23000000D02*
X36460000Y-23000000D01*
G04 #@! TO.N,Net-(D2-Pad2)*
X33620000Y-18000000D02*
X36460000Y-18000000D01*
G04 #@! TD*
M02*
