<?xml version="1.0" standalone="no"?>
 <!DOCTYPE svg PUBLIC "-//W3C//DTD SVG 1.1//EN" 
 "http://www.w3.org/Graphics/SVG/1.1/DTD/svg11.dtd"> 
<svg xmlns="http://www.w3.org/2000/svg" version="1.1" 
    width="29.7002cm" height="21.0007cm" viewBox="0 0 116930 82680 ">
<title>SVG Picture created as TLC5940_LED_driver_board-rev_1.0-B.Cu.svg date 2018/12/11 22:23:08 </title>
  <desc>Picture generated by PCBNEW </desc>
<g style="fill:#000000; fill-opacity:1;stroke:#000000; stroke-opacity:1;
stroke-linecap:round; stroke-linejoin:round; "
 transform="translate(0 0) scale(1 1)">
</g>
<g style="fill:#000000; fill-opacity:0.0; 
stroke:#000000; stroke-width:-0.000393701; stroke-opacity:1; 
stroke-linecap:round; stroke-linejoin:round;">
</g>
<g style="fill:#000000; fill-opacity:0.0; 
stroke:#000000; stroke-width:629.921; stroke-opacity:1; 
stroke-linecap:round; stroke-linejoin:round;">
<path d="M16881 22834
L16881 22834
" />
<path d="M19881 9834
L19881 9834
" />
<path d="M16881 21834
L16881 21834
" />
<path d="M19881 10834
L19881 10834
" />
<path d="M16881 20834
L16881 20834
" />
<path d="M19881 11834
L19881 11834
" />
<path d="M16881 19834
L16881 19834
" />
<path d="M19881 12834
L19881 12834
" />
<path d="M16881 18834
L16881 18834
" />
<path d="M19881 13834
L19881 13834
" />
<path d="M16881 17834
L16881 17834
" />
<path d="M19881 14834
L19881 14834
" />
<path d="M16881 16834
L16881 16834
" />
<path d="M19881 15834
L19881 15834
" />
<path d="M16881 15834
L16881 15834
" />
<path d="M19881 16834
L19881 16834
" />
<path d="M16881 14834
L16881 14834
" />
<path d="M19881 17834
L19881 17834
" />
<path d="M16881 13834
L16881 13834
" />
<path d="M19881 18834
L19881 18834
" />
<path d="M16881 12834
L16881 12834
" />
<path d="M19881 19834
L19881 19834
" />
<path d="M16881 11834
L16881 11834
" />
<path d="M19881 20834
L19881 20834
" />
<path d="M16881 10834
L16881 10834
" />
<path d="M19881 21834
L19881 21834
" />
<path d="M16881 9834
L16881 9834
" />
</g>
<g style="fill:#000000; fill-opacity:0.0; 
stroke:#000000; stroke-width:0; stroke-opacity:1; 
stroke-linecap:round; stroke-linejoin:round;">
</g>
<g style="fill:#000000; fill-opacity:1.0; 
stroke:#000000; stroke-width:0; stroke-opacity:1; 
stroke-linecap:round; stroke-linejoin:round;">
<polyline style="fill-rule:evenodd;"
points="20196,22519
20196,23149
19566,23149
19566,22519
20196,22519
" /> 
<polyline style="fill-rule:evenodd;"
points="32332,17667
32332,16978
33021,16978
33021,17667
32332,17667
" /> 
<circle cx="33661.4" cy="17322.8" r="344.488" /> 
</g>
<g style="fill:#000000; fill-opacity:1.0; 
stroke:#000000; stroke-width:39.3701; stroke-opacity:1; 
stroke-linecap:round; stroke-linejoin:round;">
</g>
<g style="fill:#000000; fill-opacity:1.0; 
stroke:#000000; stroke-width:0; stroke-opacity:1; 
stroke-linecap:round; stroke-linejoin:round;">
<polyline style="fill-rule:evenodd;"
points="21702,14517
21702,13828
22391,13828
22391,14517
21702,14517
" /> 
<circle cx="23031.5" cy="14173.2" r="344.488" /> 
</g>
<g style="fill:#000000; fill-opacity:1.0; 
stroke:#000000; stroke-width:39.3701; stroke-opacity:1; 
stroke-linecap:round; stroke-linejoin:round;">
</g>
<g style="fill:#000000; fill-opacity:1.0; 
stroke:#000000; stroke-width:0; stroke-opacity:1; 
stroke-linecap:round; stroke-linejoin:round;">
<circle cx="7874.02" cy="7874.02" r="1102.36" /> 
</g>
<g style="fill:#000000; fill-opacity:1.0; 
stroke:#000000; stroke-width:39.3701; stroke-opacity:1; 
stroke-linecap:round; stroke-linejoin:round;">
</g>
<g style="fill:#000000; fill-opacity:1.0; 
stroke:#000000; stroke-width:0; stroke-opacity:1; 
stroke-linecap:round; stroke-linejoin:round;">
<circle cx="33464.6" cy="23622" r="1102.36" /> 
</g>
<g style="fill:#000000; fill-opacity:1.0; 
stroke:#000000; stroke-width:39.3701; stroke-opacity:1; 
stroke-linecap:round; stroke-linejoin:round;">
</g>
<g style="fill:#000000; fill-opacity:1.0; 
stroke:#000000; stroke-width:0; stroke-opacity:1; 
stroke-linecap:round; stroke-linejoin:round;">
<circle cx="7874.02" cy="23622" r="1102.36" /> 
</g>
<g style="fill:#000000; fill-opacity:1.0; 
stroke:#000000; stroke-width:39.3701; stroke-opacity:1; 
stroke-linecap:round; stroke-linejoin:round;">
</g>
<g style="fill:#000000; fill-opacity:1.0; 
stroke:#000000; stroke-width:0; stroke-opacity:1; 
stroke-linecap:round; stroke-linejoin:round;">
<circle cx="12401.6" cy="12500" r="236.22" /> 
</g>
<g style="fill:#000000; fill-opacity:1.0; 
stroke:#000000; stroke-width:39.3701; stroke-opacity:1; 
stroke-linecap:round; stroke-linejoin:round;">
</g>
<g style="fill:#000000; fill-opacity:1.0; 
stroke:#000000; stroke-width:0; stroke-opacity:1; 
stroke-linecap:round; stroke-linejoin:round;">
<polyline style="fill-rule:evenodd;"
points="12165,11476
12637,11476
12637,11948
12165,11948
12165,11476
" /> 
<polyline style="fill-rule:evenodd;"
points="32332,20816
32332,20127
33021,20127
33021,20816
32332,20816
" /> 
<circle cx="33661.4" cy="20472.4" r="344.488" /> 
</g>
<g style="fill:#000000; fill-opacity:1.0; 
stroke:#000000; stroke-width:39.3701; stroke-opacity:1; 
stroke-linecap:round; stroke-linejoin:round;">
</g>
<g style="fill:#000000; fill-opacity:1.0; 
stroke:#000000; stroke-width:0; stroke-opacity:1; 
stroke-linecap:round; stroke-linejoin:round;">
<circle cx="30118.1" cy="20472.4" r="344.488" /> 
</g>
<g style="fill:#000000; fill-opacity:1.0; 
stroke:#000000; stroke-width:39.3701; stroke-opacity:1; 
stroke-linecap:round; stroke-linejoin:round;">
</g>
<g style="fill:#000000; fill-opacity:1.0; 
stroke:#000000; stroke-width:0; stroke-opacity:1; 
stroke-linecap:round; stroke-linejoin:round;">
<polyline style="fill-rule:evenodd;"
points="28789,20816
28789,20127
29478,20127
29478,20816
28789,20816
" /> 
<polyline style="fill-rule:evenodd;"
points="25246,20816
25246,20127
25935,20127
25935,20816
25246,20816
" /> 
<circle cx="26574.8" cy="20472.4" r="344.488" /> 
</g>
<g style="fill:#000000; fill-opacity:1.0; 
stroke:#000000; stroke-width:39.3701; stroke-opacity:1; 
stroke-linecap:round; stroke-linejoin:round;">
</g>
<g style="fill:#000000; fill-opacity:1.0; 
stroke:#000000; stroke-width:0; stroke-opacity:1; 
stroke-linecap:round; stroke-linejoin:round;">
<circle cx="23031.5" cy="20472.4" r="344.488" /> 
</g>
<g style="fill:#000000; fill-opacity:1.0; 
stroke:#000000; stroke-width:39.3701; stroke-opacity:1; 
stroke-linecap:round; stroke-linejoin:round;">
</g>
<g style="fill:#000000; fill-opacity:1.0; 
stroke:#000000; stroke-width:0; stroke-opacity:1; 
stroke-linecap:round; stroke-linejoin:round;">
<polyline style="fill-rule:evenodd;"
points="21702,20816
21702,20127
22391,20127
22391,20816
21702,20816
" /> 
<circle cx="30118.1" cy="17322.8" r="344.488" /> 
</g>
<g style="fill:#000000; fill-opacity:1.0; 
stroke:#000000; stroke-width:39.3701; stroke-opacity:1; 
stroke-linecap:round; stroke-linejoin:round;">
</g>
<g style="fill:#000000; fill-opacity:1.0; 
stroke:#000000; stroke-width:0; stroke-opacity:1; 
stroke-linecap:round; stroke-linejoin:round;">
<polyline style="fill-rule:evenodd;"
points="28789,17667
28789,16978
29478,16978
29478,17667
28789,17667
" /> 
<polyline style="fill-rule:evenodd;"
points="25246,17667
25246,16978
25935,16978
25935,17667
25246,17667
" /> 
<circle cx="26574.8" cy="17322.8" r="344.488" /> 
</g>
<g style="fill:#000000; fill-opacity:1.0; 
stroke:#000000; stroke-width:39.3701; stroke-opacity:1; 
stroke-linecap:round; stroke-linejoin:round;">
</g>
<g style="fill:#000000; fill-opacity:1.0; 
stroke:#000000; stroke-width:0; stroke-opacity:1; 
stroke-linecap:round; stroke-linejoin:round;">
<circle cx="23031.5" cy="17322.8" r="344.488" /> 
</g>
<g style="fill:#000000; fill-opacity:1.0; 
stroke:#000000; stroke-width:39.3701; stroke-opacity:1; 
stroke-linecap:round; stroke-linejoin:round;">
</g>
<g style="fill:#000000; fill-opacity:1.0; 
stroke:#000000; stroke-width:0; stroke-opacity:1; 
stroke-linecap:round; stroke-linejoin:round;">
<polyline style="fill-rule:evenodd;"
points="21702,17667
21702,16978
22391,16978
22391,17667
21702,17667
" /> 
<polyline style="fill-rule:evenodd;"
points="32332,14517
32332,13828
33021,13828
33021,14517
32332,14517
" /> 
<circle cx="33661.4" cy="14173.2" r="344.488" /> 
</g>
<g style="fill:#000000; fill-opacity:1.0; 
stroke:#000000; stroke-width:39.3701; stroke-opacity:1; 
stroke-linecap:round; stroke-linejoin:round;">
</g>
<g style="fill:#000000; fill-opacity:1.0; 
stroke:#000000; stroke-width:0; stroke-opacity:1; 
stroke-linecap:round; stroke-linejoin:round;">
<circle cx="30118.1" cy="14173.2" r="344.488" /> 
</g>
<g style="fill:#000000; fill-opacity:1.0; 
stroke:#000000; stroke-width:39.3701; stroke-opacity:1; 
stroke-linecap:round; stroke-linejoin:round;">
</g>
<g style="fill:#000000; fill-opacity:1.0; 
stroke:#000000; stroke-width:0; stroke-opacity:1; 
stroke-linecap:round; stroke-linejoin:round;">
<polyline style="fill-rule:evenodd;"
points="28789,14517
28789,13828
29478,13828
29478,14517
28789,14517
" /> 
<circle cx="26574.8" cy="14173.2" r="344.488" /> 
</g>
<g style="fill:#000000; fill-opacity:1.0; 
stroke:#000000; stroke-width:39.3701; stroke-opacity:1; 
stroke-linecap:round; stroke-linejoin:round;">
</g>
<g style="fill:#000000; fill-opacity:1.0; 
stroke:#000000; stroke-width:0; stroke-opacity:1; 
stroke-linecap:round; stroke-linejoin:round;">
<polyline style="fill-rule:evenodd;"
points="25246,14517
25246,13828
25935,13828
25935,14517
25246,14517
" /> 
<circle cx="33661.4" cy="11023.6" r="344.488" /> 
</g>
<g style="fill:#000000; fill-opacity:1.0; 
stroke:#000000; stroke-width:39.3701; stroke-opacity:1; 
stroke-linecap:round; stroke-linejoin:round;">
</g>
<g style="fill:#000000; fill-opacity:1.0; 
stroke:#000000; stroke-width:0; stroke-opacity:1; 
stroke-linecap:round; stroke-linejoin:round;">
<polyline style="fill-rule:evenodd;"
points="32332,11368
32332,10679
33021,10679
33021,11368
32332,11368
" /> 
<polyline style="fill-rule:evenodd;"
points="28789,11368
28789,10679
29478,10679
29478,11368
28789,11368
" /> 
<circle cx="30118.1" cy="11023.6" r="344.488" /> 
</g>
<g style="fill:#000000; fill-opacity:1.0; 
stroke:#000000; stroke-width:39.3701; stroke-opacity:1; 
stroke-linecap:round; stroke-linejoin:round;">
</g>
<g style="fill:#000000; fill-opacity:1.0; 
stroke:#000000; stroke-width:0; stroke-opacity:1; 
stroke-linecap:round; stroke-linejoin:round;">
<circle cx="26574.8" cy="11023.6" r="344.488" /> 
</g>
<g style="fill:#000000; fill-opacity:1.0; 
stroke:#000000; stroke-width:39.3701; stroke-opacity:1; 
stroke-linecap:round; stroke-linejoin:round;">
</g>
<g style="fill:#000000; fill-opacity:1.0; 
stroke:#000000; stroke-width:0; stroke-opacity:1; 
stroke-linecap:round; stroke-linejoin:round;">
<polyline style="fill-rule:evenodd;"
points="25246,11368
25246,10679
25935,10679
25935,11368
25246,11368
" /> 
<polyline style="fill-rule:evenodd;"
points="21702,11368
21702,10679
22391,10679
22391,11368
21702,11368
" /> 
<circle cx="23031.5" cy="11023.6" r="344.488" /> 
</g>
<g style="fill:#000000; fill-opacity:1.0; 
stroke:#000000; stroke-width:39.3701; stroke-opacity:1; 
stroke-linecap:round; stroke-linejoin:round;">
</g>
<g style="fill:#000000; fill-opacity:1.0; 
stroke:#000000; stroke-width:669.291; stroke-opacity:1; 
stroke-linecap:round; stroke-linejoin:round;">
</g>
<g style="fill:#000000; fill-opacity:0.0; 
stroke:#000000; stroke-width:669.291; stroke-opacity:1; 
stroke-linecap:round; stroke-linejoin:round;">
<path d="M15354 20834
L15354 20834
" />
<path d="M15354 21834
L15354 21834
" />
</g>
<g style="fill:#000000; fill-opacity:0.0; 
stroke:#000000; stroke-width:0; stroke-opacity:1; 
stroke-linecap:round; stroke-linejoin:round;">
</g>
<g style="fill:#000000; fill-opacity:1.0; 
stroke:#000000; stroke-width:0; stroke-opacity:1; 
stroke-linecap:round; stroke-linejoin:round;">
<polyline style="fill-rule:evenodd;"
points="15688,22500
15688,23169
15019,23169
15019,22500
15688,22500
" /> 
<polyline style="fill-rule:evenodd;"
points="7240,20422
7240,19733
7929,19733
7929,20422
7240,20422
" /> 
<circle cx="8569.57" cy="20077.7" r="344.488" /> 
</g>
<g style="fill:#000000; fill-opacity:1.0; 
stroke:#000000; stroke-width:39.3701; stroke-opacity:1; 
stroke-linecap:round; stroke-linejoin:round;">
</g>
<g style="fill:#000000; fill-opacity:1.0; 
stroke:#000000; stroke-width:0; stroke-opacity:1; 
stroke-linecap:round; stroke-linejoin:round;">
<circle cx="9553.82" cy="20077.7" r="344.488" /> 
</g>
<g style="fill:#000000; fill-opacity:1.0; 
stroke:#000000; stroke-width:39.3701; stroke-opacity:1; 
stroke-linecap:round; stroke-linejoin:round;">
</g>
<g style="fill:#000000; fill-opacity:1.0; 
stroke:#000000; stroke-width:0; stroke-opacity:1; 
stroke-linecap:round; stroke-linejoin:round;">
<circle cx="10538.1" cy="20077.7" r="344.488" /> 
</g>
<g style="fill:#000000; fill-opacity:1.0; 
stroke:#000000; stroke-width:39.3701; stroke-opacity:1; 
stroke-linecap:round; stroke-linejoin:round;">
</g>
<g style="fill:#000000; fill-opacity:1.0; 
stroke:#000000; stroke-width:0; stroke-opacity:1; 
stroke-linecap:round; stroke-linejoin:round;">
<circle cx="11522.3" cy="20077.7" r="344.488" /> 
</g>
<g style="fill:#000000; fill-opacity:1.0; 
stroke:#000000; stroke-width:39.3701; stroke-opacity:1; 
stroke-linecap:round; stroke-linejoin:round;">
</g>
<g style="fill:#000000; fill-opacity:1.0; 
stroke:#000000; stroke-width:0; stroke-opacity:1; 
stroke-linecap:round; stroke-linejoin:round;">
<circle cx="12506.6" cy="20077.7" r="344.488" /> 
</g>
<g style="fill:#000000; fill-opacity:1.0; 
stroke:#000000; stroke-width:39.3701; stroke-opacity:1; 
stroke-linecap:round; stroke-linejoin:round;">
</g>
<g style="fill:#000000; fill-opacity:1.0; 
stroke:#000000; stroke-width:0; stroke-opacity:1; 
stroke-linecap:round; stroke-linejoin:round;">
<circle cx="7585.32" cy="17518.6" r="344.488" /> 
</g>
<g style="fill:#000000; fill-opacity:1.0; 
stroke:#000000; stroke-width:39.3701; stroke-opacity:1; 
stroke-linecap:round; stroke-linejoin:round;">
</g>
<g style="fill:#000000; fill-opacity:1.0; 
stroke:#000000; stroke-width:0; stroke-opacity:1; 
stroke-linecap:round; stroke-linejoin:round;">
<circle cx="8569.57" cy="17518.6" r="344.488" /> 
</g>
<g style="fill:#000000; fill-opacity:1.0; 
stroke:#000000; stroke-width:39.3701; stroke-opacity:1; 
stroke-linecap:round; stroke-linejoin:round;">
</g>
<g style="fill:#000000; fill-opacity:1.0; 
stroke:#000000; stroke-width:0; stroke-opacity:1; 
stroke-linecap:round; stroke-linejoin:round;">
<circle cx="9553.82" cy="17518.6" r="344.488" /> 
</g>
<g style="fill:#000000; fill-opacity:1.0; 
stroke:#000000; stroke-width:39.3701; stroke-opacity:1; 
stroke-linecap:round; stroke-linejoin:round;">
</g>
<g style="fill:#000000; fill-opacity:1.0; 
stroke:#000000; stroke-width:0; stroke-opacity:1; 
stroke-linecap:round; stroke-linejoin:round;">
<circle cx="10538.1" cy="17518.6" r="344.488" /> 
</g>
<g style="fill:#000000; fill-opacity:1.0; 
stroke:#000000; stroke-width:39.3701; stroke-opacity:1; 
stroke-linecap:round; stroke-linejoin:round;">
</g>
<g style="fill:#000000; fill-opacity:1.0; 
stroke:#000000; stroke-width:0; stroke-opacity:1; 
stroke-linecap:round; stroke-linejoin:round;">
<circle cx="11522.3" cy="17518.6" r="344.488" /> 
</g>
<g style="fill:#000000; fill-opacity:1.0; 
stroke:#000000; stroke-width:39.3701; stroke-opacity:1; 
stroke-linecap:round; stroke-linejoin:round;">
</g>
<g style="fill:#000000; fill-opacity:1.0; 
stroke:#000000; stroke-width:0; stroke-opacity:1; 
stroke-linecap:round; stroke-linejoin:round;">
<polyline style="fill-rule:evenodd;"
points="12851,17174
12851,17863
12162,17863
12162,17174
12851,17174
" /> 
</g>
<g style="fill:#000000; fill-opacity:1.0; 
stroke:#000000; stroke-width:551.181; stroke-opacity:1; 
stroke-linecap:round; stroke-linejoin:round;">
</g>
<g style="fill:#000000; fill-opacity:0.0; 
stroke:#000000; stroke-width:551.181; stroke-opacity:1; 
stroke-linecap:round; stroke-linejoin:round;">
<path d="M15551 11260
L15551 11260
" />
</g>
<g style="fill:#000000; fill-opacity:1.0; 
stroke:#000000; stroke-width:0; stroke-opacity:1; 
stroke-linecap:round; stroke-linejoin:round;">
<circle cx="15551.2" cy="14260" r="275.591" /> 
</g>
<g style="fill:#000000; fill-opacity:1.0; 
stroke:#000000; stroke-width:39.3701; stroke-opacity:1; 
stroke-linecap:round; stroke-linejoin:round;">
</g>
<g style="fill:#000000; fill-opacity:1.0; 
stroke:#000000; stroke-width:0; stroke-opacity:1; 
stroke-linecap:round; stroke-linejoin:round;">
<circle cx="33464.6" cy="7874.02" r="1102.36" /> 
</g>
<g style="fill:#000000; fill-opacity:1.0; 
stroke:#000000; stroke-width:39.3701; stroke-opacity:1; 
stroke-linecap:round; stroke-linejoin:round;">
</g>
<g style="fill:#000000; fill-opacity:1.0; 
stroke:#000000; stroke-width:1181.1; stroke-opacity:1; 
stroke-linecap:round; stroke-linejoin:round;">
</g>
<g style="fill:#000000; fill-opacity:0.0; 
stroke:#000000; stroke-width:1181.1; stroke-opacity:1; 
stroke-linecap:round; stroke-linejoin:round;">
<path d="M8366 11348
L8759 11348
" />
<path d="M8366 12908
L8759 12908
" />
</g>
<g style="fill:#000000; fill-opacity:0.0; 
stroke:#000000; stroke-width:0; stroke-opacity:1; 
stroke-linecap:round; stroke-linejoin:round;">
</g>
<g style="fill:#000000; fill-opacity:1.0; 
stroke:#000000; stroke-width:0; stroke-opacity:1; 
stroke-linecap:round; stroke-linejoin:round;">
<polyline style="fill-rule:evenodd;"
points="9350,15059
7775,15059
7775,13877
9350,13877
9350,15059
" /> 
<circle cx="14354.3" cy="9055.12" r="354.331" /> 
</g>
<g style="fill:#000000; fill-opacity:1.0; 
stroke:#000000; stroke-width:39.3701; stroke-opacity:1; 
stroke-linecap:round; stroke-linejoin:round;">
</g>
<g style="fill:#000000; fill-opacity:1.0; 
stroke:#000000; stroke-width:0; stroke-opacity:1; 
stroke-linecap:round; stroke-linejoin:round;">
<polyline style="fill-rule:evenodd;"
points="15708,8700
15708,9409
15000,9409
15000,8700
15708,8700
" /> 
<polyline style="fill-rule:evenodd;"
points="15708,6732
15708,7440
15000,7440
15000,6732
15708,6732
" /> 
<circle cx="14354.3" cy="7086.61" r="354.331" /> 
</g>
<g style="fill:#000000; fill-opacity:1.0; 
stroke:#000000; stroke-width:39.3701; stroke-opacity:1; 
stroke-linecap:round; stroke-linejoin:round;">
</g>
<g style="fill:#000000; fill-opacity:1.0; 
stroke:#000000; stroke-width:0; stroke-opacity:1; 
stroke-linecap:round; stroke-linejoin:round;">
<circle cx="10236.2" cy="9055.12" r="275.591" /> 
</g>
<g style="fill:#000000; fill-opacity:1.0; 
stroke:#000000; stroke-width:39.3701; stroke-opacity:1; 
stroke-linecap:round; stroke-linejoin:round;">
</g>
<g style="fill:#000000; fill-opacity:1.0; 
stroke:#000000; stroke-width:551.181; stroke-opacity:1; 
stroke-linecap:round; stroke-linejoin:round;">
</g>
<g style="fill:#000000; fill-opacity:0.0; 
stroke:#000000; stroke-width:551.181; stroke-opacity:1; 
stroke-linecap:round; stroke-linejoin:round;">
<path d="M13236 9055
L13236 9055
" />
<path d="M13236 7086
L13236 7086
" />
</g>
<g style="fill:#000000; fill-opacity:1.0; 
stroke:#000000; stroke-width:0; stroke-opacity:1; 
stroke-linecap:round; stroke-linejoin:round;">
<circle cx="10236.2" cy="7086.61" r="275.591" /> 
</g>
<g style="fill:#000000; fill-opacity:1.0; 
stroke:#000000; stroke-width:39.3701; stroke-opacity:1; 
stroke-linecap:round; stroke-linejoin:round;">
</g>
<g style="fill:#000000; fill-opacity:1.0; 
stroke:#000000; stroke-width:0; stroke-opacity:1; 
stroke-linecap:round; stroke-linejoin:round;">
<circle cx="15551.2" cy="17322.8" r="314.961" /> 
</g>
<g style="fill:#000000; fill-opacity:1.0; 
stroke:#000000; stroke-width:39.3701; stroke-opacity:1; 
stroke-linecap:round; stroke-linejoin:round;">
</g>
<g style="fill:#000000; fill-opacity:1.0; 
stroke:#000000; stroke-width:0; stroke-opacity:1; 
stroke-linecap:round; stroke-linejoin:round;">
<circle cx="15551.2" cy="15354.3" r="314.961" /> 
</g>
<g style="fill:#000000; fill-opacity:1.0; 
stroke:#000000; stroke-width:39.3701; stroke-opacity:1; 
stroke-linecap:round; stroke-linejoin:round;">
</g>
<g style="fill:#000000; fill-opacity:1.0; 
stroke:#000000; stroke-width:0; stroke-opacity:1; 
stroke-linecap:round; stroke-linejoin:round;">
<circle cx="10826.8" cy="13582.7" r="157.48" /> 
</g>
<g style="fill:#000000; fill-opacity:1.0; 
stroke:#000000; stroke-width:39.3701; stroke-opacity:1; 
stroke-linecap:round; stroke-linejoin:round;">
</g>
<g style="fill:#000000; fill-opacity:1.0; 
stroke:#000000; stroke-width:0; stroke-opacity:1; 
stroke-linecap:round; stroke-linejoin:round;">
<circle cx="14763.8" cy="15354.3" r="157.48" /> 
</g>
<g style="fill:#000000; fill-opacity:1.0; 
stroke:#000000; stroke-width:39.3701; stroke-opacity:1; 
stroke-linecap:round; stroke-linejoin:round;">
</g>
<g style="fill:#000000; fill-opacity:1.0; 
stroke:#000000; stroke-width:0; stroke-opacity:1; 
stroke-linecap:round; stroke-linejoin:round;">
<circle cx="14370.1" cy="15354.3" r="157.48" /> 
</g>
<g style="fill:#000000; fill-opacity:1.0; 
stroke:#000000; stroke-width:39.3701; stroke-opacity:1; 
stroke-linecap:round; stroke-linejoin:round;">
</g>
<g style="fill:#000000; fill-opacity:1.0; 
stroke:#000000; stroke-width:0; stroke-opacity:1; 
stroke-linecap:round; stroke-linejoin:round;">
<circle cx="11220.5" cy="13976.4" r="157.48" /> 
</g>
<g style="fill:#000000; fill-opacity:1.0; 
stroke:#000000; stroke-width:39.3701; stroke-opacity:1; 
stroke-linecap:round; stroke-linejoin:round;">
</g>
<g style="fill:#000000; fill-opacity:1.0; 
stroke:#000000; stroke-width:0; stroke-opacity:1; 
stroke-linecap:round; stroke-linejoin:round;">
<circle cx="9055.12" cy="18307.1" r="157.48" /> 
</g>
<g style="fill:#000000; fill-opacity:1.0; 
stroke:#000000; stroke-width:39.3701; stroke-opacity:1; 
stroke-linecap:round; stroke-linejoin:round;">
</g>
<g style="fill:#000000; fill-opacity:1.0; 
stroke:#000000; stroke-width:0; stroke-opacity:1; 
stroke-linecap:round; stroke-linejoin:round;">
<circle cx="12992.1" cy="18307.1" r="157.48" /> 
</g>
<g style="fill:#000000; fill-opacity:1.0; 
stroke:#000000; stroke-width:39.3701; stroke-opacity:1; 
stroke-linecap:round; stroke-linejoin:round;">
</g>
<g style="fill:#000000; fill-opacity:1.0; 
stroke:#000000; stroke-width:0; stroke-opacity:1; 
stroke-linecap:round; stroke-linejoin:round;">
<circle cx="10538.1" cy="16233.6" r="157.48" /> 
</g>
<g style="fill:#000000; fill-opacity:1.0; 
stroke:#000000; stroke-width:39.3701; stroke-opacity:1; 
stroke-linecap:round; stroke-linejoin:round;">
</g>
<g style="fill:#000000; fill-opacity:1.0; 
stroke:#000000; stroke-width:0; stroke-opacity:1; 
stroke-linecap:round; stroke-linejoin:round;">
<circle cx="11417.3" cy="15354.3" r="157.48" /> 
</g>
<g style="fill:#000000; fill-opacity:1.0; 
stroke:#000000; stroke-width:39.3701; stroke-opacity:1; 
stroke-linecap:round; stroke-linejoin:round;">
</g>
<g style="fill:#000000; fill-opacity:1.0; 
stroke:#000000; stroke-width:0; stroke-opacity:1; 
stroke-linecap:round; stroke-linejoin:round;">
<circle cx="12992.1" cy="18897.6" r="157.48" /> 
</g>
<g style="fill:#000000; fill-opacity:1.0; 
stroke:#000000; stroke-width:39.3701; stroke-opacity:1; 
stroke-linecap:round; stroke-linejoin:round;">
</g>
<g style="fill:#000000; fill-opacity:1.0; 
stroke:#000000; stroke-width:0; stroke-opacity:1; 
stroke-linecap:round; stroke-linejoin:round;">
<circle cx="12007.9" cy="18897.6" r="157.48" /> 
</g>
<g style="fill:#000000; fill-opacity:1.0; 
stroke:#000000; stroke-width:39.3701; stroke-opacity:1; 
stroke-linecap:round; stroke-linejoin:round;">
</g>
<g style="fill:#000000; fill-opacity:1.0; 
stroke:#000000; stroke-width:295.276; stroke-opacity:1; 
stroke-linecap:round; stroke-linejoin:round;">
</g>
<g style="fill:#000000; fill-opacity:0.0; 
stroke:#000000; stroke-width:295.276; stroke-opacity:1; 
stroke-linecap:round; stroke-linejoin:round;">
<path d="M10826 13582
L11220 13976
" />
<path d="M11220 13976
L12598 15354
" />
<path d="M12598 15354
L14763 15354
" />
</g>
<g style="fill:#000000; fill-opacity:0.0; 
stroke:#000000; stroke-width:137.795; stroke-opacity:1; 
stroke-linecap:round; stroke-linejoin:round;">
<path d="M9055 18307
L12992 18307
" />
<path d="M10538 16233
L11417 15354
" />
<path d="M12992 18897
L12007 18897
" />
</g>
<g style="fill:#000000; fill-opacity:1.0; 
stroke:#000000; stroke-width:100; stroke-opacity:1; 
stroke-linecap:round; stroke-linejoin:round;">
<polyline style="fill-rule:evenodd;"
points="35153,25311
20715,25311
20715,23353
32112,23353
32112,23891
32318,24388
32698,24768
33195,24974
33733,24974
34230,24768
34611,24388
34816,23891
34816,23353
34611,22855
34230,22475
33733,22269
33195,22269
32698,22475
32318,22855
32112,23353
20715,23353
20716,20584
21452,20584
21452,20866
21490,20958
21561,21028
21653,21066
21934,21066
21997,21004
21997,20522
21515,20522
21452,20584
20716,20584
20716,20078
21452,20078
21452,20359
21515,20422
21997,20422
21997,19940
22097,19940
22097,20422
22105,20422
22105,20522
22097,20522
22097,21004
22159,21066
22441,21066
22533,21028
22603,20958
22625,20906
22694,20976
22913,21066
23149,21066
23368,20976
23535,20809
23625,20590
23625,20584
24996,20584
24996,20866
25034,20958
25104,21028
25196,21066
25478,21066
25540,21004
25540,20522
25058,20522
24996,20584
23625,20584
23625,20354
23535,20135
23478,20078
24996,20078
24996,20359
25058,20422
25540,20422
25540,19940
25640,19940
25640,20422
25648,20422
25648,20522
25640,20522
25640,21004
25703,21066
25984,21066
26076,21028
26146,20958
26168,20906
26238,20976
26456,21066
26693,21066
26911,20976
27078,20809
27169,20590
27169,20584
28539,20584
28539,20866
28577,20958
28647,21028
28739,21066
29021,21066
29083,21004
29083,20522
28601,20522
28539,20584
27169,20584
27169,20354
27078,20135
27021,20078
28539,20078
28539,20359
28601,20422
29083,20422
29083,19940
29183,19940
29183,20422
29191,20422
29191,20522
29183,20522
29183,21004
29246,21066
29528,21066
29619,21028
29690,20958
29711,20906
29781,20976
29999,21066
30236,21066
30454,20976
30622,20809
30712,20590
30712,20584
32082,20584
32082,20866
32120,20958
32191,21028
32282,21066
32564,21066
32627,21004
32627,20522
32145,20522
32082,20584
30712,20584
30712,20354
30622,20135
30564,20078
32082,20078
32082,20359
32145,20422
32627,20422
32627,19940
32727,19940
32727,20422
32735,20422
32735,20522
32727,20522
32727,21004
32789,21066
33071,21066
33163,21028
33233,20958
33255,20906
33324,20976
33543,21066
33779,21066
33998,20976
34165,20809
34255,20590
34255,20354
34165,20135
33998,19968
33779,19877
33543,19877
33324,19968
33255,20038
33233,19986
33163,19916
33071,19877
32789,19877
32727,19940
32627,19940
32564,19877
32282,19877
32191,19916
32120,19986
32082,20078
30564,20078
30454,19968
30236,19877
29999,19877
29781,19968
29711,20038
29690,19986
29619,19916
29528,19877
29246,19877
29183,19940
29083,19940
29021,19877
28739,19877
28647,19916
28577,19986
28539,20078
27021,20078
26911,19968
26693,19877
26456,19877
26238,19968
26168,20038
26146,19986
26076,19916
25984,19877
25703,19877
25640,19940
25540,19940
25478,19877
25196,19877
25104,19916
25034,19986
24996,20078
23478,20078
23368,19968
23149,19877
22913,19877
22694,19968
22625,20038
22603,19986
22533,19916
22441,19877
22159,19877
22097,19940
21997,19940
21934,19877
21653,19877
21561,19916
21490,19986
21452,20078
20716,20078
20717,17435
21452,17435
21452,17717
21490,17808
21561,17879
21653,17917
21934,17917
21997,17854
21997,17372
21515,17372
21452,17435
20717,17435
20717,16928
21452,16928
21452,17210
21515,17272
21997,17272
21997,16790
22097,16790
22097,17272
22105,17272
22105,17372
22097,17372
22097,17854
22159,17917
22441,17917
22533,17879
22603,17808
22625,17757
22694,17826
22913,17917
23149,17917
23368,17826
23535,17659
23625,17441
23625,17435
24996,17435
24996,17717
25034,17808
25104,17879
25196,17917
25478,17917
25540,17854
25540,17372
25058,17372
24996,17435
23625,17435
23625,17204
23535,16986
23478,16928
24996,16928
24996,17210
25058,17272
25540,17272
25540,16790
25640,16790
25640,17272
25648,17272
25648,17372
25640,17372
25640,17854
25703,17917
25984,17917
26076,17879
26146,17808
26168,17757
26238,17826
26456,17917
26693,17917
26911,17826
27078,17659
27169,17441
27169,17435
28539,17435
28539,17717
28577,17808
28647,17879
28739,17917
29021,17917
29083,17854
29083,17372
28601,17372
28539,17435
27169,17435
27169,17204
27078,16986
27021,16928
28539,16928
28539,17210
28601,17272
29083,17272
29083,16790
29183,16790
29183,17272
29191,17272
29191,17372
29183,17372
29183,17854
29246,17917
29528,17917
29619,17879
29690,17808
29711,17757
29781,17826
29999,17917
30236,17917
30454,17826
30622,17659
30712,17441
30712,17435
32082,17435
32082,17717
32120,17808
32191,17879
32282,17917
32564,17917
32627,17854
32627,17372
32145,17372
32082,17435
30712,17435
30712,17204
30622,16986
30564,16928
32082,16928
32082,17210
32145,17272
32627,17272
32627,16790
32727,16790
32727,17272
32735,17272
32735,17372
32727,17372
32727,17854
32789,17917
33071,17917
33163,17879
33233,17808
33255,17757
33324,17826
33543,17917
33779,17917
33998,17826
34165,17659
34255,17441
34255,17204
34165,16986
33998,16818
33779,16728
33543,16728
33324,16818
33255,16888
33233,16836
33163,16766
33071,16728
32789,16728
32727,16790
32627,16790
32564,16728
32282,16728
32191,16766
32120,16836
32082,16928
30564,16928
30454,16818
30236,16728
29999,16728
29781,16818
29711,16888
29690,16836
29619,16766
29528,16728
29246,16728
29183,16790
29083,16790
29021,16728
28739,16728
28647,16766
28577,16836
28539,16928
27021,16928
26911,16818
26693,16728
26456,16728
26238,16818
26168,16888
26146,16836
26076,16766
25984,16728
25703,16728
25640,16790
25540,16790
25478,16728
25196,16728
25104,16766
25034,16836
24996,16928
23478,16928
23368,16818
23149,16728
22913,16728
22694,16818
22625,16888
22603,16836
22533,16766
22441,16728
22159,16728
22097,16790
21997,16790
21934,16728
21653,16728
21561,16766
21490,16836
21452,16928
20717,16928
20717,14285
21452,14285
21452,14567
21490,14659
21561,14729
21653,14767
21934,14767
21997,14705
21997,14223
21515,14223
21452,14285
20717,14285
20718,13779
21452,13779
21452,14060
21515,14123
21997,14123
21997,13641
22097,13641
22097,14123
22105,14123
22105,14223
22097,14223
22097,14705
22159,14767
22441,14767
22533,14729
22603,14659
22625,14607
22694,14677
22913,14767
23149,14767
23368,14677
23535,14509
23625,14291
23625,14285
24996,14285
24996,14567
25034,14659
25104,14729
25196,14767
25478,14767
25540,14705
25540,14223
25058,14223
24996,14285
23625,14285
23625,14054
23535,13836
23478,13779
24996,13779
24996,14060
25058,14123
25540,14123
25540,13641
25640,13641
25640,14123
25648,14123
25648,14223
25640,14223
25640,14705
25703,14767
25984,14767
26076,14729
26146,14659
26168,14607
26238,14677
26456,14767
26693,14767
26911,14677
27078,14509
27169,14291
27169,14285
28539,14285
28539,14567
28577,14659
28647,14729
28739,14767
29021,14767
29083,14705
29083,14223
28601,14223
28539,14285
27169,14285
27169,14054
27078,13836
27021,13779
28539,13779
28539,14060
28601,14123
29083,14123
29083,13641
29183,13641
29183,14123
29191,14123
29191,14223
29183,14223
29183,14705
29246,14767
29528,14767
29619,14729
29690,14659
29711,14607
29781,14677
29999,14767
30236,14767
30454,14677
30622,14509
30712,14291
30712,14285
32082,14285
32082,14567
32120,14659
32191,14729
32282,14767
32564,14767
32627,14705
32627,14223
32145,14223
32082,14285
30712,14285
30712,14054
30622,13836
30564,13779
32082,13779
32082,14060
32145,14123
32627,14123
32627,13641
32727,13641
32727,14123
32735,14123
32735,14223
32727,14223
32727,14705
32789,14767
33071,14767
33163,14729
33233,14659
33255,14607
33324,14677
33543,14767
33779,14767
33998,14677
34165,14509
34255,14291
34255,14054
34165,13836
33998,13669
33779,13578
33543,13578
33324,13669
33255,13738
33233,13687
33163,13616
33071,13578
32789,13578
32727,13641
32627,13641
32564,13578
32282,13578
32191,13616
32120,13687
32082,13779
30564,13779
30454,13669
30236,13578
29999,13578
29781,13669
29711,13738
29690,13687
29619,13616
29528,13578
29246,13578
29183,13641
29083,13641
29021,13578
28739,13578
28647,13616
28577,13687
28539,13779
27021,13779
26911,13669
26693,13578
26456,13578
26238,13669
26168,13738
26146,13687
26076,13616
25984,13578
25703,13578
25640,13641
25540,13641
25478,13578
25196,13578
25104,13616
25034,13687
24996,13779
23478,13779
23368,13669
23149,13578
22913,13578
22694,13669
22625,13738
22603,13687
22533,13616
22441,13578
22159,13578
22097,13641
21997,13641
21934,13578
21653,13578
21561,13616
21490,13687
21452,13779
20718,13779
20718,11136
21452,11136
21452,11417
21490,11509
21561,11580
21653,11618
21934,11618
21997,11555
21997,11073
21515,11073
21452,11136
20718,11136
20718,10629
21452,10629
21452,10911
21515,10973
21997,10973
21997,10491
22097,10491
22097,10973
22105,10973
22105,11073
22097,11073
22097,11555
22159,11618
22441,11618
22533,11580
22603,11509
22625,11457
22694,11527
22913,11618
23149,11618
23368,11527
23535,11360
23625,11141
23625,11136
24996,11136
24996,11417
25034,11509
25104,11580
25196,11618
25478,11618
25540,11555
25540,11073
25058,11073
24996,11136
23625,11136
23625,10905
23535,10686
23478,10629
24996,10629
24996,10911
25058,10973
25540,10973
25540,10491
25640,10491
25640,10973
25648,10973
25648,11073
25640,11073
25640,11555
25703,11618
25984,11618
26076,11580
26146,11509
26168,11457
26238,11527
26456,11618
26693,11618
26911,11527
27078,11360
27169,11141
27169,11136
28539,11136
28539,11417
28577,11509
28647,11580
28739,11618
29021,11618
29083,11555
29083,11073
28601,11073
28539,11136
27169,11136
27169,10905
27078,10686
27021,10629
28539,10629
28539,10911
28601,10973
29083,10973
29083,10491
29183,10491
29183,10973
29191,10973
29191,11073
29183,11073
29183,11555
29246,11618
29528,11618
29619,11580
29690,11509
29711,11457
29781,11527
29999,11618
30236,11618
30454,11527
30622,11360
30712,11141
30712,11136
32082,11136
32082,11417
32120,11509
32191,11580
32282,11618
32564,11618
32627,11555
32627,11073
32145,11073
32082,11136
30712,11136
30712,10905
30622,10686
30564,10629
32082,10629
32082,10911
32145,10973
32627,10973
32627,10491
32727,10491
32727,10973
32735,10973
32735,11073
32727,11073
32727,11555
32789,11618
33071,11618
33163,11580
33233,11509
33255,11457
33324,11527
33543,11618
33779,11618
33998,11527
34165,11360
34255,11141
34255,10905
34165,10686
33998,10519
33779,10429
33543,10429
33324,10519
33255,10589
33233,10537
33163,10467
33071,10429
32789,10429
32727,10491
32627,10491
32564,10429
32282,10429
32191,10467
32120,10537
32082,10629
30564,10629
30454,10519
30236,10429
29999,10429
29781,10519
29711,10589
29690,10537
29619,10467
29528,10429
29246,10429
29183,10491
29083,10491
29021,10429
28739,10429
28647,10467
28577,10537
28539,10629
27021,10629
26911,10519
26693,10429
26456,10429
26238,10519
26168,10589
26146,10537
26076,10467
25984,10429
25703,10429
25640,10491
25540,10491
25478,10429
25196,10429
25104,10467
25034,10537
24996,10629
23478,10629
23368,10519
23149,10429
22913,10429
22694,10519
22625,10589
22603,10537
22533,10467
22441,10429
22159,10429
22097,10491
21997,10491
21934,10429
21653,10429
21561,10467
21490,10537
21452,10629
20718,10629
20719,8661
20715,8642
20704,8626
20310,8232
20294,8221
20275,8217
14173,8217
14154,8221
14137,8232
13744,8626
13733,8642
13729,8661
13729,8847
13615,8676
13441,8560
13287,8529
13184,8529
13031,8560
12857,8676
12741,8850
12700,9055
12741,9260
12857,9434
13031,9550
13184,9580
13287,9580
13441,9550
13615,9434
13729,9262
13729,11396
13168,11957
12887,11957
12887,11825
12825,11762
12451,11762
12451,11770
12351,11770
12351,11762
11977,11762
11915,11825
11915,11957
9323,11957
9389,11907
9555,11623
9580,11529
9545,11426
11915,11426
11915,11600
11977,11662
12351,11662
12351,11288
12451,11288
12451,11662
12825,11662
12887,11600
12887,11426
12849,11334
12779,11264
12687,11226
12514,11226
12451,11288
12351,11288
12289,11226
12115,11226
12023,11264
11953,11334
11915,11426
9545,11426
9536,11398
8612,11398
8612,11406
8512,11406
8512,11398
7589,11398
7545,11529
7570,11623
7736,11907
7802,11957
6185,11957
6185,11167
7545,11167
7589,11298
8512,11298
8512,10507
8612,10507
8612,11298
9536,11298
9580,11167
9555,11073
9389,10789
9127,10591
8809,10507
8612,10507
8512,10507
8316,10507
7998,10591
7736,10789
7570,11073
7545,11167
6185,11167
6185,7605
6521,7605
6521,8143
6727,8640
7107,9020
7605,9226
8143,9226
8640,9020
8709,8950
9710,8950
9710,9159
9790,9352
9938,9500
10131,9580
10340,9580
10533,9500
10681,9352
10761,9159
10761,8950
10681,8757
10533,8609
10340,8529
10131,8529
9938,8609
9790,8757
9710,8950
8709,8950
9020,8640
9226,8143
9226,7605
9164,7454
9938,7454
9963,7547
10160,7617
10369,7605
10509,7547
10533,7454
10236,7157
9938,7454
9164,7454
9020,7107
8923,7010
9705,7010
9717,7219
9775,7359
9868,7384
10165,7086
10306,7086
10604,7384
10697,7359
10766,7162
10762,7086
12700,7086
12741,7291
12857,7465
13031,7581
13184,7612
13287,7612
13441,7581
13615,7465
13731,7291
13750,7197
13750,7206
13842,7428
14012,7598
14234,7690
14474,7690
14696,7598
14763,7532
14764,7538
14819,7621
14902,7676
15000,7695
15708,7695
15806,7676
15888,7621
15899,7605
32112,7605
32112,8143
32318,8640
32698,9020
33195,9226
33733,9226
34230,9020
34611,8640
34816,8143
34816,7605
34611,7107
34230,6727
33733,6521
33195,6521
32698,6727
32318,7107
32112,7605
15899,7605
15944,7538
15963,7440
15963,6732
15944,6634
15888,6552
15806,6496
15708,6477
15000,6477
14902,6496
14819,6552
14764,6634
14763,6640
14696,6574
14474,6482
14234,6482
14012,6574
13842,6744
13750,6966
13750,6975
13731,6881
13615,6707
13441,6591
13287,6561
13184,6561
13031,6591
12857,6707
12741,6881
12700,7086
10762,7086
10755,6953
10697,6813
10604,6789
10306,7086
10165,7086
9868,6789
9775,6813
9705,7010
8923,7010
8640,6727
8617,6718
9938,6718
10236,7015
10533,6718
10509,6625
10312,6556
10103,6567
9963,6625
9938,6718
8617,6718
8143,6521
7605,6521
7107,6727
6727,7107
6521,7605
6185,7605
6185,6185
35153,6185
35153,25311
" /> 
<polyline style="fill-rule:evenodd;"
points="20422,8878
20422,9656
20414,9614
20289,9427
20102,9302
19937,9269
19826,9269
19661,9302
19474,9427
19349,9614
19305,9834
19349,10055
19474,10241
19613,10334
19474,10427
19349,10614
19305,10834
19349,11055
19474,11241
19613,11334
19474,11427
19349,11614
19305,11834
19349,12055
19474,12241
19613,12334
19474,12427
19349,12614
19305,12834
19349,13055
19474,13241
19613,13334
19474,13427
19349,13614
19305,13834
19349,14055
19474,14241
19613,14334
19474,14427
19349,14614
19305,14834
19349,15055
19474,15241
19613,15334
19474,15427
19349,15614
19305,15834
19349,16055
19474,16241
19613,16334
19474,16427
19349,16614
19305,16834
19349,17055
19474,17241
19613,17334
19474,17427
19349,17614
19305,17834
19349,18055
19474,18241
19613,18334
19474,18427
19349,18614
19305,18834
19349,19055
19474,19241
19613,19334
19474,19427
19349,19614
19305,19834
19349,20055
19474,20241
19613,20334
19474,20427
19349,20614
19305,20834
19349,21055
19474,21241
19613,21334
19474,21427
19349,21614
19305,21834
19349,22055
19474,22241
19522,22273
19469,22284
19386,22339
19331,22422
19312,22519
19312,23149
19331,23247
19386,23329
19469,23385
19566,23404
20196,23404
20294,23385
20377,23329
20422,23261
20422,25311
6185,25311
6185,23353
6521,23353
6521,23891
6727,24388
7107,24768
7605,24974
8143,24974
8640,24768
9020,24388
9226,23891
9226,23353
9020,22855
8640,22475
8143,22269
7605,22269
7107,22475
6727,22855
6521,23353
6185,23353
6185,21834
14758,21834
14803,22062
14932,22256
14940,22260
14922,22264
14839,22319
14784,22402
14764,22500
14764,23169
14784,23266
14839,23349
14922,23404
15019,23424
15688,23424
15786,23404
15869,23349
15924,23266
15943,23169
15943,22500
15924,22402
15869,22319
15786,22264
15768,22260
15775,22256
15905,22062
15950,21834
15905,21606
15775,21413
15650,21329
15701,21305
15854,21136
15921,20975
15874,20884
15404,20884
15404,20892
15304,20892
15304,20884
14834,20884
14786,20975
14853,21136
15007,21305
15058,21329
14932,21413
14803,21606
14758,21834
6185,21834
6185,20694
14786,20694
14834,20784
15304,20784
15304,20314
15404,20314
15404,20784
15874,20784
15921,20694
15854,20532
15701,20364
15494,20267
15404,20314
15304,20314
15213,20267
15007,20364
14853,20532
14786,20694
6185,20694
6185,19733
6985,19733
6985,20422
7005,20519
7060,20602
7143,20657
7240,20677
7929,20677
8027,20657
8110,20602
8165,20519
8166,20515
8232,20581
8451,20672
8687,20672
8906,20581
9061,20426
9217,20581
9435,20672
9672,20672
9890,20581
10045,20426
10201,20581
10419,20672
10656,20672
10874,20581
11030,20426
11185,20581
11404,20672
11640,20672
11859,20581
12014,20426
12169,20581
12388,20672
12624,20672
12843,20581
13010,20414
13101,20195
13101,19959
13010,19740
12843,19573
12624,19483
12388,19483
12169,19573
12014,19729
11859,19573
11640,19483
11404,19483
11185,19573
11030,19729
10874,19573
10656,19483
10419,19483
10201,19573
10045,19729
9890,19573
9672,19483
9435,19483
9217,19573
9061,19729
8906,19573
8687,19483
8451,19483
8232,19573
8166,19640
8165,19635
8110,19552
8027,19497
7929,19478
7240,19478
7143,19497
7060,19552
7005,19635
6985,19733
6185,19733
6185,17400
6990,17400
6990,17636
7081,17855
7248,18022
7467,18113
7703,18113
7922,18022
8077,17867
8232,18022
8451,18113
8687,18113
8695,18109
8647,18226
8647,18388
8709,18537
8824,18652
8974,18714
9136,18714
9285,18652
9312,18625
11703,18625
11662,18666
11600,18816
11600,18978
11662,19128
11777,19243
11926,19305
12088,19305
12238,19243
12265,19216
12734,19216
12761,19243
12911,19305
13073,19305
13222,19243
13337,19128
13399,18978
13399,18816
13337,18666
13273,18602
13337,18537
13399,18388
13399,18226
13337,18076
13222,17961
13096,17909
13105,17863
13105,17719
15225,17719
15254,17816
15465,17892
15690,17881
15804,17834
16305,17834
16349,18055
16474,18241
16613,18334
16474,18427
16349,18614
16305,18834
16349,19055
16474,19241
16613,19334
16474,19427
16349,19614
16305,19834
16349,20055
16474,20241
16613,20334
16474,20427
16349,20614
16305,20834
16349,21055
16474,21241
16613,21334
16474,21427
16349,21614
16305,21834
16349,22055
16474,22241
16613,22334
16474,22427
16349,22614
16305,22834
16349,23055
16474,23241
16661,23366
16826,23399
16937,23399
17102,23366
17289,23241
17414,23055
17457,22834
17414,22614
17289,22427
17150,22334
17289,22241
17414,22055
17457,21834
17414,21614
17289,21427
17150,21334
17289,21241
17414,21055
17457,20834
17414,20614
17289,20427
17150,20334
17289,20241
17414,20055
17457,19834
17414,19614
17289,19427
17150,19334
17289,19241
17414,19055
17457,18834
17414,18614
17289,18427
17150,18334
17289,18241
17414,18055
17457,17834
17414,17614
17289,17427
17138,17326
17218,17288
17366,17124
17429,16972
17381,16884
16931,16884
16931,16892
16831,16892
16831,16884
16381,16884
16333,16972
16397,17124
16545,17288
16625,17326
16474,17427
16349,17614
16305,17834
15804,17834
15848,17816
15877,17719
15551,17393
15225,17719
13105,17719
13105,17237
14981,17237
14992,17461
15057,17619
15154,17648
15480,17322
15621,17322
15947,17648
16044,17619
16120,17408
16110,17183
16044,17025
15947,16996
15621,17322
15480,17322
15154,16996
15057,17025
14981,17237
13105,17237
13105,17174
13086,17076
13031,16993
12948,16938
12885,16926
15225,16926
15551,17252
15877,16926
15848,16829
15636,16753
15412,16763
15254,16829
15225,16926
12885,16926
12851,16919
12162,16919
12064,16938
11981,16993
11926,17076
11925,17081
11859,17014
11640,16924
11404,16924
11185,17014
11030,17169
10874,17014
10656,16924
10419,16924
10201,17014
10045,17169
9890,17014
9672,16924
9435,16924
9217,17014
9061,17169
8906,17014
8687,16924
8451,16924
8232,17014
8077,17169
7922,17014
7703,16924
7467,16924
7248,17014
7081,17181
6990,17400
6185,17400
6185,16152
10130,16152
10130,16314
10192,16464
10307,16579
10457,16641
10619,16641
10768,16579
10883,16464
10945,16314
10945,16277
11460,15761
11498,15761
11648,15699
11762,15585
11824,15435
11824,15273
11762,15123
11648,15008
11498,14946
11336,14946
11186,15008
11071,15123
11009,15273
11009,15310
10494,15826
10457,15826
10307,15888
10192,16002
10130,16152
6185,16152
6185,13877
7520,13877
7520,15059
7540,15156
7595,15239
7678,15294
7775,15313
9350,15313
9447,15294
9530,15239
9585,15156
9605,15059
9605,13877
9585,13780
9530,13697
9447,13642
9350,13623
9184,13623
9344,13501
10419,13501
10419,13663
10481,13813
10595,13928
10619,13937
10865,14183
10875,14207
10989,14321
11013,14331
12289,15607
12311,15641
12344,15663
12344,15663
12399,15699
12443,15728
12559,15751
12559,15751
12598,15759
12637,15751
14265,15751
14289,15761
14451,15761
14474,15751
14658,15751
14682,15761
14844,15761
14994,15699
15056,15637
15072,15674
15231,15833
15438,15919
15663,15919
15871,15833
16030,15674
16116,15466
16116,15241
16030,15034
15871,14875
15663,14789
15438,14789
15231,14875
15072,15034
15056,15071
14994,15008
14844,14946
14682,14946
14658,14956
14474,14956
14451,14946
14289,14946
14265,14956
12763,14956
11961,14155
15025,14155
15025,14364
15105,14557
15253,14705
15446,14785
15655,14785
15848,14705
15996,14557
16076,14364
16076,14155
15996,13962
15848,13814
15655,13734
15446,13734
15253,13814
15105,13962
15025,14155
11961,14155
11575,13769
11565,13745
11451,13630
11427,13621
11182,13375
11172,13351
11057,13237
10907,13175
10745,13175
10595,13237
10481,13351
10419,13501
9344,13501
9389,13467
9555,13183
9580,13089
9536,12958
8612,12958
8612,12966
8512,12966
8512,12958
7589,12958
7545,13089
7570,13183
7736,13467
7941,13623
7775,13623
7678,13642
7595,13697
7540,13780
7520,13877
6185,13877
6185,12254
7861,12254
7736,12349
7570,12633
7545,12727
7589,12858
8512,12858
8512,12850
8612,12850
8612,12858
9536,12858
9542,12839
12132,12839
12152,12928
12335,12991
12528,12979
12651,12928
12670,12839
12401,12570
12132,12839
9542,12839
9580,12727
9555,12633
9389,12349
9264,12254
11971,12254
11910,12433
11922,12626
11973,12749
12061,12768
12330,12500
12325,12494
12396,12423
12401,12429
12407,12423
12477,12494
12472,12500
12741,12768
12829,12749
12892,12566
12880,12373
12831,12254
13385,12254
13404,12250
13421,12240
14011,11649
14022,11633
14026,11614
14026,11391
15042,11391
15131,11576
15284,11712
15419,11768
15501,11720
15501,11310
15601,11310
15601,11720
15682,11768
15818,11712
15971,11576
16060,11391
16011,11310
15601,11310
15501,11310
15090,11310
15042,11391
14026,11391
14026,11128
15042,11128
15090,11210
15501,11210
15501,10799
15601,10799
15601,11210
16011,11210
16060,11128
15971,10943
15818,10807
15682,10751
15601,10799
15501,10799
15419,10751
15284,10807
15131,10943
15042,11128
14026,11128
14026,9834
16305,9834
16349,10055
16474,10241
16613,10334
16474,10427
16349,10614
16305,10834
16349,11055
16474,11241
16613,11334
16474,11427
16349,11614
16305,11834
16349,12055
16474,12241
16613,12334
16474,12427
16349,12614
16305,12834
16349,13055
16474,13241
16613,13334
16474,13427
16349,13614
16305,13834
16349,14055
16474,14241
16613,14334
16474,14427
16349,14614
16305,14834
16349,15055
16474,15241
16613,15334
16474,15427
16349,15614
16305,15834
16349,16055
16474,16241
16625,16342
16545,16380
16397,16544
16333,16697
16381,16784
16831,16784
16831,16776
16931,16776
16931,16784
17381,16784
17429,16697
17366,16544
17218,16380
17138,16342
17289,16241
17414,16055
17457,15834
17414,15614
17289,15427
17150,15334
17289,15241
17414,15055
17457,14834
17414,14614
17289,14427
17150,14334
17289,14241
17414,14055
17457,13834
17414,13614
17289,13427
17150,13334
17289,13241
17414,13055
17457,12834
17414,12614
17289,12427
17150,12334
17289,12241
17414,12055
17457,11834
17414,11614
17289,11427
17150,11334
17289,11241
17414,11055
17457,10834
17414,10614
17289,10427
17150,10334
17289,10241
17414,10055
17457,9834
17414,9614
17289,9427
17102,9302
16937,9269
16826,9269
16661,9302
16474,9427
16349,9614
16305,9834
14026,9834
14026,9573
14234,9659
14474,9659
14696,9567
14766,9498
14788,9551
14858,9621
14950,9659
15241,9659
15304,9596
15304,9105
15404,9105
15404,9596
15466,9659
15758,9659
15850,9621
15920,9551
15958,9459
15958,9167
15896,9105
15404,9105
15304,9105
15296,9105
15296,9005
15304,9005
15304,8997
15404,8997
15404,9005
15896,9005
15958,8942
15958,8651
15920,8559
15875,8514
20058,8514
20422,8878
" /> 
</g> 
</svg>
