<?xml version="1.0" standalone="no"?>
 <!DOCTYPE svg PUBLIC "-//W3C//DTD SVG 1.1//EN" 
 "http://www.w3.org/Graphics/SVG/1.1/DTD/svg11.dtd"> 
<svg xmlns="http://www.w3.org/2000/svg" version="1.1" 
    width="29.7002cm" height="21.0007cm" viewBox="0 0 116930 82680 ">
<title>SVG Picture created as TLC5940_LED_driver_board-rev_1.0-F.Cu.svg date 2018/12/11 22:23:08 </title>
  <desc>Picture generated by PCBNEW </desc>
<g style="fill:#000000; fill-opacity:1;stroke:#000000; stroke-opacity:1;
stroke-linecap:round; stroke-linejoin:round; "
 transform="translate(0 0) scale(1 1)">
</g>
<g style="fill:#000000; fill-opacity:0.0; 
stroke:#000000; stroke-width:-0.000393701; stroke-opacity:1; 
stroke-linecap:round; stroke-linejoin:round;">
</g>
<g style="fill:#000000; fill-opacity:0.0; 
stroke:#000000; stroke-width:629.921; stroke-opacity:1; 
stroke-linecap:round; stroke-linejoin:round;">
<path d="M16881 22834
L16881 22834
" />
<path d="M19881 9834
L19881 9834
" />
<path d="M16881 21834
L16881 21834
" />
<path d="M19881 10834
L19881 10834
" />
<path d="M16881 20834
L16881 20834
" />
<path d="M19881 11834
L19881 11834
" />
<path d="M16881 19834
L16881 19834
" />
<path d="M19881 12834
L19881 12834
" />
<path d="M16881 18834
L16881 18834
" />
<path d="M19881 13834
L19881 13834
" />
<path d="M16881 17834
L16881 17834
" />
<path d="M19881 14834
L19881 14834
" />
<path d="M16881 16834
L16881 16834
" />
<path d="M19881 15834
L19881 15834
" />
<path d="M16881 15834
L16881 15834
" />
<path d="M19881 16834
L19881 16834
" />
<path d="M16881 14834
L16881 14834
" />
<path d="M19881 17834
L19881 17834
" />
<path d="M16881 13834
L16881 13834
" />
<path d="M19881 18834
L19881 18834
" />
<path d="M16881 12834
L16881 12834
" />
<path d="M19881 19834
L19881 19834
" />
<path d="M16881 11834
L16881 11834
" />
<path d="M19881 20834
L19881 20834
" />
<path d="M16881 10834
L16881 10834
" />
<path d="M19881 21834
L19881 21834
" />
<path d="M16881 9834
L16881 9834
" />
</g>
<g style="fill:#000000; fill-opacity:0.0; 
stroke:#000000; stroke-width:0; stroke-opacity:1; 
stroke-linecap:round; stroke-linejoin:round;">
</g>
<g style="fill:#000000; fill-opacity:1.0; 
stroke:#000000; stroke-width:0; stroke-opacity:1; 
stroke-linecap:round; stroke-linejoin:round;">
<polyline style="fill-rule:evenodd;"
points="20196,22519
20196,23149
19566,23149
19566,22519
20196,22519
" /> 
<polyline style="fill-rule:evenodd;"
points="32332,17667
32332,16978
33021,16978
33021,17667
32332,17667
" /> 
<circle cx="33661.4" cy="17322.8" r="344.488" /> 
</g>
<g style="fill:#000000; fill-opacity:1.0; 
stroke:#000000; stroke-width:39.3701; stroke-opacity:1; 
stroke-linecap:round; stroke-linejoin:round;">
</g>
<g style="fill:#000000; fill-opacity:1.0; 
stroke:#000000; stroke-width:0; stroke-opacity:1; 
stroke-linecap:round; stroke-linejoin:round;">
<polyline style="fill-rule:evenodd;"
points="21702,14517
21702,13828
22391,13828
22391,14517
21702,14517
" /> 
<circle cx="23031.5" cy="14173.2" r="344.488" /> 
</g>
<g style="fill:#000000; fill-opacity:1.0; 
stroke:#000000; stroke-width:39.3701; stroke-opacity:1; 
stroke-linecap:round; stroke-linejoin:round;">
</g>
<g style="fill:#000000; fill-opacity:1.0; 
stroke:#000000; stroke-width:0; stroke-opacity:1; 
stroke-linecap:round; stroke-linejoin:round;">
<circle cx="7874.02" cy="7874.02" r="1102.36" /> 
</g>
<g style="fill:#000000; fill-opacity:1.0; 
stroke:#000000; stroke-width:39.3701; stroke-opacity:1; 
stroke-linecap:round; stroke-linejoin:round;">
</g>
<g style="fill:#000000; fill-opacity:1.0; 
stroke:#000000; stroke-width:0; stroke-opacity:1; 
stroke-linecap:round; stroke-linejoin:round;">
<circle cx="33464.6" cy="23622" r="1102.36" /> 
</g>
<g style="fill:#000000; fill-opacity:1.0; 
stroke:#000000; stroke-width:39.3701; stroke-opacity:1; 
stroke-linecap:round; stroke-linejoin:round;">
</g>
<g style="fill:#000000; fill-opacity:1.0; 
stroke:#000000; stroke-width:0; stroke-opacity:1; 
stroke-linecap:round; stroke-linejoin:round;">
<circle cx="7874.02" cy="23622" r="1102.36" /> 
</g>
<g style="fill:#000000; fill-opacity:1.0; 
stroke:#000000; stroke-width:39.3701; stroke-opacity:1; 
stroke-linecap:round; stroke-linejoin:round;">
</g>
<g style="fill:#000000; fill-opacity:1.0; 
stroke:#000000; stroke-width:0; stroke-opacity:1; 
stroke-linecap:round; stroke-linejoin:round;">
<circle cx="12401.6" cy="12500" r="236.22" /> 
</g>
<g style="fill:#000000; fill-opacity:1.0; 
stroke:#000000; stroke-width:39.3701; stroke-opacity:1; 
stroke-linecap:round; stroke-linejoin:round;">
</g>
<g style="fill:#000000; fill-opacity:1.0; 
stroke:#000000; stroke-width:0; stroke-opacity:1; 
stroke-linecap:round; stroke-linejoin:round;">
<polyline style="fill-rule:evenodd;"
points="12165,11476
12637,11476
12637,11948
12165,11948
12165,11476
" /> 
<polyline style="fill-rule:evenodd;"
points="32332,20816
32332,20127
33021,20127
33021,20816
32332,20816
" /> 
<circle cx="33661.4" cy="20472.4" r="344.488" /> 
</g>
<g style="fill:#000000; fill-opacity:1.0; 
stroke:#000000; stroke-width:39.3701; stroke-opacity:1; 
stroke-linecap:round; stroke-linejoin:round;">
</g>
<g style="fill:#000000; fill-opacity:1.0; 
stroke:#000000; stroke-width:0; stroke-opacity:1; 
stroke-linecap:round; stroke-linejoin:round;">
<circle cx="30118.1" cy="20472.4" r="344.488" /> 
</g>
<g style="fill:#000000; fill-opacity:1.0; 
stroke:#000000; stroke-width:39.3701; stroke-opacity:1; 
stroke-linecap:round; stroke-linejoin:round;">
</g>
<g style="fill:#000000; fill-opacity:1.0; 
stroke:#000000; stroke-width:0; stroke-opacity:1; 
stroke-linecap:round; stroke-linejoin:round;">
<polyline style="fill-rule:evenodd;"
points="28789,20816
28789,20127
29478,20127
29478,20816
28789,20816
" /> 
<polyline style="fill-rule:evenodd;"
points="25246,20816
25246,20127
25935,20127
25935,20816
25246,20816
" /> 
<circle cx="26574.8" cy="20472.4" r="344.488" /> 
</g>
<g style="fill:#000000; fill-opacity:1.0; 
stroke:#000000; stroke-width:39.3701; stroke-opacity:1; 
stroke-linecap:round; stroke-linejoin:round;">
</g>
<g style="fill:#000000; fill-opacity:1.0; 
stroke:#000000; stroke-width:0; stroke-opacity:1; 
stroke-linecap:round; stroke-linejoin:round;">
<circle cx="23031.5" cy="20472.4" r="344.488" /> 
</g>
<g style="fill:#000000; fill-opacity:1.0; 
stroke:#000000; stroke-width:39.3701; stroke-opacity:1; 
stroke-linecap:round; stroke-linejoin:round;">
</g>
<g style="fill:#000000; fill-opacity:1.0; 
stroke:#000000; stroke-width:0; stroke-opacity:1; 
stroke-linecap:round; stroke-linejoin:round;">
<polyline style="fill-rule:evenodd;"
points="21702,20816
21702,20127
22391,20127
22391,20816
21702,20816
" /> 
<circle cx="30118.1" cy="17322.8" r="344.488" /> 
</g>
<g style="fill:#000000; fill-opacity:1.0; 
stroke:#000000; stroke-width:39.3701; stroke-opacity:1; 
stroke-linecap:round; stroke-linejoin:round;">
</g>
<g style="fill:#000000; fill-opacity:1.0; 
stroke:#000000; stroke-width:0; stroke-opacity:1; 
stroke-linecap:round; stroke-linejoin:round;">
<polyline style="fill-rule:evenodd;"
points="28789,17667
28789,16978
29478,16978
29478,17667
28789,17667
" /> 
<polyline style="fill-rule:evenodd;"
points="25246,17667
25246,16978
25935,16978
25935,17667
25246,17667
" /> 
<circle cx="26574.8" cy="17322.8" r="344.488" /> 
</g>
<g style="fill:#000000; fill-opacity:1.0; 
stroke:#000000; stroke-width:39.3701; stroke-opacity:1; 
stroke-linecap:round; stroke-linejoin:round;">
</g>
<g style="fill:#000000; fill-opacity:1.0; 
stroke:#000000; stroke-width:0; stroke-opacity:1; 
stroke-linecap:round; stroke-linejoin:round;">
<circle cx="23031.5" cy="17322.8" r="344.488" /> 
</g>
<g style="fill:#000000; fill-opacity:1.0; 
stroke:#000000; stroke-width:39.3701; stroke-opacity:1; 
stroke-linecap:round; stroke-linejoin:round;">
</g>
<g style="fill:#000000; fill-opacity:1.0; 
stroke:#000000; stroke-width:0; stroke-opacity:1; 
stroke-linecap:round; stroke-linejoin:round;">
<polyline style="fill-rule:evenodd;"
points="21702,17667
21702,16978
22391,16978
22391,17667
21702,17667
" /> 
<polyline style="fill-rule:evenodd;"
points="32332,14517
32332,13828
33021,13828
33021,14517
32332,14517
" /> 
<circle cx="33661.4" cy="14173.2" r="344.488" /> 
</g>
<g style="fill:#000000; fill-opacity:1.0; 
stroke:#000000; stroke-width:39.3701; stroke-opacity:1; 
stroke-linecap:round; stroke-linejoin:round;">
</g>
<g style="fill:#000000; fill-opacity:1.0; 
stroke:#000000; stroke-width:0; stroke-opacity:1; 
stroke-linecap:round; stroke-linejoin:round;">
<circle cx="30118.1" cy="14173.2" r="344.488" /> 
</g>
<g style="fill:#000000; fill-opacity:1.0; 
stroke:#000000; stroke-width:39.3701; stroke-opacity:1; 
stroke-linecap:round; stroke-linejoin:round;">
</g>
<g style="fill:#000000; fill-opacity:1.0; 
stroke:#000000; stroke-width:0; stroke-opacity:1; 
stroke-linecap:round; stroke-linejoin:round;">
<polyline style="fill-rule:evenodd;"
points="28789,14517
28789,13828
29478,13828
29478,14517
28789,14517
" /> 
<circle cx="26574.8" cy="14173.2" r="344.488" /> 
</g>
<g style="fill:#000000; fill-opacity:1.0; 
stroke:#000000; stroke-width:39.3701; stroke-opacity:1; 
stroke-linecap:round; stroke-linejoin:round;">
</g>
<g style="fill:#000000; fill-opacity:1.0; 
stroke:#000000; stroke-width:0; stroke-opacity:1; 
stroke-linecap:round; stroke-linejoin:round;">
<polyline style="fill-rule:evenodd;"
points="25246,14517
25246,13828
25935,13828
25935,14517
25246,14517
" /> 
<circle cx="33661.4" cy="11023.6" r="344.488" /> 
</g>
<g style="fill:#000000; fill-opacity:1.0; 
stroke:#000000; stroke-width:39.3701; stroke-opacity:1; 
stroke-linecap:round; stroke-linejoin:round;">
</g>
<g style="fill:#000000; fill-opacity:1.0; 
stroke:#000000; stroke-width:0; stroke-opacity:1; 
stroke-linecap:round; stroke-linejoin:round;">
<polyline style="fill-rule:evenodd;"
points="32332,11368
32332,10679
33021,10679
33021,11368
32332,11368
" /> 
<polyline style="fill-rule:evenodd;"
points="28789,11368
28789,10679
29478,10679
29478,11368
28789,11368
" /> 
<circle cx="30118.1" cy="11023.6" r="344.488" /> 
</g>
<g style="fill:#000000; fill-opacity:1.0; 
stroke:#000000; stroke-width:39.3701; stroke-opacity:1; 
stroke-linecap:round; stroke-linejoin:round;">
</g>
<g style="fill:#000000; fill-opacity:1.0; 
stroke:#000000; stroke-width:0; stroke-opacity:1; 
stroke-linecap:round; stroke-linejoin:round;">
<circle cx="26574.8" cy="11023.6" r="344.488" /> 
</g>
<g style="fill:#000000; fill-opacity:1.0; 
stroke:#000000; stroke-width:39.3701; stroke-opacity:1; 
stroke-linecap:round; stroke-linejoin:round;">
</g>
<g style="fill:#000000; fill-opacity:1.0; 
stroke:#000000; stroke-width:0; stroke-opacity:1; 
stroke-linecap:round; stroke-linejoin:round;">
<polyline style="fill-rule:evenodd;"
points="25246,11368
25246,10679
25935,10679
25935,11368
25246,11368
" /> 
<polyline style="fill-rule:evenodd;"
points="21702,11368
21702,10679
22391,10679
22391,11368
21702,11368
" /> 
<circle cx="23031.5" cy="11023.6" r="344.488" /> 
</g>
<g style="fill:#000000; fill-opacity:1.0; 
stroke:#000000; stroke-width:39.3701; stroke-opacity:1; 
stroke-linecap:round; stroke-linejoin:round;">
</g>
<g style="fill:#000000; fill-opacity:1.0; 
stroke:#000000; stroke-width:669.291; stroke-opacity:1; 
stroke-linecap:round; stroke-linejoin:round;">
</g>
<g style="fill:#000000; fill-opacity:0.0; 
stroke:#000000; stroke-width:669.291; stroke-opacity:1; 
stroke-linecap:round; stroke-linejoin:round;">
<path d="M15354 20834
L15354 20834
" />
<path d="M15354 21834
L15354 21834
" />
</g>
<g style="fill:#000000; fill-opacity:0.0; 
stroke:#000000; stroke-width:0; stroke-opacity:1; 
stroke-linecap:round; stroke-linejoin:round;">
</g>
<g style="fill:#000000; fill-opacity:1.0; 
stroke:#000000; stroke-width:0; stroke-opacity:1; 
stroke-linecap:round; stroke-linejoin:round;">
<polyline style="fill-rule:evenodd;"
points="15688,22500
15688,23169
15019,23169
15019,22500
15688,22500
" /> 
<polyline style="fill-rule:evenodd;"
points="7240,20422
7240,19733
7929,19733
7929,20422
7240,20422
" /> 
<circle cx="8569.57" cy="20077.7" r="344.488" /> 
</g>
<g style="fill:#000000; fill-opacity:1.0; 
stroke:#000000; stroke-width:39.3701; stroke-opacity:1; 
stroke-linecap:round; stroke-linejoin:round;">
</g>
<g style="fill:#000000; fill-opacity:1.0; 
stroke:#000000; stroke-width:0; stroke-opacity:1; 
stroke-linecap:round; stroke-linejoin:round;">
<circle cx="9553.82" cy="20077.7" r="344.488" /> 
</g>
<g style="fill:#000000; fill-opacity:1.0; 
stroke:#000000; stroke-width:39.3701; stroke-opacity:1; 
stroke-linecap:round; stroke-linejoin:round;">
</g>
<g style="fill:#000000; fill-opacity:1.0; 
stroke:#000000; stroke-width:0; stroke-opacity:1; 
stroke-linecap:round; stroke-linejoin:round;">
<circle cx="10538.1" cy="20077.7" r="344.488" /> 
</g>
<g style="fill:#000000; fill-opacity:1.0; 
stroke:#000000; stroke-width:39.3701; stroke-opacity:1; 
stroke-linecap:round; stroke-linejoin:round;">
</g>
<g style="fill:#000000; fill-opacity:1.0; 
stroke:#000000; stroke-width:0; stroke-opacity:1; 
stroke-linecap:round; stroke-linejoin:round;">
<circle cx="11522.3" cy="20077.7" r="344.488" /> 
</g>
<g style="fill:#000000; fill-opacity:1.0; 
stroke:#000000; stroke-width:39.3701; stroke-opacity:1; 
stroke-linecap:round; stroke-linejoin:round;">
</g>
<g style="fill:#000000; fill-opacity:1.0; 
stroke:#000000; stroke-width:0; stroke-opacity:1; 
stroke-linecap:round; stroke-linejoin:round;">
<circle cx="12506.6" cy="20077.7" r="344.488" /> 
</g>
<g style="fill:#000000; fill-opacity:1.0; 
stroke:#000000; stroke-width:39.3701; stroke-opacity:1; 
stroke-linecap:round; stroke-linejoin:round;">
</g>
<g style="fill:#000000; fill-opacity:1.0; 
stroke:#000000; stroke-width:0; stroke-opacity:1; 
stroke-linecap:round; stroke-linejoin:round;">
<circle cx="7585.32" cy="17518.6" r="344.488" /> 
</g>
<g style="fill:#000000; fill-opacity:1.0; 
stroke:#000000; stroke-width:39.3701; stroke-opacity:1; 
stroke-linecap:round; stroke-linejoin:round;">
</g>
<g style="fill:#000000; fill-opacity:1.0; 
stroke:#000000; stroke-width:0; stroke-opacity:1; 
stroke-linecap:round; stroke-linejoin:round;">
<circle cx="8569.57" cy="17518.6" r="344.488" /> 
</g>
<g style="fill:#000000; fill-opacity:1.0; 
stroke:#000000; stroke-width:39.3701; stroke-opacity:1; 
stroke-linecap:round; stroke-linejoin:round;">
</g>
<g style="fill:#000000; fill-opacity:1.0; 
stroke:#000000; stroke-width:0; stroke-opacity:1; 
stroke-linecap:round; stroke-linejoin:round;">
<circle cx="9553.82" cy="17518.6" r="344.488" /> 
</g>
<g style="fill:#000000; fill-opacity:1.0; 
stroke:#000000; stroke-width:39.3701; stroke-opacity:1; 
stroke-linecap:round; stroke-linejoin:round;">
</g>
<g style="fill:#000000; fill-opacity:1.0; 
stroke:#000000; stroke-width:0; stroke-opacity:1; 
stroke-linecap:round; stroke-linejoin:round;">
<circle cx="10538.1" cy="17518.6" r="344.488" /> 
</g>
<g style="fill:#000000; fill-opacity:1.0; 
stroke:#000000; stroke-width:39.3701; stroke-opacity:1; 
stroke-linecap:round; stroke-linejoin:round;">
</g>
<g style="fill:#000000; fill-opacity:1.0; 
stroke:#000000; stroke-width:0; stroke-opacity:1; 
stroke-linecap:round; stroke-linejoin:round;">
<circle cx="11522.3" cy="17518.6" r="344.488" /> 
</g>
<g style="fill:#000000; fill-opacity:1.0; 
stroke:#000000; stroke-width:39.3701; stroke-opacity:1; 
stroke-linecap:round; stroke-linejoin:round;">
</g>
<g style="fill:#000000; fill-opacity:1.0; 
stroke:#000000; stroke-width:0; stroke-opacity:1; 
stroke-linecap:round; stroke-linejoin:round;">
<polyline style="fill-rule:evenodd;"
points="12851,17174
12851,17863
12162,17863
12162,17174
12851,17174
" /> 
</g>
<g style="fill:#000000; fill-opacity:1.0; 
stroke:#000000; stroke-width:551.181; stroke-opacity:1; 
stroke-linecap:round; stroke-linejoin:round;">
</g>
<g style="fill:#000000; fill-opacity:0.0; 
stroke:#000000; stroke-width:551.181; stroke-opacity:1; 
stroke-linecap:round; stroke-linejoin:round;">
<path d="M15551 11260
L15551 11260
" />
</g>
<g style="fill:#000000; fill-opacity:1.0; 
stroke:#000000; stroke-width:0; stroke-opacity:1; 
stroke-linecap:round; stroke-linejoin:round;">
<circle cx="15551.2" cy="14260" r="275.591" /> 
</g>
<g style="fill:#000000; fill-opacity:1.0; 
stroke:#000000; stroke-width:39.3701; stroke-opacity:1; 
stroke-linecap:round; stroke-linejoin:round;">
</g>
<g style="fill:#000000; fill-opacity:1.0; 
stroke:#000000; stroke-width:0; stroke-opacity:1; 
stroke-linecap:round; stroke-linejoin:round;">
<circle cx="33464.6" cy="7874.02" r="1102.36" /> 
</g>
<g style="fill:#000000; fill-opacity:1.0; 
stroke:#000000; stroke-width:39.3701; stroke-opacity:1; 
stroke-linecap:round; stroke-linejoin:round;">
</g>
<g style="fill:#000000; fill-opacity:1.0; 
stroke:#000000; stroke-width:1181.1; stroke-opacity:1; 
stroke-linecap:round; stroke-linejoin:round;">
</g>
<g style="fill:#000000; fill-opacity:0.0; 
stroke:#000000; stroke-width:1181.1; stroke-opacity:1; 
stroke-linecap:round; stroke-linejoin:round;">
<path d="M8366 11348
L8759 11348
" />
<path d="M8366 12908
L8759 12908
" />
</g>
<g style="fill:#000000; fill-opacity:0.0; 
stroke:#000000; stroke-width:0; stroke-opacity:1; 
stroke-linecap:round; stroke-linejoin:round;">
</g>
<g style="fill:#000000; fill-opacity:1.0; 
stroke:#000000; stroke-width:0; stroke-opacity:1; 
stroke-linecap:round; stroke-linejoin:round;">
<polyline style="fill-rule:evenodd;"
points="9350,15059
7775,15059
7775,13877
9350,13877
9350,15059
" /> 
<circle cx="14354.3" cy="9055.12" r="354.331" /> 
</g>
<g style="fill:#000000; fill-opacity:1.0; 
stroke:#000000; stroke-width:39.3701; stroke-opacity:1; 
stroke-linecap:round; stroke-linejoin:round;">
</g>
<g style="fill:#000000; fill-opacity:1.0; 
stroke:#000000; stroke-width:0; stroke-opacity:1; 
stroke-linecap:round; stroke-linejoin:round;">
<polyline style="fill-rule:evenodd;"
points="15708,8700
15708,9409
15000,9409
15000,8700
15708,8700
" /> 
<polyline style="fill-rule:evenodd;"
points="15708,6732
15708,7440
15000,7440
15000,6732
15708,6732
" /> 
<circle cx="14354.3" cy="7086.61" r="354.331" /> 
</g>
<g style="fill:#000000; fill-opacity:1.0; 
stroke:#000000; stroke-width:39.3701; stroke-opacity:1; 
stroke-linecap:round; stroke-linejoin:round;">
</g>
<g style="fill:#000000; fill-opacity:1.0; 
stroke:#000000; stroke-width:0; stroke-opacity:1; 
stroke-linecap:round; stroke-linejoin:round;">
<circle cx="10236.2" cy="9055.12" r="275.591" /> 
</g>
<g style="fill:#000000; fill-opacity:1.0; 
stroke:#000000; stroke-width:39.3701; stroke-opacity:1; 
stroke-linecap:round; stroke-linejoin:round;">
</g>
<g style="fill:#000000; fill-opacity:1.0; 
stroke:#000000; stroke-width:551.181; stroke-opacity:1; 
stroke-linecap:round; stroke-linejoin:round;">
</g>
<g style="fill:#000000; fill-opacity:0.0; 
stroke:#000000; stroke-width:551.181; stroke-opacity:1; 
stroke-linecap:round; stroke-linejoin:round;">
<path d="M13236 9055
L13236 9055
" />
<path d="M13236 7086
L13236 7086
" />
</g>
<g style="fill:#000000; fill-opacity:1.0; 
stroke:#000000; stroke-width:0; stroke-opacity:1; 
stroke-linecap:round; stroke-linejoin:round;">
<circle cx="10236.2" cy="7086.61" r="275.591" /> 
</g>
<g style="fill:#000000; fill-opacity:1.0; 
stroke:#000000; stroke-width:39.3701; stroke-opacity:1; 
stroke-linecap:round; stroke-linejoin:round;">
</g>
<g style="fill:#000000; fill-opacity:1.0; 
stroke:#000000; stroke-width:0; stroke-opacity:1; 
stroke-linecap:round; stroke-linejoin:round;">
<circle cx="15551.2" cy="17322.8" r="314.961" /> 
</g>
<g style="fill:#000000; fill-opacity:1.0; 
stroke:#000000; stroke-width:39.3701; stroke-opacity:1; 
stroke-linecap:round; stroke-linejoin:round;">
</g>
<g style="fill:#000000; fill-opacity:1.0; 
stroke:#000000; stroke-width:0; stroke-opacity:1; 
stroke-linecap:round; stroke-linejoin:round;">
<circle cx="15551.2" cy="15354.3" r="314.961" /> 
</g>
<g style="fill:#000000; fill-opacity:1.0; 
stroke:#000000; stroke-width:39.3701; stroke-opacity:1; 
stroke-linecap:round; stroke-linejoin:round;">
</g>
<g style="fill:#000000; fill-opacity:1.0; 
stroke:#000000; stroke-width:0; stroke-opacity:1; 
stroke-linecap:round; stroke-linejoin:round;">
<circle cx="10826.8" cy="13582.7" r="157.48" /> 
</g>
<g style="fill:#000000; fill-opacity:1.0; 
stroke:#000000; stroke-width:39.3701; stroke-opacity:1; 
stroke-linecap:round; stroke-linejoin:round;">
</g>
<g style="fill:#000000; fill-opacity:1.0; 
stroke:#000000; stroke-width:0; stroke-opacity:1; 
stroke-linecap:round; stroke-linejoin:round;">
<circle cx="14763.8" cy="15354.3" r="157.48" /> 
</g>
<g style="fill:#000000; fill-opacity:1.0; 
stroke:#000000; stroke-width:39.3701; stroke-opacity:1; 
stroke-linecap:round; stroke-linejoin:round;">
</g>
<g style="fill:#000000; fill-opacity:1.0; 
stroke:#000000; stroke-width:0; stroke-opacity:1; 
stroke-linecap:round; stroke-linejoin:round;">
<circle cx="14370.1" cy="15354.3" r="157.48" /> 
</g>
<g style="fill:#000000; fill-opacity:1.0; 
stroke:#000000; stroke-width:39.3701; stroke-opacity:1; 
stroke-linecap:round; stroke-linejoin:round;">
</g>
<g style="fill:#000000; fill-opacity:1.0; 
stroke:#000000; stroke-width:0; stroke-opacity:1; 
stroke-linecap:round; stroke-linejoin:round;">
<circle cx="11220.5" cy="13976.4" r="157.48" /> 
</g>
<g style="fill:#000000; fill-opacity:1.0; 
stroke:#000000; stroke-width:39.3701; stroke-opacity:1; 
stroke-linecap:round; stroke-linejoin:round;">
</g>
<g style="fill:#000000; fill-opacity:1.0; 
stroke:#000000; stroke-width:0; stroke-opacity:1; 
stroke-linecap:round; stroke-linejoin:round;">
<circle cx="9055.12" cy="18307.1" r="157.48" /> 
</g>
<g style="fill:#000000; fill-opacity:1.0; 
stroke:#000000; stroke-width:39.3701; stroke-opacity:1; 
stroke-linecap:round; stroke-linejoin:round;">
</g>
<g style="fill:#000000; fill-opacity:1.0; 
stroke:#000000; stroke-width:0; stroke-opacity:1; 
stroke-linecap:round; stroke-linejoin:round;">
<circle cx="12992.1" cy="18307.1" r="157.48" /> 
</g>
<g style="fill:#000000; fill-opacity:1.0; 
stroke:#000000; stroke-width:39.3701; stroke-opacity:1; 
stroke-linecap:round; stroke-linejoin:round;">
</g>
<g style="fill:#000000; fill-opacity:1.0; 
stroke:#000000; stroke-width:0; stroke-opacity:1; 
stroke-linecap:round; stroke-linejoin:round;">
<circle cx="10538.1" cy="16233.6" r="157.48" /> 
</g>
<g style="fill:#000000; fill-opacity:1.0; 
stroke:#000000; stroke-width:39.3701; stroke-opacity:1; 
stroke-linecap:round; stroke-linejoin:round;">
</g>
<g style="fill:#000000; fill-opacity:1.0; 
stroke:#000000; stroke-width:0; stroke-opacity:1; 
stroke-linecap:round; stroke-linejoin:round;">
<circle cx="11417.3" cy="15354.3" r="157.48" /> 
</g>
<g style="fill:#000000; fill-opacity:1.0; 
stroke:#000000; stroke-width:39.3701; stroke-opacity:1; 
stroke-linecap:round; stroke-linejoin:round;">
</g>
<g style="fill:#000000; fill-opacity:1.0; 
stroke:#000000; stroke-width:0; stroke-opacity:1; 
stroke-linecap:round; stroke-linejoin:round;">
<circle cx="12992.1" cy="18897.6" r="157.48" /> 
</g>
<g style="fill:#000000; fill-opacity:1.0; 
stroke:#000000; stroke-width:39.3701; stroke-opacity:1; 
stroke-linecap:round; stroke-linejoin:round;">
</g>
<g style="fill:#000000; fill-opacity:1.0; 
stroke:#000000; stroke-width:0; stroke-opacity:1; 
stroke-linecap:round; stroke-linejoin:round;">
<circle cx="12007.9" cy="18897.6" r="157.48" /> 
</g>
<g style="fill:#000000; fill-opacity:1.0; 
stroke:#000000; stroke-width:39.3701; stroke-opacity:1; 
stroke-linecap:round; stroke-linejoin:round;">
</g>
<g style="fill:#000000; fill-opacity:1.0; 
stroke:#000000; stroke-width:295.276; stroke-opacity:1; 
stroke-linecap:round; stroke-linejoin:round;">
</g>
<g style="fill:#000000; fill-opacity:0.0; 
stroke:#000000; stroke-width:295.276; stroke-opacity:1; 
stroke-linecap:round; stroke-linejoin:round;">
<path d="M15354 7086
L15354 9055
" />
<path d="M16031 15834
L16881 15834
" />
<path d="M15551 15354
L16031 15834
" />
<path d="M16881 15834
L17433 15834
" />
<path d="M16881 13834
L17377 13834
" />
<path d="M17377 13834
L17519 13976
" />
<path d="M17433 15834
L17519 15748
" />
<path d="M17519 13976
L17519 15748
" />
<path d="M8759 14468
L8562 14468
" />
<path d="M10236 9055
L10236 12992
" />
<path d="M10039 13188
L10433 13188
" />
<path d="M10236 12992
L10433 13188
" />
<path d="M10039 13188
L8759 14468
" />
<path d="M10236 12992
L10039 13188
" />
<path d="M7480 14468
L6496 15452
" />
<path d="M8562 14468
L7480 14468
" />
<path d="M6496 15452
L6496 21653
" />
<path d="M6496 21653
L6889 22047
" />
<path d="M6889 22047
L13779 22047
" />
<path d="M14566 22834
L15354 22834
" />
<path d="M13779 22047
L14566 22834
" />
<path d="M10433 13188
L10826 13582
" />
<path d="M15551 15354
L14763 15354
" />
<path d="M14763 15354
L14370 15354
" />
</g>
<g style="fill:#000000; fill-opacity:0.0; 
stroke:#000000; stroke-width:196.85; stroke-opacity:1; 
stroke-linecap:round; stroke-linejoin:round;">
<path d="M17866 23818
L16881 22834
" />
<path d="M30905 23818
L17866 23818
" />
<path d="M33661 20472
L33661 21062
" />
<path d="M33661 21062
L30905 23818
" />
<path d="M28346 22834
L19881 22834
" />
<path d="M30118 20472
L30118 21062
" />
<path d="M30118 21062
L28346 22834
" />
<path d="M25803 21834
L19881 21834
" />
<path d="M26574 20472
L26574 21062
" />
<path d="M26574 21062
L25803 21834
" />
<path d="M20307 21259
L19881 20834
" />
<path d="M22834 21259
L20307 21259
" />
<path d="M23031 20472
L23031 21062
" />
<path d="M23031 21062
L22834 21259
" />
<path d="M20425 19291
L19881 19834
" />
<path d="M32283 19291
L20425 19291
" />
<path d="M33661 17322
L33661 17913
" />
<path d="M33661 17913
L32283 19291
" />
<path d="M19944 18897
L19881 18834
" />
<path d="M29133 18897
L19944 18897
" />
<path d="M30118 17322
L30118 17913
" />
<path d="M30118 17913
L29133 18897
" />
<path d="M20551 18503
L19881 17834
" />
<path d="M25984 18503
L20551 18503
" />
<path d="M26574 17322
L26574 17913
" />
<path d="M26574 17913
L25984 18503
" />
<path d="M20181 16834
L19881 16834
" />
<path d="M21456 18110
L20181 16834
" />
<path d="M22834 18110
L21456 18110
" />
<path d="M23031 17322
L23031 17913
" />
<path d="M23031 17913
L22834 18110
" />
<path d="M32590 15834
L19881 15834
" />
<path d="M33661 14173
L33661 14763
" />
<path d="M33661 14763
L32590 15834
" />
<path d="M20401 15354
L19881 14834
" />
<path d="M29527 15354
L20401 15354
" />
<path d="M30118 14173
L30118 14763
" />
<path d="M30118 14763
L29527 15354
" />
<path d="M21007 14960
L19881 13834
" />
<path d="M26377 14960
L21007 14960
" />
<path d="M26574 14173
L26574 14763
" />
<path d="M26574 14763
L26377 14960
" />
<path d="M20039 12992
L19881 12834
" />
<path d="M22440 12992
L20039 12992
" />
<path d="M23031 14173
L23031 13582
" />
<path d="M23031 13582
L22440 12992
" />
<path d="M33661 11023
L33661 11614
" />
<path d="M33661 11614
L32677 12598
" />
<path d="M20645 12598
L19881 11834
" />
<path d="M32677 12598
L20645 12598
" />
<path d="M30118 11023
L30118 11614
" />
<path d="M30118 11614
L29527 12204
" />
<path d="M29527 12204
L21259 12204
" />
<path d="M21259 12204
L20669 11614
" />
<path d="M20661 11614
L19881 10834
" />
<path d="M20669 11614
L20661 11614
" />
<path d="M20464 9834
L19881 9834
" />
<path d="M26574 11614
L26377 11811
" />
<path d="M26377 11811
L21456 11811
" />
<path d="M26574 11023
L26574 11614
" />
<path d="M21456 11811
L21259 11614
" />
<path d="M21259 11614
L21259 10629
" />
<path d="M21259 10629
L20464 9834
" />
<path d="M23031 11023
L23031 10433
" />
<path d="M23031 10433
L21850 9251
" />
<path d="M17464 9251
L16881 9834
" />
<path d="M21850 9251
L17464 9251
" />
</g>
<g style="fill:#000000; fill-opacity:0.0; 
stroke:#000000; stroke-width:137.795; stroke-opacity:1; 
stroke-linecap:round; stroke-linejoin:round;">
<path d="M16436 21834
L15354 21834
" />
<path d="M16881 21834
L16436 21834
" />
<path d="M7585 18110
L7585 18215
" />
<path d="M7585 17518
L7585 18110
" />
<path d="M7585 18215
L7677 18307
" />
<path d="M7585 18398
L7677 18307
" />
<path d="M7585 18503
L7585 18398
" />
<path d="M7585 18503
L7585 20077
" />
<path d="M7585 18110
L7585 18503
" />
<path d="M7677 18307
L9055 18307
" />
<path d="M16417 17834
L16881 17834
" />
<path d="M12992 18307
L15944 18307
" />
<path d="M15944 18307
L16417 17834
" />
<path d="M8569 21167
L8569 20077
" />
<path d="M8858 21456
L8569 21167
" />
<path d="M12992 21456
L8858 21456
" />
<path d="M14566 19881
L12992 21456
" />
<path d="M16881 20834
L15929 19881
" />
<path d="M15929 19881
L14566 19881
" />
<path d="M9553 17518
L9553 20077
" />
<path d="M16881 19834
L16535 19488
" />
<path d="M16535 19488
L14173 19488
" />
<path d="M14173 19488
L12795 20866
" />
<path d="M12795 20866
L9842 20866
" />
<path d="M9553 20577
L9553 20077
" />
<path d="M9842 20866
L9553 20577
" />
<path d="M10538 17518
L10538 20077
" />
<path d="M10538 17518
L10538 16233
" />
<path d="M16881 10834
L12362 15354
" />
<path d="M12362 15354
L11417 15354
" />
<path d="M11522 17518
L11522 18700
" />
<path d="M11522 19094
L11522 20077
" />
<path d="M16881 18834
L16204 18834
" />
<path d="M16141 18897
L12992 18897
" />
<path d="M16204 18834
L16141 18897
" />
<path d="M12007 18897
L11719 18897
" />
<path d="M11614 18891
L11522 18799
" />
<path d="M11614 18897
L11614 18891
" />
<path d="M11522 18799
L11522 18897
" />
<path d="M11522 18700
L11522 18799
" />
<path d="M11614 18897
L11522 18897
" />
<path d="M11719 18897
L11614 18897
" />
<path d="M11614 18904
L11522 18996
" />
<path d="M11614 18897
L11614 18904
" />
<path d="M11522 18897
L11522 18996
" />
<path d="M11522 18996
L11522 19094
" />
<path d="M12506 17518
L12506 20077
" />
<path d="M12506 17518
L12506 16233
" />
<path d="M15905 12834
L16881 12834
" />
<path d="M12506 16233
L15905 12834
" />
<path d="M8569 17518
L8569 16233
" />
<path d="M8569 16233
L9055 15748
" />
<path d="M16436 11834
L16881 11834
" />
<path d="M12523 15748
L16436 11834
" />
<path d="M9055 15748
L12523 15748
" />
<path d="M15551 14260
L15940 14260
" />
<path d="M16881 14834
L16606 14834
" />
<path d="M16031 14260
L15940 14260
" />
<path d="M16606 14834
L16031 14260
" />
<path d="M13236 9055
L14354 9055
" />
<path d="M13236 7086
L14354 7086
" />
</g> 
</svg>
