<?xml version="1.0" standalone="no"?>
 <!DOCTYPE svg PUBLIC "-//W3C//DTD SVG 1.1//EN" 
 "http://www.w3.org/Graphics/SVG/1.1/DTD/svg11.dtd"> 
<svg xmlns="http://www.w3.org/2000/svg" version="1.1" 
    width="29.7002cm" height="21.0007cm" viewBox="0 0 116930 82680 ">
<title>SVG Picture created as TLC5940_LED_driver_board-rev_1.0-F.SilkS.svg date 2018/12/11 22:23:08 </title>
  <desc>Picture generated by PCBNEW </desc>
<g style="fill:#000000; fill-opacity:1;stroke:#000000; stroke-opacity:1;
stroke-linecap:round; stroke-linejoin:round; "
 transform="translate(0 0) scale(1 1)">
</g>
<g style="fill:#000000; fill-opacity:0.0; 
stroke:#000000; stroke-width:-0.000393701; stroke-opacity:1; 
stroke-linecap:round; stroke-linejoin:round;">
</g>
<g style="fill:#000000; fill-opacity:0.0; 
stroke:#000000; stroke-width:78.7402; stroke-opacity:1; 
stroke-linecap:round; stroke-linejoin:round;">
<path d="M12795 14763
L12598 14960
" />
<path d="M12598 14566
L12795 14763
" />
<path d="M12795 14763
L12598 14566
" />
<path d="M11023 14763
L12795 14763
" />
</g>
<g style="fill:#000000; fill-opacity:0.0; 
stroke:#000000; stroke-width:98.4252; stroke-opacity:1; 
stroke-linecap:round; stroke-linejoin:round;">
<path d="M13149 14102
L13449 14102
" />
<path d="M13299 14252
L13299 13952
" />
<path d="M13843 14252
L13618 14252
" />
<path d="M13731 14252
L13731 13859
L13693 13915
L13656 13952
L13618 13971
" />
<path d="M13993 13896
L14012 13877
L14049 13859
L14143 13859
L14180 13877
L14199 13896
L14218 13934
L14218 13971
L14199 14027
L13974 14252
L14218 14252
" />
<path d="M14330 13859
L14462 14252
L14593 13859
" />
<path d="M13356 14566
L13318 14548
L13262 14548
L13206 14566
L13168 14604
L13149 14641
L13131 14716
L13131 14773
L13149 14848
L13168 14885
L13206 14923
L13262 14941
L13299 14941
L13356 14923
L13374 14904
L13374 14773
L13299 14773
" />
<path d="M13543 14941
L13543 14548
L13768 14941
L13768 14548
" />
<path d="M13955 14941
L13955 14548
L14049 14548
L14105 14566
L14143 14604
L14162 14641
L14180 14716
L14180 14773
L14162 14848
L14143 14885
L14105 14923
L14049 14941
L13955 14941
" />
<path d="M13093 15237
L13224 15630
L13356 15237
" />
<path d="M13712 15593
L13693 15612
L13637 15630
L13599 15630
L13543 15612
L13506 15574
L13487 15537
L13468 15462
L13468 15405
L13487 15330
L13506 15293
L13543 15255
L13599 15237
L13637 15237
L13693 15255
L13712 15274
" />
<path d="M14105 15593
L14087 15612
L14030 15630
L13993 15630
L13937 15612
L13899 15574
L13880 15537
L13862 15462
L13862 15405
L13880 15330
L13899 15293
L13937 15255
L13993 15237
L14030 15237
L14087 15255
L14105 15274
" />
</g>
<g style="fill:#000000; fill-opacity:0.0; 
stroke:#000000; stroke-width:157.48; stroke-opacity:1; 
stroke-linecap:round; stroke-linejoin:round;">
<path d="M15551 25000
L15944 24606
" />
<path d="M15944 24606
L15551 24212
" />
<path d="M14173 21850
L14566 21850
" />
<path d="M14173 24606
L14173 21850
" />
<path d="M15944 24606
L14173 24606
" />
</g>
<g style="fill:#000000; fill-opacity:0.0; 
stroke:#000000; stroke-width:98.4252; stroke-opacity:1; 
stroke-linecap:round; stroke-linejoin:round;">
<path d="M16102 24289
L16402 24289
" />
<path d="M17096 24064
L17058 24046
L17002 24046
L16946 24064
L16908 24102
L16889 24139
L16871 24214
L16871 24271
L16889 24346
L16908 24383
L16946 24421
L17002 24439
L17039 24439
L17096 24421
L17114 24402
L17114 24271
L17039 24271
" />
<path d="M17283 24439
L17283 24177
" />
<path d="M17283 24252
L17302 24214
L17321 24196
L17358 24177
L17396 24177
" />
<path d="M17696 24439
L17696 24233
L17677 24196
L17639 24177
L17564 24177
L17527 24196
" />
<path d="M17696 24421
L17658 24439
L17564 24439
L17527 24421
L17508 24383
L17508 24346
L17527 24308
L17564 24289
L17658 24289
L17696 24271
" />
<path d="M17846 24177
L17939 24439
" />
<path d="M18033 24177
L17939 24439
L17902 24533
L17883 24552
L17846 24571
" />
<path d="M18464 24421
L18521 24439
L18614 24439
L18652 24421
L18671 24402
L18689 24364
L18689 24327
L18671 24289
L18652 24271
L18614 24252
L18539 24233
L18502 24214
L18483 24196
L18464 24158
L18464 24121
L18483 24083
L18502 24064
L18539 24046
L18633 24046
L18689 24064
" />
<path d="M19027 24421
L18989 24439
L18914 24439
L18877 24421
L18858 24402
L18839 24364
L18839 24252
L18858 24214
L18877 24196
L18914 24177
L18989 24177
L19027 24196
" />
<path d="M19364 24439
L19364 24233
L19345 24196
L19308 24177
L19233 24177
L19195 24196
" />
<path d="M19364 24421
L19327 24439
L19233 24439
L19195 24421
L19177 24383
L19177 24346
L19195 24308
L19233 24289
L19327 24289
L19364 24271
" />
<path d="M19608 24439
L19570 24421
L19552 24383
L19552 24046
" />
<path d="M19908 24421
L19870 24439
L19795 24439
L19758 24421
L19739 24383
L19739 24233
L19758 24196
L19795 24177
L19870 24177
L19908 24196
L19927 24233
L19927 24271
L19739 24308
" />
<path d="M20395 24439
L20395 24046
L20527 24327
L20658 24046
L20658 24439
" />
<path d="M20901 24439
L20864 24421
L20845 24402
L20827 24364
L20827 24252
L20845 24214
L20864 24196
L20901 24177
L20958 24177
L20995 24196
L21014 24214
L21033 24252
L21033 24364
L21014 24402
L20995 24421
L20958 24439
L20901 24439
" />
<path d="M21370 24439
L21370 24046
" />
<path d="M21370 24421
L21333 24439
L21258 24439
L21220 24421
L21201 24402
L21183 24364
L21183 24252
L21201 24214
L21220 24196
L21258 24177
L21333 24177
L21370 24196
" />
<path d="M21708 24421
L21670 24439
L21595 24439
L21558 24421
L21539 24383
L21539 24233
L21558 24196
L21595 24177
L21670 24177
L21708 24196
L21726 24233
L21726 24271
L21539 24308
" />
<path d="M16102 24978
L16402 24978
" />
<path d="M16889 25128
L16889 24735
L16983 24735
L17039 24753
L17077 24791
L17096 24828
L17114 24903
L17114 24960
L17096 25035
L17077 25072
L17039 25110
L16983 25128
L16889 25128
" />
<path d="M17339 25128
L17302 25110
L17283 25091
L17264 25053
L17264 24941
L17283 24903
L17302 24885
L17339 24866
L17396 24866
L17433 24885
L17452 24903
L17471 24941
L17471 25053
L17452 25091
L17433 25110
L17396 25128
L17339 25128
" />
<path d="M17583 24866
L17733 24866
" />
<path d="M17639 24735
L17639 25072
L17658 25110
L17696 25128
L17733 25128
" />
<path d="M18389 25091
L18371 25110
L18314 25128
L18277 25128
L18221 25110
L18183 25072
L18164 25035
L18146 24960
L18146 24903
L18164 24828
L18183 24791
L18221 24753
L18277 24735
L18314 24735
L18371 24753
L18389 24772
" />
<path d="M18614 25128
L18577 25110
L18558 25091
L18539 25053
L18539 24941
L18558 24903
L18577 24885
L18614 24866
L18671 24866
L18708 24885
L18727 24903
L18746 24941
L18746 25053
L18727 25091
L18708 25110
L18671 25128
L18614 25128
" />
<path d="M18914 25128
L18914 24866
" />
<path d="M18914 24941
L18933 24903
L18952 24885
L18989 24866
L19027 24866
" />
<path d="M19158 25128
L19158 24866
" />
<path d="M19158 24941
L19177 24903
L19195 24885
L19233 24866
L19270 24866
" />
<path d="M19552 25110
L19514 25128
L19439 25128
L19402 25110
L19383 25072
L19383 24922
L19402 24885
L19439 24866
L19514 24866
L19552 24885
L19570 24922
L19570 24960
L19383 24997
" />
<path d="M19908 25110
L19870 25128
L19795 25128
L19758 25110
L19739 25091
L19720 25053
L19720 24941
L19739 24903
L19758 24885
L19795 24866
L19870 24866
L19908 24885
" />
<path d="M20020 24866
L20170 24866
" />
<path d="M20077 24735
L20077 25072
L20095 25110
L20133 25128
L20170 25128
" />
<path d="M20302 25128
L20302 24866
" />
<path d="M20302 24735
L20283 24753
L20302 24772
L20320 24753
L20302 24735
L20302 24772
" />
<path d="M20545 25128
L20508 25110
L20489 25091
L20470 25053
L20470 24941
L20489 24903
L20508 24885
L20545 24866
L20602 24866
L20639 24885
L20658 24903
L20677 24941
L20677 25053
L20658 25091
L20639 25110
L20602 25128
L20545 25128
" />
<path d="M20845 24866
L20845 25128
" />
<path d="M20845 24903
L20864 24885
L20901 24866
L20958 24866
L20995 24885
L21014 24922
L21014 25128
" />
<path d="M21501 25128
L21501 24735
L21633 25016
L21764 24735
L21764 25128
" />
<path d="M22008 25128
L21970 25110
L21951 25091
L21933 25053
L21933 24941
L21951 24903
L21970 24885
L22008 24866
L22064 24866
L22101 24885
L22120 24903
L22139 24941
L22139 25053
L22120 25091
L22101 25110
L22064 25128
L22008 25128
" />
<path d="M22476 25128
L22476 24735
" />
<path d="M22476 25110
L22439 25128
L22364 25128
L22326 25110
L22308 25091
L22289 25053
L22289 24941
L22308 24903
L22326 24885
L22364 24866
L22439 24866
L22476 24885
" />
<path d="M22814 25110
L22776 25128
L22701 25128
L22664 25110
L22645 25072
L22645 24922
L22664 24885
L22701 24866
L22776 24866
L22814 24885
L22833 24922
L22833 24960
L22645 24997
" />
</g>
<g style="fill:#000000; fill-opacity:0.0; 
stroke:#000000; stroke-width:157.48; stroke-opacity:1; 
stroke-linecap:round; stroke-linejoin:round;">
<path d="M19685 9055
L19685 6299
" />
</g>
<g style="fill:#000000; fill-opacity:0.0; 
stroke:#000000; stroke-width:118.11; stroke-opacity:1; 
stroke-linecap:round; stroke-linejoin:round;">
<path d="M20099 7442
L20099 6851
L20324 6851
L20380 6879
L20408 6908
L20436 6964
L20436 7048
L20408 7104
L20380 7133
L20324 7161
L20099 7161
" />
<path d="M20689 7442
L20689 7048
" />
<path d="M20689 6851
L20661 6879
L20689 6908
L20717 6879
L20689 6851
L20689 6908
" />
<path d="M20971 7048
L20971 7442
" />
<path d="M20971 7104
L20999 7076
L21055 7048
L21139 7048
L21196 7076
L21224 7133
L21224 7442
" />
<path d="M21702 7133
L21786 7161
L21814 7189
L21842 7245
L21842 7329
L21814 7386
L21786 7414
L21730 7442
L21505 7442
L21505 6851
L21702 6851
L21758 6879
L21786 6908
L21814 6964
L21814 7020
L21786 7076
L21758 7104
L21702 7133
L21505 7133
" />
<path d="M22348 7048
L22348 7442
" />
<path d="M22095 7048
L22095 7357
L22124 7414
L22180 7442
L22264 7442
L22320 7414
L22348 7386
" />
<path d="M22602 7414
L22658 7442
L22770 7442
L22827 7414
L22855 7357
L22855 7329
L22827 7273
L22770 7245
L22686 7245
L22630 7217
L22602 7161
L22602 7133
L22630 7076
L22686 7048
L22770 7048
L22827 7076
" />
<path d="M23473 6851
L23811 6851
" />
<path d="M23642 7442
L23642 6851
" />
<path d="M24289 7442
L24008 7442
L24008 6851
" />
<path d="M24823 7386
L24795 7414
L24711 7442
L24654 7442
L24570 7414
L24514 7357
L24486 7301
L24458 7189
L24458 7104
L24486 6992
L24514 6936
L24570 6879
L24654 6851
L24711 6851
L24795 6879
L24823 6908
" />
<path d="M25357 6851
L25076 6851
L25048 7133
L25076 7104
L25133 7076
L25273 7076
L25329 7104
L25357 7133
L25386 7189
L25386 7329
L25357 7386
L25329 7414
L25273 7442
L25133 7442
L25076 7414
L25048 7386
" />
<path d="M25667 7442
L25779 7442
L25836 7414
L25864 7386
L25920 7301
L25948 7189
L25948 6964
L25920 6908
L25892 6879
L25836 6851
L25723 6851
L25667 6879
L25639 6908
L25611 6964
L25611 7104
L25639 7161
L25667 7189
L25723 7217
L25836 7217
L25892 7189
L25920 7161
L25948 7104
" />
<path d="M26454 7048
L26454 7442
" />
<path d="M26314 6823
L26173 7245
L26539 7245
" />
<path d="M26876 6851
L26932 6851
L26989 6879
L27017 6908
L27045 6964
L27073 7076
L27073 7217
L27045 7329
L27017 7386
L26989 7414
L26932 7442
L26876 7442
L26820 7414
L26792 7386
L26764 7329
L26735 7217
L26735 7076
L26764 6964
L26792 6908
L26820 6879
L26876 6851
" />
<path d="M28057 7442
L27776 7442
L27776 6851
" />
<path d="M28254 7133
L28451 7133
" />
<path d="M28535 7442
L28254 7442
L28254 6851
L28535 6851
" />
<path d="M28788 7442
L28788 6851
L28929 6851
L29013 6879
L29070 6936
L29098 6992
L29126 7104
L29126 7189
L29098 7301
L29070 7357
L29013 7414
L28929 7442
L28788 7442
" />
<path d="M29829 7442
L29829 6851
L29969 6851
L30054 6879
L30110 6936
L30138 6992
L30166 7104
L30166 7189
L30138 7301
L30110 7357
L30054 7414
L29969 7442
L29829 7442
" />
<path d="M30419 7442
L30419 7048
" />
<path d="M30419 7161
L30447 7104
L30476 7076
L30532 7048
L30588 7048
" />
<path d="M30785 7442
L30785 7048
" />
<path d="M30785 6851
L30757 6879
L30785 6908
L30813 6879
L30785 6851
L30785 6908
" />
<path d="M31010 7048
L31151 7442
L31291 7048
" />
<path d="M31741 7414
L31685 7442
L31572 7442
L31516 7414
L31488 7357
L31488 7133
L31516 7076
L31572 7048
L31685 7048
L31741 7076
L31769 7133
L31769 7189
L31488 7245
" />
<path d="M32022 7442
L32022 7048
" />
<path d="M32022 7161
L32050 7104
L32079 7076
L32135 7048
L32191 7048
" />
<path d="M20436 8446
L20239 8165
" />
<path d="M20099 8446
L20099 7855
L20324 7855
L20380 7883
L20408 7911
L20436 7968
L20436 8052
L20408 8108
L20380 8136
L20324 8165
L20099 8165
" />
<path d="M20914 8418
L20858 8446
L20746 8446
L20689 8418
L20661 8361
L20661 8136
L20689 8080
L20746 8052
L20858 8052
L20914 8080
L20942 8136
L20942 8193
L20661 8249
" />
<path d="M21139 8052
L21280 8446
L21420 8052
" />
<path d="M21645 8390
L21674 8418
L21645 8446
L21617 8418
L21645 8390
L21645 8446
" />
<path d="M22686 8446
L22348 8446
" />
<path d="M22517 8446
L22517 7855
L22461 7940
L22405 7996
L22348 8024
" />
<path d="M22939 8390
L22967 8418
L22939 8446
L22911 8418
L22939 8390
L22939 8446
" />
<path d="M23333 7855
L23389 7855
L23445 7883
L23473 7911
L23501 7968
L23530 8080
L23530 8221
L23501 8333
L23473 8390
L23445 8418
L23389 8446
L23333 8446
L23276 8418
L23248 8390
L23220 8333
L23192 8221
L23192 8080
L23220 7968
L23248 7911
L23276 7883
L23333 7855
" />
<path d="M24401 8671
L24373 8643
L24317 8558
L24289 8502
L24261 8418
L24233 8277
L24233 8165
L24261 8024
L24289 7940
L24317 7883
L24373 7799
L24401 7771
" />
<path d="M24598 7911
L24626 7883
L24683 7855
L24823 7855
L24879 7883
L24908 7911
L24936 7968
L24936 8024
L24908 8108
L24570 8446
L24936 8446
" />
<path d="M25301 7855
L25357 7855
L25414 7883
L25442 7911
L25470 7968
L25498 8080
L25498 8221
L25470 8333
L25442 8390
L25414 8418
L25357 8446
L25301 8446
L25245 8418
L25217 8390
L25189 8333
L25161 8221
L25161 8080
L25189 7968
L25217 7911
L25245 7883
L25301 7855
" />
<path d="M26061 8446
L25723 8446
" />
<path d="M25892 8446
L25892 7855
L25836 7940
L25779 7996
L25723 8024
" />
<path d="M26398 8108
L26342 8080
L26314 8052
L26285 7996
L26285 7968
L26314 7911
L26342 7883
L26398 7855
L26510 7855
L26567 7883
L26595 7911
L26623 7968
L26623 7996
L26595 8052
L26567 8080
L26510 8108
L26398 8108
L26342 8136
L26314 8165
L26285 8221
L26285 8333
L26314 8390
L26342 8418
L26398 8446
L26510 8446
L26567 8418
L26595 8390
L26623 8333
L26623 8221
L26595 8165
L26567 8136
L26510 8108
" />
<path d="M26876 8221
L27326 8221
" />
<path d="M27917 8446
L27579 8446
" />
<path d="M27748 8446
L27748 7855
L27692 7940
L27635 7996
L27579 8024
" />
<path d="M28479 8446
L28142 8446
" />
<path d="M28310 8446
L28310 7855
L28254 7940
L28198 7996
L28142 8024
" />
<path d="M28732 8221
L29182 8221
" />
<path d="M29773 8446
L29435 8446
" />
<path d="M29604 8446
L29604 7855
L29548 7940
L29491 7996
L29435 8024
" />
<path d="M30138 7855
L30194 7855
L30251 7883
L30279 7911
L30307 7968
L30335 8080
L30335 8221
L30307 8333
L30279 8390
L30251 8418
L30194 8446
L30138 8446
L30082 8418
L30054 8390
L30026 8333
L29998 8221
L29998 8080
L30026 7968
L30054 7911
L30082 7883
L30138 7855
" />
<path d="M30532 8671
L30560 8643
L30616 8558
L30644 8502
L30672 8418
L30701 8277
L30701 8165
L30672 8024
L30644 7940
L30616 7883
L30560 7799
L30532 7771
" />
</g>
<g style="fill:#000000; fill-opacity:0.0; 
stroke:#000000; stroke-width:98.4252; stroke-opacity:1; 
stroke-linecap:round; stroke-linejoin:round;">
<path d="M9666 24907
L9685 24851
L9704 24832
L9741 24814
L9797 24814
L9835 24832
L9854 24851
L9872 24889
L9872 25039
L9479 25039
L9479 24907
L9498 24870
L9516 24851
L9554 24832
L9591 24832
L9629 24851
L9648 24870
L9666 24907
L9666 25039
" />
<path d="M9872 24457
L9872 24645
L9479 24645
" />
<path d="M9760 24345
L9760 24157
" />
<path d="M9872 24382
L9479 24251
L9872 24120
" />
<path d="M9872 23989
L9479 23989
L9872 23764
L9479 23764
" />
<path d="M9872 23576
L9479 23576
" />
<path d="M9872 23351
L9648 23520
" />
<path d="M9479 23351
L9704 23576
" />
<path d="M10543 25057
L10561 25001
L10561 24907
L10543 24870
L10524 24851
L10486 24832
L10449 24832
L10411 24851
L10393 24870
L10374 24907
L10355 24982
L10336 25020
L10318 25039
L10280 25057
L10243 25057
L10205 25039
L10187 25020
L10168 24982
L10168 24889
L10187 24832
" />
<path d="M10561 24664
L10168 24664
" />
<path d="M10561 24476
L10168 24476
L10561 24251
L10168 24251
" />
<path d="M10149 23783
L10655 24120
" />
<path d="M10543 23670
L10561 23614
L10561 23520
L10543 23483
L10524 23464
L10486 23445
L10449 23445
L10411 23464
L10393 23483
L10374 23520
L10355 23595
L10336 23633
L10318 23651
L10280 23670
L10243 23670
L10205 23651
L10187 23633
L10168 23595
L10168 23501
L10187 23445
" />
<path d="M10168 23201
L10168 23126
L10187 23089
L10224 23051
L10299 23033
L10430 23033
L10505 23051
L10543 23089
L10561 23126
L10561 23201
L10543 23239
L10505 23276
L10430 23295
L10299 23295
L10224 23276
L10187 23239
L10168 23201
" />
<path d="M10168 22864
L10486 22864
L10524 22845
L10543 22826
L10561 22789
L10561 22714
L10543 22676
L10524 22658
L10486 22639
L10168 22639
" />
<path d="M10168 22508
L10168 22283
" />
<path d="M10561 22395
L10168 22395
" />
<path d="M11232 25057
L11250 25001
L11250 24907
L11232 24870
L11213 24851
L11175 24832
L11138 24832
L11100 24851
L11082 24870
L11063 24907
L11044 24982
L11025 25020
L11007 25039
L10969 25057
L10932 25057
L10894 25039
L10875 25020
L10857 24982
L10857 24889
L10875 24832
" />
<path d="M11213 24439
L11232 24457
L11250 24514
L11250 24551
L11232 24607
L11194 24645
L11157 24664
L11082 24682
L11025 24682
L10950 24664
L10913 24645
L10875 24607
L10857 24551
L10857 24514
L10875 24457
L10894 24439
" />
<path d="M11250 24083
L11250 24270
L10857 24270
" />
<path d="M11250 23951
L10857 23951
" />
<path d="M11250 23726
L11025 23895
" />
<path d="M10857 23726
L11082 23951
" />
<path d="M11546 25076
L11939 24814
" />
<path d="M11546 24814
L11939 25076
" />
<path d="M11733 24664
L11733 24532
" />
<path d="M11939 24476
L11939 24664
L11546 24664
L11546 24476
" />
<path d="M11939 24083
L11752 24214
" />
<path d="M11939 24307
L11546 24307
L11546 24157
L11564 24120
L11583 24101
L11621 24083
L11677 24083
L11714 24101
L11733 24120
L11752 24157
L11752 24307
" />
<path d="M11939 23689
L11752 23820
" />
<path d="M11939 23914
L11546 23914
L11546 23764
L11564 23726
L11583 23708
L11621 23689
L11677 23689
L11714 23708
L11733 23726
L11752 23764
L11752 23914
" />
<path d="M12235 25076
L12628 24814
" />
<path d="M12235 24814
L12628 25076
" />
<path d="M12628 24476
L12628 24664
L12235 24664
" />
<path d="M12516 24364
L12516 24176
" />
<path d="M12628 24401
L12235 24270
L12628 24139
" />
<path d="M12235 24064
L12235 23839
" />
<path d="M12628 23951
L12235 23951
" />
<path d="M12942 24832
L12924 24870
L12924 24926
L12942 24982
L12980 25020
L13017 25039
L13092 25057
L13149 25057
L13224 25039
L13261 25020
L13299 24982
L13317 24926
L13317 24889
L13299 24832
L13280 24814
L13149 24814
L13149 24889
" />
<path d="M13299 24664
L13317 24607
L13317 24514
L13299 24476
L13280 24457
L13242 24439
L13205 24439
L13167 24457
L13149 24476
L13130 24514
L13111 24589
L13092 24626
L13074 24645
L13036 24664
L12999 24664
L12961 24645
L12942 24626
L12924 24589
L12924 24495
L12942 24439
" />
<path d="M13280 24045
L13299 24064
L13317 24120
L13317 24157
L13299 24214
L13261 24251
L13224 24270
L13149 24289
L13092 24289
L13017 24270
L12980 24251
L12942 24214
L12924 24157
L12924 24120
L12942 24064
L12961 24045
" />
<path d="M13317 23689
L13317 23876
L12924 23876
" />
<path d="M13317 23558
L12924 23558
" />
<path d="M13317 23333
L13092 23501
" />
<path d="M12924 23333
L13149 23558
" />
</g>
<g style="fill:#000000; fill-opacity:0.0; 
stroke:#000000; stroke-width:118.11; stroke-opacity:1; 
stroke-linecap:round; stroke-linejoin:round;">
<path d="M16949 8703
L17399 8703
" />
<path d="M17174 8928
L17174 8478
" />
<path d="M17962 8338
L17680 8338
L17652 8619
L17680 8591
L17737 8562
L17877 8562
L17933 8591
L17962 8619
L17990 8675
L17990 8816
L17962 8872
L17933 8900
L17877 8928
L17737 8928
L17680 8900
L17652 8872
" />
<path d="M18158 8338
L18355 8928
L18552 8338
" />
<path d="M16949 7128
L17399 7128
" />
<path d="M17174 7353
L17174 6903
" />
<path d="M17990 7353
L17652 7353
" />
<path d="M17821 7353
L17821 6763
L17765 6847
L17708 6903
L17652 6931
" />
<path d="M18215 6819
L18243 6791
L18299 6763
L18440 6763
L18496 6791
L18524 6819
L18552 6875
L18552 6931
L18524 7016
L18187 7353
L18552 7353
" />
<path d="M18721 6763
L18918 7353
L19115 6763
" />
<path d="M14440 20542
L13849 20542
" />
<path d="M14046 20261
L14440 20261
" />
<path d="M14102 20261
L14074 20233
L14046 20177
L14046 20092
L14074 20036
L14131 20008
L14440 20008
" />
<path d="M13849 17814
L13849 17702
L13877 17646
L13934 17589
L14046 17561
L14243 17561
L14356 17589
L14412 17646
L14440 17702
L14440 17814
L14412 17871
L14356 17927
L14243 17955
L14046 17955
L13934 17927
L13877 17871
L13849 17814
" />
<path d="M14046 17055
L14440 17055
" />
<path d="M14046 17308
L14356 17308
L14412 17280
L14440 17224
L14440 17140
L14412 17083
L14384 17055
" />
<path d="M14046 16858
L14046 16633
" />
<path d="M13849 16774
L14356 16774
L14412 16746
L14440 16690
L14440 16633
" />
</g>
<g style="fill:#000000; fill-opacity:0.0; 
stroke:#000000; stroke-width:47.2441; stroke-opacity:1; 
stroke-linecap:round; stroke-linejoin:round;">
<path d="M16358 23381
L20405 23381
" />
<path d="M16358 9287
L16358 23381
" />
<path d="M20405 9287
L16358 9287
" />
<path d="M20405 23381
L20405 9287
" />
<path d="M17338 23358
L17988 23358
" />
<path d="M17338 9311
L17338 23358
" />
<path d="M19425 9311
L17338 9311
" />
<path d="M19425 23358
L19425 9311
" />
<path d="M18775 23358
L19425 23358
" />
<path d="M18775.6 23358.3 A393.701 393.701 0.0 0 0 17988.2 23358.3 " />
<path d="M31673 16358
L31673 18700
" />
<path d="M31673 18700
L34665 18700
" />
<path d="M34665 18700
L34665 16358
" />
<path d="M34665 16358
L31673 16358
" />
<path d="M32972 16358
L32972 16653
" />
<path d="M32972 16653
L33366 16653
" />
<path d="M33366 16653
L33366 16358
" />
<path d="M33366 16358
L32972 16358
" />
<path d="M31673 16358
L31673 16653
" />
<path d="M31673 16653
L32381 16653
" />
<path d="M32381 16653
L32381 16358
" />
<path d="M32381 16358
L31673 16358
" />
<path d="M33956 16358
L33956 16653
" />
<path d="M33956 16653
L34665 16653
" />
<path d="M34665 16653
L34665 16358
" />
<path d="M34665 16358
L33956 16358
" />
<path d="M31673 17244
L31968 17244
" />
<path d="M31968 17244
L31968 18405
" />
<path d="M31968 18405
L33169 18405
" />
<path d="M34665 17244
L34370 17244
" />
<path d="M34370 17244
L34370 18405
" />
<path d="M34370 18405
L33169 18405
" />
<path d="M32539 16240
L31555 16240
" />
<path d="M31555 16240
L31555 17224
" />
<path d="M21043 13208
L21043 15551
" />
<path d="M21043 15551
L24035 15551
" />
<path d="M24035 15551
L24035 13208
" />
<path d="M24035 13208
L21043 13208
" />
<path d="M22342 13208
L22342 13503
" />
<path d="M22342 13503
L22736 13503
" />
<path d="M22736 13503
L22736 13208
" />
<path d="M22736 13208
L22342 13208
" />
<path d="M21043 13208
L21043 13503
" />
<path d="M21043 13503
L21751 13503
" />
<path d="M21751 13503
L21751 13208
" />
<path d="M21751 13208
L21043 13208
" />
<path d="M23326 13208
L23326 13503
" />
<path d="M23326 13503
L24035 13503
" />
<path d="M24035 13503
L24035 13208
" />
<path d="M24035 13208
L23326 13208
" />
<path d="M21043 14094
L21338 14094
" />
<path d="M21338 14094
L21338 15255
" />
<path d="M21338 15255
L22539 15255
" />
<path d="M24035 14094
L23740 14094
" />
<path d="M23740 14094
L23740 15255
" />
<path d="M23740 15255
L22539 15255
" />
<path d="M21909 13090
L20925 13090
" />
<path d="M20925 13090
L20925 14074
" />
<path d="M12578 11220
L12224 11220
" />
<path d="M12401 11043
L12401 11397
" />
<path d="M12466 12925
L12336 12925
" />
<path d="M12564 12909
L12238 12909
" />
<path d="M12624 12894
L12178 12894
" />
<path d="M12671 12878
L12131 12878
" />
<path d="M12711 12862
L12092 12862
" />
<path d="M12745 12846
L12057 12846
" />
<path d="M12776 12831
L12026 12831
" />
<path d="M12804 12815
L11998 12815
" />
<path d="M12094 12799
L11973 12799
" />
<path d="M12829 12799
L12708 12799
" />
<path d="M12094 12783
L11949 12783
" />
<path d="M12853 12783
L12708 12783
" />
<path d="M12094 12768
L11927 12768
" />
<path d="M12875 12768
L12708 12768
" />
<path d="M12094 12752
L11907 12752
" />
<path d="M12896 12752
L12708 12752
" />
<path d="M12094 12736
L11887 12736
" />
<path d="M12915 12736
L12708 12736
" />
<path d="M12094 12720
L11869 12720
" />
<path d="M12933 12720
L12708 12720
" />
<path d="M12094 12705
L11852 12705
" />
<path d="M12950 12705
L12708 12705
" />
<path d="M12094 12689
L11836 12689
" />
<path d="M12966 12689
L12708 12689
" />
<path d="M12094 12673
L11820 12673
" />
<path d="M12982 12673
L12708 12673
" />
<path d="M12094 12657
L11806 12657
" />
<path d="M12996 12657
L12708 12657
" />
<path d="M12094 12642
L11792 12642
" />
<path d="M13010 12642
L12708 12642
" />
<path d="M12094 12626
L11779 12626
" />
<path d="M13024 12626
L12708 12626
" />
<path d="M12094 12610
L11766 12610
" />
<path d="M13036 12610
L12708 12610
" />
<path d="M12094 12594
L11754 12594
" />
<path d="M13048 12594
L12708 12594
" />
<path d="M12094 12579
L11743 12579
" />
<path d="M13059 12579
L12708 12579
" />
<path d="M12094 12563
L11732 12563
" />
<path d="M13070 12563
L12708 12563
" />
<path d="M12094 12547
L11722 12547
" />
<path d="M13080 12547
L12708 12547
" />
<path d="M12094 12531
L11712 12531
" />
<path d="M13090 12531
L12708 12531
" />
<path d="M12094 12516
L11703 12516
" />
<path d="M13099 12516
L12708 12516
" />
<path d="M12094 12500
L11694 12500
" />
<path d="M13108 12500
L12708 12500
" />
<path d="M12094 12484
L11686 12484
" />
<path d="M13116 12484
L12708 12484
" />
<path d="M12094 12468
L11678 12468
" />
<path d="M13124 12468
L12708 12468
" />
<path d="M12094 12453
L11670 12453
" />
<path d="M13132 12453
L12708 12453
" />
<path d="M12094 12437
L11663 12437
" />
<path d="M13139 12437
L12708 12437
" />
<path d="M12094 12421
L11657 12421
" />
<path d="M13146 12421
L12708 12421
" />
<path d="M12094 12405
L11650 12405
" />
<path d="M13152 12405
L12708 12405
" />
<path d="M12094 12390
L11644 12390
" />
<path d="M13158 12390
L12708 12390
" />
<path d="M12094 12374
L11638 12374
" />
<path d="M13164 12374
L12708 12374
" />
<path d="M12094 12358
L11633 12358
" />
<path d="M13169 12358
L12708 12358
" />
<path d="M12094 12342
L11628 12342
" />
<path d="M13174 12342
L12708 12342
" />
<path d="M12094 12326
L11624 12326
" />
<path d="M13178 12326
L12708 12326
" />
<path d="M12094 12311
L11620 12311
" />
<path d="M13183 12311
L12708 12311
" />
<path d="M12094 12295
L11616 12295
" />
<path d="M13187 12295
L12708 12295
" />
<path d="M12094 12279
L11612 12279
" />
<path d="M13190 12279
L12708 12279
" />
<path d="M12094 12263
L11609 12263
" />
<path d="M13193 12263
L12708 12263
" />
<path d="M12094 12248
L11606 12248
" />
<path d="M13196 12248
L12708 12248
" />
<path d="M12094 12232
L11603 12232
" />
<path d="M13199 12232
L12708 12232
" />
<path d="M12094 12216
L11601 12216
" />
<path d="M13201 12216
L12708 12216
" />
<path d="M12094 12200
L11599 12200
" />
<path d="M13203 12200
L12708 12200
" />
<path d="M13205 12185
L11598 12185
" />
<path d="M13206 12169
L11596 12169
" />
<path d="M13207 12153
L11595 12153
" />
<path d="M13208 12137
L11594 12137
" />
<path d="M13208 12122
L11594 12122
" />
<path d="M13208 12106
L11594 12106
" />
<path d="M12016.1 12833.2 A822.835 822.835 0.0 0 0 12787.4 12833.1 " />
<path d="M12015.7 11379.5 A822.835 822.835 0.0 0 0 12016.1 12833.2 " />
<path d="M12787.1 12833.2 A822.835 822.835 0.0 0 0 12787.4 11379.5 " />
<path d="M31673 19507
L31673 21850
" />
<path d="M31673 21850
L34665 21850
" />
<path d="M34665 21850
L34665 19507
" />
<path d="M34665 19507
L31673 19507
" />
<path d="M32972 19507
L32972 19803
" />
<path d="M32972 19803
L33366 19803
" />
<path d="M33366 19803
L33366 19507
" />
<path d="M33366 19507
L32972 19507
" />
<path d="M31673 19507
L31673 19803
" />
<path d="M31673 19803
L32381 19803
" />
<path d="M32381 19803
L32381 19507
" />
<path d="M32381 19507
L31673 19507
" />
<path d="M33956 19507
L33956 19803
" />
<path d="M33956 19803
L34665 19803
" />
<path d="M34665 19803
L34665 19507
" />
<path d="M34665 19507
L33956 19507
" />
<path d="M31673 20393
L31968 20393
" />
<path d="M31968 20393
L31968 21555
" />
<path d="M31968 21555
L33169 21555
" />
<path d="M34665 20393
L34370 20393
" />
<path d="M34370 20393
L34370 21555
" />
<path d="M34370 21555
L33169 21555
" />
<path d="M32539 19389
L31555 19389
" />
<path d="M31555 19389
L31555 20374
" />
<path d="M28011 19389
L28011 20374
" />
<path d="M28996 19389
L28011 19389
" />
<path d="M30826 21555
L29625 21555
" />
<path d="M30826 20393
L30826 21555
" />
<path d="M31122 20393
L30826 20393
" />
<path d="M28425 21555
L29625 21555
" />
<path d="M28425 20393
L28425 21555
" />
<path d="M28129 20393
L28425 20393
" />
<path d="M31122 19507
L30413 19507
" />
<path d="M31122 19803
L31122 19507
" />
<path d="M30413 19803
L31122 19803
" />
<path d="M30413 19507
L30413 19803
" />
<path d="M28838 19507
L28129 19507
" />
<path d="M28838 19803
L28838 19507
" />
<path d="M28129 19803
L28838 19803
" />
<path d="M28129 19507
L28129 19803
" />
<path d="M29822 19507
L29429 19507
" />
<path d="M29822 19803
L29822 19507
" />
<path d="M29429 19803
L29822 19803
" />
<path d="M29429 19507
L29429 19803
" />
<path d="M31122 19507
L28129 19507
" />
<path d="M31122 21850
L31122 19507
" />
<path d="M28129 21850
L31122 21850
" />
<path d="M28129 19507
L28129 21850
" />
<path d="M24586 19507
L24586 21850
" />
<path d="M24586 21850
L27578 21850
" />
<path d="M27578 21850
L27578 19507
" />
<path d="M27578 19507
L24586 19507
" />
<path d="M25885 19507
L25885 19803
" />
<path d="M25885 19803
L26279 19803
" />
<path d="M26279 19803
L26279 19507
" />
<path d="M26279 19507
L25885 19507
" />
<path d="M24586 19507
L24586 19803
" />
<path d="M24586 19803
L25295 19803
" />
<path d="M25295 19803
L25295 19507
" />
<path d="M25295 19507
L24586 19507
" />
<path d="M26870 19507
L26870 19803
" />
<path d="M26870 19803
L27578 19803
" />
<path d="M27578 19803
L27578 19507
" />
<path d="M27578 19507
L26870 19507
" />
<path d="M24586 20393
L24881 20393
" />
<path d="M24881 20393
L24881 21555
" />
<path d="M24881 21555
L26082 21555
" />
<path d="M27578 20393
L27283 20393
" />
<path d="M27283 20393
L27283 21555
" />
<path d="M27283 21555
L26082 21555
" />
<path d="M25452 19389
L24468 19389
" />
<path d="M24468 19389
L24468 20374
" />
<path d="M20925 19389
L20925 20374
" />
<path d="M21909 19389
L20925 19389
" />
<path d="M23740 21555
L22539 21555
" />
<path d="M23740 20393
L23740 21555
" />
<path d="M24035 20393
L23740 20393
" />
<path d="M21338 21555
L22539 21555
" />
<path d="M21338 20393
L21338 21555
" />
<path d="M21043 20393
L21338 20393
" />
<path d="M24035 19507
L23326 19507
" />
<path d="M24035 19803
L24035 19507
" />
<path d="M23326 19803
L24035 19803
" />
<path d="M23326 19507
L23326 19803
" />
<path d="M21751 19507
L21043 19507
" />
<path d="M21751 19803
L21751 19507
" />
<path d="M21043 19803
L21751 19803
" />
<path d="M21043 19507
L21043 19803
" />
<path d="M22736 19507
L22342 19507
" />
<path d="M22736 19803
L22736 19507
" />
<path d="M22342 19803
L22736 19803
" />
<path d="M22342 19507
L22342 19803
" />
<path d="M24035 19507
L21043 19507
" />
<path d="M24035 21850
L24035 19507
" />
<path d="M21043 21850
L24035 21850
" />
<path d="M21043 19507
L21043 21850
" />
<path d="M28011 16240
L28011 17224
" />
<path d="M28996 16240
L28011 16240
" />
<path d="M30826 18405
L29625 18405
" />
<path d="M30826 17244
L30826 18405
" />
<path d="M31122 17244
L30826 17244
" />
<path d="M28425 18405
L29625 18405
" />
<path d="M28425 17244
L28425 18405
" />
<path d="M28129 17244
L28425 17244
" />
<path d="M31122 16358
L30413 16358
" />
<path d="M31122 16653
L31122 16358
" />
<path d="M30413 16653
L31122 16653
" />
<path d="M30413 16358
L30413 16653
" />
<path d="M28838 16358
L28129 16358
" />
<path d="M28838 16653
L28838 16358
" />
<path d="M28129 16653
L28838 16653
" />
<path d="M28129 16358
L28129 16653
" />
<path d="M29822 16358
L29429 16358
" />
<path d="M29822 16653
L29822 16358
" />
<path d="M29429 16653
L29822 16653
" />
<path d="M29429 16358
L29429 16653
" />
<path d="M31122 16358
L28129 16358
" />
<path d="M31122 18700
L31122 16358
" />
<path d="M28129 18700
L31122 18700
" />
<path d="M28129 16358
L28129 18700
" />
<path d="M24586 16358
L24586 18700
" />
<path d="M24586 18700
L27578 18700
" />
<path d="M27578 18700
L27578 16358
" />
<path d="M27578 16358
L24586 16358
" />
<path d="M25885 16358
L25885 16653
" />
<path d="M25885 16653
L26279 16653
" />
<path d="M26279 16653
L26279 16358
" />
<path d="M26279 16358
L25885 16358
" />
<path d="M24586 16358
L24586 16653
" />
<path d="M24586 16653
L25295 16653
" />
<path d="M25295 16653
L25295 16358
" />
<path d="M25295 16358
L24586 16358
" />
<path d="M26870 16358
L26870 16653
" />
<path d="M26870 16653
L27578 16653
" />
<path d="M27578 16653
L27578 16358
" />
<path d="M27578 16358
L26870 16358
" />
<path d="M24586 17244
L24881 17244
" />
<path d="M24881 17244
L24881 18405
" />
<path d="M24881 18405
L26082 18405
" />
<path d="M27578 17244
L27283 17244
" />
<path d="M27283 17244
L27283 18405
" />
<path d="M27283 18405
L26082 18405
" />
<path d="M25452 16240
L24468 16240
" />
<path d="M24468 16240
L24468 17224
" />
<path d="M20925 16240
L20925 17224
" />
<path d="M21909 16240
L20925 16240
" />
<path d="M23740 18405
L22539 18405
" />
<path d="M23740 17244
L23740 18405
" />
<path d="M24035 17244
L23740 17244
" />
<path d="M21338 18405
L22539 18405
" />
<path d="M21338 17244
L21338 18405
" />
<path d="M21043 17244
L21338 17244
" />
<path d="M24035 16358
L23326 16358
" />
<path d="M24035 16653
L24035 16358
" />
<path d="M23326 16653
L24035 16653
" />
<path d="M23326 16358
L23326 16653
" />
<path d="M21751 16358
L21043 16358
" />
<path d="M21751 16653
L21751 16358
" />
<path d="M21043 16653
L21751 16653
" />
<path d="M21043 16358
L21043 16653
" />
<path d="M22736 16358
L22342 16358
" />
<path d="M22736 16653
L22736 16358
" />
<path d="M22342 16653
L22736 16653
" />
<path d="M22342 16358
L22342 16653
" />
<path d="M24035 16358
L21043 16358
" />
<path d="M24035 18700
L24035 16358
" />
<path d="M21043 18700
L24035 18700
" />
<path d="M21043 16358
L21043 18700
" />
<path d="M31673 13208
L31673 15551
" />
<path d="M31673 15551
L34665 15551
" />
<path d="M34665 15551
L34665 13208
" />
<path d="M34665 13208
L31673 13208
" />
<path d="M32972 13208
L32972 13503
" />
<path d="M32972 13503
L33366 13503
" />
<path d="M33366 13503
L33366 13208
" />
<path d="M33366 13208
L32972 13208
" />
<path d="M31673 13208
L31673 13503
" />
<path d="M31673 13503
L32381 13503
" />
<path d="M32381 13503
L32381 13208
" />
<path d="M32381 13208
L31673 13208
" />
<path d="M33956 13208
L33956 13503
" />
<path d="M33956 13503
L34665 13503
" />
<path d="M34665 13503
L34665 13208
" />
<path d="M34665 13208
L33956 13208
" />
<path d="M31673 14094
L31968 14094
" />
<path d="M31968 14094
L31968 15255
" />
<path d="M31968 15255
L33169 15255
" />
<path d="M34665 14094
L34370 14094
" />
<path d="M34370 14094
L34370 15255
" />
<path d="M34370 15255
L33169 15255
" />
<path d="M32539 13090
L31555 13090
" />
<path d="M31555 13090
L31555 14074
" />
<path d="M28011 13090
L28011 14074
" />
<path d="M28996 13090
L28011 13090
" />
<path d="M30826 15255
L29625 15255
" />
<path d="M30826 14094
L30826 15255
" />
<path d="M31122 14094
L30826 14094
" />
<path d="M28425 15255
L29625 15255
" />
<path d="M28425 14094
L28425 15255
" />
<path d="M28129 14094
L28425 14094
" />
<path d="M31122 13208
L30413 13208
" />
<path d="M31122 13503
L31122 13208
" />
<path d="M30413 13503
L31122 13503
" />
<path d="M30413 13208
L30413 13503
" />
<path d="M28838 13208
L28129 13208
" />
<path d="M28838 13503
L28838 13208
" />
<path d="M28129 13503
L28838 13503
" />
<path d="M28129 13208
L28129 13503
" />
<path d="M29822 13208
L29429 13208
" />
<path d="M29822 13503
L29822 13208
" />
<path d="M29429 13503
L29822 13503
" />
<path d="M29429 13208
L29429 13503
" />
<path d="M31122 13208
L28129 13208
" />
<path d="M31122 15551
L31122 13208
" />
<path d="M28129 15551
L31122 15551
" />
<path d="M28129 13208
L28129 15551
" />
<path d="M24468 13090
L24468 14074
" />
<path d="M25452 13090
L24468 13090
" />
<path d="M27283 15255
L26082 15255
" />
<path d="M27283 14094
L27283 15255
" />
<path d="M27578 14094
L27283 14094
" />
<path d="M24881 15255
L26082 15255
" />
<path d="M24881 14094
L24881 15255
" />
<path d="M24586 14094
L24881 14094
" />
<path d="M27578 13208
L26870 13208
" />
<path d="M27578 13503
L27578 13208
" />
<path d="M26870 13503
L27578 13503
" />
<path d="M26870 13208
L26870 13503
" />
<path d="M25295 13208
L24586 13208
" />
<path d="M25295 13503
L25295 13208
" />
<path d="M24586 13503
L25295 13503
" />
<path d="M24586 13208
L24586 13503
" />
<path d="M26279 13208
L25885 13208
" />
<path d="M26279 13503
L26279 13208
" />
<path d="M25885 13503
L26279 13503
" />
<path d="M25885 13208
L25885 13503
" />
<path d="M27578 13208
L24586 13208
" />
<path d="M27578 15551
L27578 13208
" />
<path d="M24586 15551
L27578 15551
" />
<path d="M24586 13208
L24586 15551
" />
<path d="M31555 9940
L31555 10925
" />
<path d="M32539 9940
L31555 9940
" />
<path d="M34370 12106
L33169 12106
" />
<path d="M34370 10944
L34370 12106
" />
<path d="M34665 10944
L34370 10944
" />
<path d="M31968 12106
L33169 12106
" />
<path d="M31968 10944
L31968 12106
" />
<path d="M31673 10944
L31968 10944
" />
<path d="M34665 10059
L33956 10059
" />
<path d="M34665 10354
L34665 10059
" />
<path d="M33956 10354
L34665 10354
" />
<path d="M33956 10059
L33956 10354
" />
<path d="M32381 10059
L31673 10059
" />
<path d="M32381 10354
L32381 10059
" />
<path d="M31673 10354
L32381 10354
" />
<path d="M31673 10059
L31673 10354
" />
<path d="M33366 10059
L32972 10059
" />
<path d="M33366 10354
L33366 10059
" />
<path d="M32972 10354
L33366 10354
" />
<path d="M32972 10059
L32972 10354
" />
<path d="M34665 10059
L31673 10059
" />
<path d="M34665 12401
L34665 10059
" />
<path d="M31673 12401
L34665 12401
" />
<path d="M31673 10059
L31673 12401
" />
<path d="M28129 10059
L28129 12401
" />
<path d="M28129 12401
L31122 12401
" />
<path d="M31122 12401
L31122 10059
" />
<path d="M31122 10059
L28129 10059
" />
<path d="M29429 10059
L29429 10354
" />
<path d="M29429 10354
L29822 10354
" />
<path d="M29822 10354
L29822 10059
" />
<path d="M29822 10059
L29429 10059
" />
<path d="M28129 10059
L28129 10354
" />
<path d="M28129 10354
L28838 10354
" />
<path d="M28838 10354
L28838 10059
" />
<path d="M28838 10059
L28129 10059
" />
<path d="M30413 10059
L30413 10354
" />
<path d="M30413 10354
L31122 10354
" />
<path d="M31122 10354
L31122 10059
" />
<path d="M31122 10059
L30413 10059
" />
<path d="M28129 10944
L28425 10944
" />
<path d="M28425 10944
L28425 12106
" />
<path d="M28425 12106
L29625 12106
" />
<path d="M31122 10944
L30826 10944
" />
<path d="M30826 10944
L30826 12106
" />
<path d="M30826 12106
L29625 12106
" />
<path d="M28996 9940
L28011 9940
" />
<path d="M28011 9940
L28011 10925
" />
<path d="M24468 9940
L24468 10925
" />
<path d="M25452 9940
L24468 9940
" />
<path d="M27283 12106
L26082 12106
" />
<path d="M27283 10944
L27283 12106
" />
<path d="M27578 10944
L27283 10944
" />
<path d="M24881 12106
L26082 12106
" />
<path d="M24881 10944
L24881 12106
" />
<path d="M24586 10944
L24881 10944
" />
<path d="M27578 10059
L26870 10059
" />
<path d="M27578 10354
L27578 10059
" />
<path d="M26870 10354
L27578 10354
" />
<path d="M26870 10059
L26870 10354
" />
<path d="M25295 10059
L24586 10059
" />
<path d="M25295 10354
L25295 10059
" />
<path d="M24586 10354
L25295 10354
" />
<path d="M24586 10059
L24586 10354
" />
<path d="M26279 10059
L25885 10059
" />
<path d="M26279 10354
L26279 10059
" />
<path d="M25885 10354
L26279 10354
" />
<path d="M25885 10059
L25885 10354
" />
<path d="M27578 10059
L24586 10059
" />
<path d="M27578 12401
L27578 10059
" />
<path d="M24586 12401
L27578 12401
" />
<path d="M24586 10059
L24586 12401
" />
<path d="M21043 10059
L21043 12401
" />
<path d="M21043 12401
L24035 12401
" />
<path d="M24035 12401
L24035 10059
" />
<path d="M24035 10059
L21043 10059
" />
<path d="M22342 10059
L22342 10354
" />
<path d="M22342 10354
L22736 10354
" />
<path d="M22736 10354
L22736 10059
" />
<path d="M22736 10059
L22342 10059
" />
<path d="M21043 10059
L21043 10354
" />
<path d="M21043 10354
L21751 10354
" />
<path d="M21751 10354
L21751 10059
" />
<path d="M21751 10059
L21043 10059
" />
<path d="M23326 10059
L23326 10354
" />
<path d="M23326 10354
L24035 10354
" />
<path d="M24035 10354
L24035 10059
" />
<path d="M24035 10059
L23326 10059
" />
<path d="M21043 10944
L21338 10944
" />
<path d="M21338 10944
L21338 12106
" />
<path d="M21338 12106
L22539 12106
" />
<path d="M24035 10944
L23740 10944
" />
<path d="M23740 10944
L23740 12106
" />
<path d="M23740 12106
L22539 12106
" />
<path d="M21909 9940
L20925 9940
" />
<path d="M20925 9940
L20925 10925
" />
<path d="M15877 23358
L15354 23358
" />
<path d="M15877 22834
L15877 23358
" />
<path d="M14830 22334
L15877 22334
" />
<path d="M14830 20311
L14830 22334
" />
<path d="M15877 20311
L14830 20311
" />
<path d="M15877 22334
L15877 20311
" />
<path d="M6581 19113
L6581 21455
" />
<path d="M6581 21455
L13510 21455
" />
<path d="M13510 21455
L13510 19113
" />
<path d="M13510 19113
L6581 19113
" />
<path d="M7880 19113
L7880 19408
" />
<path d="M7880 19408
L12211 19408
" />
<path d="M12211 19408
L12211 19113
" />
<path d="M12211 19113
L7880 19113
" />
<path d="M6581 19113
L6581 19408
" />
<path d="M6581 19408
L7290 19408
" />
<path d="M7290 19408
L7290 19113
" />
<path d="M7290 19113
L6581 19113
" />
<path d="M12801 19113
L12801 19408
" />
<path d="M12801 19408
L13510 19408
" />
<path d="M13510 19408
L13510 19113
" />
<path d="M13510 19113
L12801 19113
" />
<path d="M6581 19998
L6876 19998
" />
<path d="M6876 19998
L6876 21160
" />
<path d="M6876 21160
L10045 21160
" />
<path d="M13510 19998
L13215 19998
" />
<path d="M13215 19998
L13215 21160
" />
<path d="M13215 21160
L10045 21160
" />
<path d="M7447 18994
L6463 18994
" />
<path d="M6463 18994
L6463 19979
" />
<path d="M13628 18601
L13628 17617
" />
<path d="M12644 18601
L13628 18601
" />
<path d="M6876 16435
L10045 16435
" />
<path d="M6876 17597
L6876 16435
" />
<path d="M6581 17597
L6876 17597
" />
<path d="M13215 16435
L10045 16435
" />
<path d="M13215 17597
L13215 16435
" />
<path d="M13510 17597
L13215 17597
" />
<path d="M6581 18483
L7290 18483
" />
<path d="M6581 18187
L6581 18483
" />
<path d="M7290 18187
L6581 18187
" />
<path d="M7290 18483
L7290 18187
" />
<path d="M12801 18483
L13510 18483
" />
<path d="M12801 18187
L12801 18483
" />
<path d="M13510 18187
L12801 18187
" />
<path d="M13510 18483
L13510 18187
" />
<path d="M7880 18483
L12211 18483
" />
<path d="M7880 18187
L7880 18483
" />
<path d="M12211 18187
L7880 18187
" />
<path d="M12211 18483
L12211 18187
" />
<path d="M6581 18483
L13510 18483
" />
<path d="M6581 16140
L6581 18483
" />
<path d="M13510 16140
L6581 16140
" />
<path d="M13510 18483
L13510 16140
" />
<path d="M15551 11606
L15551 12027
" />
<path d="M15551 13913
L15551 13492
" />
<path d="M15212 12027
L15212 13492
" />
<path d="M15889 12027
L15212 12027
" />
<path d="M15889 13492
L15889 12027
" />
<path d="M15212 13492
L15889 13492
" />
</g>
<g style="fill:#000000; fill-opacity:0.0; 
stroke:#000000; stroke-width:59.0551; stroke-opacity:1; 
stroke-linecap:round; stroke-linejoin:round;">
<path d="M10562 15218
L6562 15218
" />
<path d="M10562 10593
L10562 15218
" />
<path d="M6562 10593
L10562 10593
" />
<path d="M6562 15218
L6562 10593
" />
<path d="M9812 11218
L10562 11218
" />
<path d="M9812 14718
L9812 11218
" />
<path d="M10562 14718
L9812 14718
" />
</g>
<g style="fill:#000000; fill-opacity:0.0; 
stroke:#000000; stroke-width:47.2441; stroke-opacity:1; 
stroke-linecap:round; stroke-linejoin:round;">
<path d="M15468 8629
L15468 8568
" />
<path d="M15468 9541
L15468 9480
" />
<path d="M15264.2 8629.92 A590.551 590.551 0.0 0 0 14444.4 8629.99 " />
<path d="M14444.4 9480.25 A590.551 590.551 0.0 0 0 15264.2 9480.31 " />
<path d="M15468.5 8568.69 A783.465 783.465 0.0 0 0 14195.9 8630.47 " />
<path d="M14195.9 9479.77 A783.465 783.465 0.0 0 0 15468.5 9541.54 " />
<path d="M14195.9 7511.26 A783.465 783.465 0.0 0 0 15468.5 7573.04 " />
<path d="M15468.5 6600.19 A783.465 783.465 0.0 0 0 14195.9 6661.97 " />
<path d="M14444.4 7511.75 A590.551 590.551 0.0 0 0 15264.2 7511.81 " />
<path d="M15264.2 6661.42 A590.551 590.551 0.0 0 0 14444.4 6661.48 " />
<path d="M15468 7573
L15468 7511
" />
<path d="M15468 6661
L15468 6600
" />
<path d="M11003 8716
L11003 9393
" />
<path d="M11003 9393
L12468 9393
" />
<path d="M12468 9393
L12468 8716
" />
<path d="M12468 8716
L11003 8716
" />
<path d="M10582 9055
L11003 9055
" />
<path d="M12889 9055
L12468 9055
" />
<path d="M12889 7086
L12468 7086
" />
<path d="M10582 7086
L11003 7086
" />
<path d="M12468 6748
L11003 6748
" />
<path d="M12468 7425
L12468 6748
" />
<path d="M11003 7425
L12468 7425
" />
<path d="M11003 6748
L11003 7425
" />
<path d="M15968 17740
L15133 17740
" />
<path d="M15968 14937
L15133 14937
" />
<path d="M15133 14937
L15133 17740
" />
<path d="M15968 14937
L15968 17740
" />
</g>
<g style="fill:#000000; fill-opacity:1.0; 
stroke:#000000; stroke-width:3.93701; stroke-opacity:1; 
stroke-linecap:round; stroke-linejoin:round;">
<polyline style="fill-rule:evenodd;"
points="24842,24574
24864,24585
24883,24605
24888,24613
24894,24622
24898,24633
24900,24647
24901,24667
24901,24694
24900,24731
24897,24758
24891,24779
24880,24795
24866,24808
24865,24809
24850,24816
24833,24820
24811,24821
24776,24821
24775,24856
24775,24875
24773,24887
24768,24893
24758,24899
24755,24900
24744,24906
24735,24909
24729,24909
24724,24905
24721,24896
24719,24880
24719,24856
24719,24824
24719,24781
24719,24768
24720,24725
24721,24696
24775,24696
24776,24720
24777,24736
24780,24747
24786,24755
24789,24759
24805,24770
24818,24771
24832,24762
24833,24761
24838,24754
24842,24744
24843,24728
24844,24705
24844,24700
24843,24667
24838,24645
24831,24631
24819,24625
24812,24624
24796,24627
24785,24637
24779,24654
24776,24681
24775,24696
24721,24696
24721,24691
24721,24665
24723,24646
24724,24633
24726,24624
24729,24617
24733,24611
24734,24608
24756,24587
24783,24574
24814,24571
24842,24574
" /> 
<polyline style="fill-rule:evenodd;"
points="25281,24577
25300,24588
25313,24599
25322,24610
25328,24623
25332,24641
25335,24665
25335,24698
25335,24721
25335,24808
25311,24818
25287,24829
25284,24735
25283,24700
25282,24674
25280,24656
25278,24645
25275,24638
25271,24633
25270,24632
25251,24625
25232,24628
25221,24636
25217,24641
25213,24648
25211,24659
25210,24676
25210,24701
25210,24727
25210,24759
25209,24782
25207,24797
25203,24807
25197,24814
25186,24819
25173,24824
25158,24830
25159,24728
25160,24692
25161,24665
25162,24645
25164,24632
25167,24622
25170,24614
25175,24608
25197,24586
25224,24573
25253,24570
25281,24577
" /> 
<polyline style="fill-rule:evenodd;"
points="24622,24575
24649,24589
24669,24612
24676,24626
24681,24648
24684,24676
24684,24706
24682,24736
24678,24761
24671,24779
24669,24783
24645,24806
24617,24820
24587,24824
24556,24818
24547,24814
24530,24802
24516,24787
24514,24785
24509,24775
24505,24765
24503,24751
24502,24732
24501,24705
24501,24698
24501,24696
24558,24696
24559,24723
24560,24740
24563,24751
24567,24759
24570,24761
24583,24771
24597,24771
24610,24762
24618,24753
24623,24740
24626,24719
24626,24717
24626,24679
24621,24651
24612,24633
24597,24625
24591,24624
24577,24626
24568,24634
24562,24649
24559,24672
24558,24696
24501,24696
24501,24669
24502,24648
24504,24634
24508,24624
24513,24614
24514,24613
24533,24589
24555,24576
24580,24570
24589,24570
24622,24575
" /> 
<polyline style="fill-rule:evenodd;"
points="25066,24579
25088,24594
25106,24616
25116,24644
25118,24664
25118,24673
25116,24679
25110,24685
25100,24692
25082,24700
25056,24712
25055,24712
25031,24723
25011,24733
24998,24741
24993,24745
24993,24745
24997,24754
25008,24764
25020,24771
25026,24773
25042,24768
25057,24755
25063,24741
25070,24731
25083,24720
25099,24710
25112,24704
25115,24704
25118,24709
25119,24722
25116,24738
25112,24756
25106,24772
25105,24773
25087,24798
25064,24816
25037,24824
25009,24823
24982,24812
24981,24811
24960,24792
24946,24767
24938,24735
24937,24726
24936,24682
24938,24662
24993,24662
24993,24675
24997,24678
25007,24676
25022,24669
25039,24661
25040,24661
25054,24653
25060,24648
25059,24643
25053,24636
25037,24625
25021,24625
25006,24632
24996,24646
24993,24662
24938,24662
24939,24648
24949,24620
24962,24601
24986,24581
25013,24572
25040,24571
25066,24579
" /> 
<polyline style="fill-rule:evenodd;"
points="25541,24547
25543,24571
25545,24584
25547,24590
25551,24590
25553,24590
25569,24585
25591,24585
25614,24590
25627,24597
25642,24608
25652,24621
25659,24636
25664,24658
25666,24686
25667,24723
25667,24731
25667,24812
25649,24818
25636,24822
25629,24824
25629,24824
25628,24819
25628,24804
25627,24781
25627,24754
25627,24737
25627,24703
25626,24679
25625,24663
25624,24652
25621,24645
25616,24639
25614,24637
25595,24626
25575,24625
25557,24634
25554,24637
25549,24643
25545,24651
25543,24661
25542,24676
25541,24699
25541,24731
25541,24812
25523,24818
25510,24822
25503,24824
25503,24824
25503,24819
25502,24803
25502,24779
25501,24748
25501,24712
25501,24671
25501,24515
25520,24507
25538,24499
25541,24547
" /> 
<polyline style="fill-rule:evenodd;"
points="25803,24586
25825,24595
25825,24595
25839,24605
25849,24617
25856,24633
25861,24654
25864,24682
25866,24720
25866,24725
25868,24806
25851,24815
25838,24821
25830,24824
25830,24824
25829,24819
25828,24804
25827,24784
25827,24767
25827,24739
25826,24722
25821,24714
25812,24713
25796,24719
25771,24731
25753,24740
25744,24749
25741,24758
25741,24758
25746,24774
25759,24782
25779,24783
25794,24783
25802,24787
25807,24797
25809,24810
25805,24818
25804,24819
25790,24823
25770,24823
25749,24821
25735,24816
25715,24799
25703,24775
25701,24756
25703,24740
25709,24726
25721,24714
25741,24702
25771,24688
25773,24687
25799,24675
25815,24665
25822,24656
25821,24647
25812,24637
25809,24634
25790,24625
25771,24625
25754,24634
25743,24651
25742,24655
25732,24671
25720,24679
25701,24686
25701,24666
25707,24637
25723,24611
25732,24602
25752,24590
25777,24585
25803,24586
" /> 
<polyline style="fill-rule:evenodd;"
points="25996,24586
26021,24596
26043,24613
26051,24624
26060,24646
26060,24662
26050,24673
26047,24675
26032,24680
26024,24679
26021,24669
26021,24664
26016,24645
26004,24631
25987,24625
25967,24627
25952,24635
25947,24640
25943,24646
25940,24655
25939,24669
25938,24689
25937,24719
25936,24729
25936,24761
25935,24784
25933,24799
25931,24808
25928,24813
25923,24816
25921,24818
25908,24823
25900,24824
25898,24819
25896,24803
25896,24775
25896,24737
25896,24731
25897,24696
25898,24671
25900,24653
25902,24640
25905,24631
25909,24623
25912,24620
25925,24605
25940,24594
25941,24593
25968,24585
25996,24586
" /> 
<polyline style="fill-rule:evenodd;"
points="26255,24632
26255,24674
26255,24707
26254,24732
26253,24750
26252,24762
26250,24771
26246,24779
26244,24783
26225,24805
26200,24819
26173,24824
26145,24819
26129,24811
26112,24797
26100,24780
26093,24757
26090,24726
26090,24704
26090,24703
26130,24703
26130,24728
26131,24745
26134,24756
26138,24764
26144,24770
26162,24782
26182,24783
26201,24773
26202,24772
26208,24765
26212,24757
26214,24745
26215,24726
26215,24705
26215,24679
26214,24661
26211,24650
26207,24642
26203,24637
26186,24626
26166,24625
26147,24633
26143,24637
26137,24643
26133,24652
26131,24664
26130,24683
26130,24703
26090,24703
26091,24668
26096,24641
26105,24621
26118,24605
26129,24597
26149,24588
26171,24584
26192,24585
26204,24590
26209,24591
26212,24586
26214,24574
26215,24555
26217,24534
26220,24521
26224,24514
26232,24509
26237,24507
26255,24499
26255,24632
" /> 
<polyline style="fill-rule:evenodd;"
points="26488,24590
26488,24605
26489,24627
26490,24656
26490,24687
26490,24789
26472,24807
26459,24818
26448,24823
26433,24822
26427,24822
26409,24820
26393,24818
26390,24818
26377,24819
26359,24821
26352,24822
26335,24823
26323,24820
26312,24811
26308,24807
26290,24789
26290,24597
26304,24591
26317,24586
26324,24584
26326,24590
26328,24605
26329,24628
26330,24658
26331,24683
26333,24781
26346,24783
26359,24782
26365,24777
26366,24769
26368,24752
26369,24728
26370,24698
26370,24683
26370,24597
26388,24590
26400,24586
26407,24584
26408,24584
26408,24590
26409,24605
26410,24627
26411,24656
26411,24683
26413,24781
26447,24781
26448,24691
26450,24601
26467,24593
26479,24587
26486,24584
26487,24584
26488,24590
" /> 
<polyline style="fill-rule:evenodd;"
points="26631,24589
26648,24596
26661,24605
26670,24615
26677,24628
26681,24646
26683,24671
26684,24704
26684,24726
26684,24811
26669,24817
26658,24822
26652,24824
26651,24819
26650,24804
26650,24784
26650,24767
26649,24743
26648,24724
26646,24712
26645,24710
26634,24712
26619,24719
26600,24728
26583,24737
26569,24746
26562,24751
26562,24751
26563,24762
26568,24772
26577,24781
26589,24784
26600,24783
26615,24783
26623,24787
26628,24796
26629,24798
26631,24811
26625,24819
26611,24823
26595,24824
26567,24819
26552,24811
26534,24793
26524,24771
26524,24748
26532,24726
26544,24713
26556,24705
26575,24695
26597,24686
26601,24684
26625,24673
26640,24664
26644,24654
26640,24644
26633,24636
26615,24625
26597,24625
26579,24632
26567,24648
26565,24652
26556,24667
26542,24678
26524,24687
26524,24662
26525,24646
26530,24633
26539,24620
26549,24610
26563,24595
26575,24588
26587,24585
26601,24584
26631,24589
" /> 
<polyline style="fill-rule:evenodd;"
points="26831,24590
26838,24593
26854,24605
26868,24624
26877,24644
26878,24654
26874,24668
26863,24675
26852,24679
26847,24680
26845,24674
26840,24661
26838,24656
26826,24636
26808,24626
26786,24626
26784,24626
26773,24632
26764,24643
26758,24661
26754,24686
26753,24721
26753,24740
26753,24770
26752,24790
26751,24802
26748,24810
26744,24814
26738,24817
26738,24817
26727,24822
26721,24824
26720,24819
26719,24804
26719,24781
26718,24753
26718,24732
26719,24692
26720,24662
26723,24640
26727,24623
26735,24611
26745,24602
26754,24595
26778,24587
26805,24585
26831,24590
" /> 
<polyline style="fill-rule:evenodd;"
points="27028,24593
27051,24608
27062,24621
27071,24645
27071,24664
27070,24689
27011,24715
26983,24728
26964,24738
26954,24748
26953,24756
26958,24766
26964,24773
26981,24783
27000,24784
27017,24776
27030,24760
27032,24754
27043,24736
27056,24729
27073,24722
27073,24747
27071,24763
27065,24777
27053,24794
27051,24796
27037,24810
27025,24818
27010,24821
26998,24822
26976,24823
26960,24819
26951,24814
26935,24802
26925,24789
26918,24772
26914,24750
26913,24720
26913,24705
26913,24687
26948,24687
26948,24697
26949,24698
26956,24696
26970,24690
26989,24682
26993,24680
27016,24668
27030,24658
27033,24648
27026,24637
27020,24633
26999,24624
26980,24626
26964,24636
26953,24656
26949,24671
26948,24687
26913,24687
26913,24670
26916,24643
26922,24624
26930,24610
26943,24599
26949,24595
26974,24586
27002,24585
27028,24593
" /> 
<polyline style="fill-rule:evenodd;"
points="25828,22733
25859,22733
25881,22733
25896,22734
25906,22736
25911,22738
25914,22741
25915,22745
25915,22746
25917,22755
25921,22774
25926,22800
25932,22831
25938,22866
25939,22867
25945,22901
25951,22930
25956,22955
25960,22971
25963,22979
25963,22979
25970,22982
25985,22988
26004,22995
26004,22995
26028,23004
26057,23016
26084,23028
26085,23028
26129,23048
26226,22982
26256,22962
26283,22944
26305,22929
26322,22918
26331,22912
26332,22912
26339,22914
26351,22923
26370,22939
26396,22962
26422,22988
26447,23013
26469,23036
26488,23055
26501,23069
26507,23077
26508,23077
26508,23082
26506,23091
26499,23104
26487,23123
26471,23149
26448,23183
26428,23212
26410,23239
26396,23260
26385,23276
26380,23284
26379,23285
26380,23292
26385,23307
26393,23327
26396,23333
26409,23361
26422,23393
26434,23420
26441,23440
26448,23455
26451,23463
26452,23464
26459,23465
26474,23468
26497,23472
26525,23477
26556,23483
26587,23489
26617,23495
26643,23500
26664,23504
26677,23507
26680,23507
26683,23509
26686,23514
26687,23522
26689,23535
26689,23555
26690,23583
26690,23620
26690,23636
26690,23760
26660,23766
26643,23770
26618,23774
26588,23780
26556,23786
26547,23787
26517,23793
26491,23799
26471,23804
26460,23808
26458,23809
26453,23817
26446,23833
26438,23854
26437,23858
26427,23886
26414,23917
26402,23945
26402,23945
26382,23989
26448,24087
26515,24184
26430,24270
26404,24295
26380,24318
26360,24336
26345,24349
26336,24355
26335,24356
26328,24352
26313,24344
26291,24331
26266,24314
26238,24296
26210,24277
26185,24260
26164,24247
26150,24239
26144,24236
26136,24238
26121,24245
26103,24254
26101,24255
26076,24268
26059,24274
26048,24274
26042,24268
26042,24268
26040,24262
26033,24246
26023,24221
26010,24190
25995,24154
25978,24113
25962,24073
25944,24030
25927,23989
25913,23953
25901,23923
25891,23899
25886,23884
25884,23879
25888,23872
25900,23862
25915,23850
25959,23814
25993,23773
26017,23727
26031,23677
26034,23625
26032,23601
26020,23551
25999,23507
25970,23470
25936,23439
25896,23415
25853,23398
25808,23390
25761,23390
25715,23399
25671,23417
25630,23445
25612,23461
25579,23502
25556,23546
25543,23593
25539,23641
25545,23689
25561,23735
25586,23779
25620,23819
25659,23850
25674,23862
25686,23872
25690,23879
25688,23885
25682,23901
25672,23925
25660,23956
25645,23993
25628,24034
25612,24073
25594,24117
25577,24158
25562,24194
25550,24224
25540,24247
25534,24263
25531,24268
25526,24274
25515,24274
25498,24268
25473,24256
25473,24255
25454,24246
25439,24239
25430,24236
25430,24236
25423,24239
25409,24247
25389,24260
25364,24277
25336,24296
25307,24315
25282,24331
25261,24344
25246,24353
25239,24356
25232,24352
25219,24341
25200,24324
25178,24303
25152,24278
25144,24270
25059,24184
25124,24089
25144,24060
25161,24033
25175,24012
25184,23996
25189,23988
25189,23987
25187,23979
25181,23964
25172,23943
25166,23930
25154,23903
25143,23876
25135,23854
25133,23847
25126,23829
25120,23814
25116,23809
25109,23806
25092,23801
25068,23796
25040,23790
25027,23787
24995,23781
24964,23776
24937,23771
24918,23767
24914,23766
24884,23760
24884,23636
24884,23594
24884,23563
24885,23541
24886,23525
24888,23516
24890,23510
24893,23508
24894,23507
24901,23506
24918,23502
24941,23498
24969,23492
25000,23487
25031,23481
25061,23475
25087,23470
25107,23467
25119,23464
25122,23464
25124,23459
25130,23446
25137,23427
25140,23420
25152,23391
25165,23360
25178,23333
25187,23313
25193,23296
25195,23286
25194,23285
25190,23278
25180,23264
25166,23243
25149,23217
25130,23189
25126,23183
25103,23149
25086,23123
25075,23104
25068,23091
25065,23082
25066,23077
25066,23077
25072,23070
25084,23057
25102,23038
25124,23015
25149,22991
25152,22988
25183,22957
25208,22935
25225,22920
25237,22913
25242,22912
25249,22916
25264,22926
25285,22940
25312,22957
25341,22977
25348,22982
25445,23048
25489,23028
25515,23017
25544,23005
25569,22996
25570,22995
25589,22988
25604,22982
25611,22979
25611,22979
25613,22972
25617,22956
25622,22933
25628,22903
25635,22870
25635,22867
25642,22832
25648,22801
25653,22775
25656,22756
25658,22746
25658,22746
25660,22741
25662,22738
25667,22736
25676,22734
25691,22733
25712,22733
25742,22733
25782,22733
25787,22733
25828,22733
" /> 
</g>
<g style="fill:#000000; fill-opacity:0.0; 
stroke:#000000; stroke-width:3.93701; stroke-opacity:1; 
stroke-linecap:round; stroke-linejoin:round;">
</g>
<g style="fill:#000000; fill-opacity:0.0; 
stroke:#000000; stroke-width:59.0551; stroke-opacity:1; 
stroke-linecap:round; stroke-linejoin:round;">
<path d="M18081 23536
L18081 23855
L18100 23892
L18119 23911
L18156 23930
L18231 23930
L18269 23911
L18288 23892
L18306 23855
L18306 23536
" />
<path d="M18700 23930
L18475 23930
" />
<path d="M18588 23930
L18588 23536
L18550 23592
L18513 23630
L18475 23648
" />
<path d="M33038 15729
L33038 16010
L33019 16066
L32981 16104
L32925 16122
L32888 16122
" />
<path d="M33394 15860
L33394 16122
" />
<path d="M33300 15710
L33206 15991
L33450 15991
" />
<path d="M22220 12579
L22220 12860
L22201 12917
L22164 12954
L22108 12973
L22070 12973
" />
<path d="M22614 12973
L22389 12973
" />
<path d="M22501 12973
L22501 12579
L22464 12635
L22426 12673
L22389 12692
" />
<path d="M22989 12973
L22764 12973
" />
<path d="M22876 12973
L22876 12579
L22839 12635
L22801 12673
L22764 12692
" />
<path d="M12542 13549
L12560 13568
L12579 13624
L12579 13662
L12560 13718
L12523 13756
L12485 13774
L12410 13793
L12354 13793
L12279 13774
L12242 13756
L12204 13718
L12185 13662
L12185 13624
L12204 13568
L12223 13549
" />
<path d="M12223 13399
L12204 13381
L12185 13343
L12185 13249
L12204 13212
L12223 13193
L12260 13174
L12298 13174
L12354 13193
L12579 13418
L12579 13174
" />
<path d="M33038 18878
L33038 19160
L33019 19216
L32981 19253
L32925 19272
L32888 19272
" />
<path d="M33300 18878
L33338 18878
L33375 18897
L33394 18916
L33413 18953
L33431 19028
L33431 19122
L33413 19197
L33394 19235
L33375 19253
L33338 19272
L33300 19272
L33263 19253
L33244 19235
L33225 19197
L33206 19122
L33206 19028
L33225 18953
L33244 18916
L33263 18897
L33300 18878
" />
<path d="M29494 18878
L29494 19160
L29476 19216
L29438 19253
L29382 19272
L29344 19272
" />
<path d="M29888 19272
L29663 19272
" />
<path d="M29775 19272
L29775 18878
L29738 18935
L29700 18972
L29663 18991
" />
<path d="M25951 18878
L25951 19160
L25932 19216
L25895 19253
L25838 19272
L25801 19272
" />
<path d="M26120 18916
L26138 18897
L26176 18878
L26270 18878
L26307 18897
L26326 18916
L26345 18953
L26345 18991
L26326 19047
L26101 19272
L26345 19272
" />
<path d="M22408 18878
L22408 19160
L22389 19216
L22351 19253
L22295 19272
L22258 19272
" />
<path d="M22558 18878
L22801 18878
L22670 19028
L22726 19028
L22764 19047
L22783 19066
L22801 19103
L22801 19197
L22783 19235
L22764 19253
L22726 19272
L22614 19272
L22576 19253
L22558 19235
" />
<path d="M29494 15729
L29494 16010
L29476 16066
L29438 16104
L29382 16122
L29344 16122
" />
<path d="M29869 15729
L29682 15729
L29663 15916
L29682 15898
L29719 15879
L29813 15879
L29850 15898
L29869 15916
L29888 15954
L29888 16047
L29869 16085
L29850 16104
L29813 16122
L29719 16122
L29682 16104
L29663 16085
" />
<path d="M25951 15729
L25951 16010
L25932 16066
L25895 16104
L25838 16122
L25801 16122
" />
<path d="M26307 15729
L26232 15729
L26195 15748
L26176 15766
L26138 15823
L26120 15898
L26120 16047
L26138 16085
L26157 16104
L26195 16122
L26270 16122
L26307 16104
L26326 16085
L26345 16047
L26345 15954
L26326 15916
L26307 15898
L26270 15879
L26195 15879
L26157 15898
L26138 15916
L26120 15954
" />
<path d="M22408 15729
L22408 16010
L22389 16066
L22351 16104
L22295 16122
L22258 16122
" />
<path d="M22558 15729
L22820 15729
L22651 16122
" />
<path d="M33038 12579
L33038 12860
L33019 12917
L32981 12954
L32925 12973
L32888 12973
" />
<path d="M33281 12748
L33244 12729
L33225 12710
L33206 12673
L33206 12654
L33225 12617
L33244 12598
L33281 12579
L33356 12579
L33394 12598
L33413 12617
L33431 12654
L33431 12673
L33413 12710
L33394 12729
L33356 12748
L33281 12748
L33244 12767
L33225 12785
L33206 12823
L33206 12898
L33225 12935
L33244 12954
L33281 12973
L33356 12973
L33394 12954
L33413 12935
L33431 12898
L33431 12823
L33413 12785
L33394 12767
L33356 12748
" />
<path d="M29494 12579
L29494 12860
L29476 12917
L29438 12954
L29382 12973
L29344 12973
" />
<path d="M29700 12973
L29775 12973
L29813 12954
L29832 12935
L29869 12879
L29888 12804
L29888 12654
L29869 12617
L29850 12598
L29813 12579
L29738 12579
L29700 12598
L29682 12617
L29663 12654
L29663 12748
L29682 12785
L29700 12804
L29738 12823
L29813 12823
L29850 12804
L29869 12785
L29888 12748
" />
<path d="M25763 12579
L25763 12860
L25745 12917
L25707 12954
L25651 12973
L25613 12973
" />
<path d="M26157 12973
L25932 12973
" />
<path d="M26045 12973
L26045 12579
L26007 12635
L25970 12673
L25932 12692
" />
<path d="M26401 12579
L26438 12579
L26476 12598
L26495 12617
L26513 12654
L26532 12729
L26532 12823
L26513 12898
L26495 12935
L26476 12954
L26438 12973
L26401 12973
L26363 12954
L26345 12935
L26326 12898
L26307 12823
L26307 12729
L26326 12654
L26345 12617
L26363 12598
L26401 12579
" />
<path d="M32850 9430
L32850 9711
L32831 9767
L32794 9805
L32738 9823
L32700 9823
" />
<path d="M33244 9823
L33019 9823
" />
<path d="M33131 9823
L33131 9430
L33094 9486
L33056 9523
L33019 9542
" />
<path d="M33394 9467
L33413 9448
L33450 9430
L33544 9430
L33581 9448
L33600 9467
L33619 9505
L33619 9542
L33600 9598
L33375 9823
L33619 9823
" />
<path d="M29307 9430
L29307 9711
L29288 9767
L29251 9805
L29194 9823
L29157 9823
" />
<path d="M29700 9823
L29476 9823
" />
<path d="M29588 9823
L29588 9430
L29550 9486
L29513 9523
L29476 9542
" />
<path d="M29832 9430
L30075 9430
L29944 9580
L30000 9580
L30038 9598
L30057 9617
L30075 9655
L30075 9748
L30057 9786
L30038 9805
L30000 9823
L29888 9823
L29850 9805
L29832 9786
" />
<path d="M25763 9430
L25763 9711
L25745 9767
L25707 9805
L25651 9823
L25613 9823
" />
<path d="M26157 9823
L25932 9823
" />
<path d="M26045 9823
L26045 9430
L26007 9486
L25970 9523
L25932 9542
" />
<path d="M26495 9561
L26495 9823
" />
<path d="M26401 9411
L26307 9692
L26551 9692
" />
<path d="M22220 9430
L22220 9711
L22201 9767
L22164 9805
L22108 9823
L22070 9823
" />
<path d="M22614 9823
L22389 9823
" />
<path d="M22501 9823
L22501 9430
L22464 9486
L22426 9523
L22389 9542
" />
<path d="M22970 9430
L22783 9430
L22764 9617
L22783 9598
L22820 9580
L22914 9580
L22951 9598
L22970 9617
L22989 9655
L22989 9748
L22970 9786
L22951 9805
L22914 9823
L22820 9823
L22783 9805
L22764 9786
" />
<path d="M15035 23536
L15035 23817
L15016 23873
L14979 23911
L14923 23930
L14885 23930
" />
<path d="M15429 23930
L15204 23930
" />
<path d="M15316 23930
L15316 23536
L15279 23592
L15241 23630
L15204 23648
" />
<path d="M15766 23536
L15691 23536
L15654 23555
L15635 23573
L15598 23630
L15579 23705
L15579 23855
L15598 23892
L15616 23911
L15654 23930
L15729 23930
L15766 23911
L15785 23892
L15804 23855
L15804 23761
L15785 23723
L15766 23705
L15729 23686
L15654 23686
L15616 23705
L15598 23723
L15579 23761
" />
<path d="M9728 21605
L9728 21887
L9709 21943
L9671 21980
L9615 21999
L9578 21999
" />
<path d="M10121 21999
L9896 21999
" />
<path d="M10009 21999
L10009 21605
L9971 21662
L9934 21699
L9896 21718
" />
<path d="M10253 21605
L10515 21605
L10346 21999
" />
<path d="M9728 15525
L9728 15807
L9709 15863
L9671 15900
L9615 15919
L9578 15919
" />
<path d="M10121 15919
L9896 15919
" />
<path d="M10009 15919
L10009 15525
L9971 15582
L9934 15619
L9896 15638
" />
<path d="M10346 15694
L10309 15675
L10290 15657
L10271 15619
L10271 15600
L10290 15563
L10309 15544
L10346 15525
L10421 15525
L10459 15544
L10478 15563
L10496 15600
L10496 15619
L10478 15657
L10459 15675
L10421 15694
L10346 15694
L10309 15713
L10290 15732
L10271 15769
L10271 15844
L10290 15882
L10309 15900
L10346 15919
L10421 15919
L10459 15900
L10478 15882
L10496 15844
L10496 15769
L10478 15732
L10459 15713
L10421 15694
" />
<path d="M14997 12825
L14809 12956
" />
<path d="M14997 13050
L14603 13050
L14603 12900
L14622 12863
L14640 12844
L14678 12825
L14734 12825
L14772 12844
L14790 12863
L14809 12900
L14809 13050
" />
<path d="M14997 12450
L14997 12675
" />
<path d="M14997 12563
L14603 12563
L14659 12600
L14697 12638
L14715 12675
" />
<path d="M10861 13212
L11142 13212
L11198 13231
L11235 13268
L11254 13324
L11254 13362
" />
<path d="M10898 13043
L10879 13024
L10861 12987
L10861 12893
L10879 12856
L10898 12837
L10936 12818
L10973 12818
L11029 12837
L11254 13062
L11254 12818
" />
<path d="M10861 12574
L10861 12537
L10879 12500
L10898 12481
L10936 12462
L11010 12443
L11104 12443
L11179 12462
L11217 12481
L11235 12500
L11254 12537
L11254 12574
L11235 12612
L11217 12631
L11179 12649
L11104 12668
L11010 12668
L10936 12649
L10898 12631
L10879 12612
L10861 12574
" />
<path d="M15851 8642
L15851 8248
L15944 8248
L16001 8267
L16038 8305
L16057 8342
L16076 8417
L16076 8473
L16057 8548
L16038 8586
L16001 8623
L15944 8642
L15851 8642
" />
<path d="M16451 8642
L16226 8642
" />
<path d="M16338 8642
L16338 8248
L16301 8305
L16263 8342
L16226 8361
" />
<path d="M15851 6674
L15851 6280
L15944 6280
L16001 6299
L16038 6336
L16057 6374
L16076 6449
L16076 6505
L16057 6580
L16038 6617
L16001 6655
L15944 6674
L15851 6674
" />
<path d="M16226 6317
L16244 6299
L16282 6280
L16376 6280
L16413 6299
L16432 6317
L16451 6355
L16451 6392
L16432 6449
L16207 6674
L16451 6674
" />
<path d="M11670 8500
L11539 8313
" />
<path d="M11445 8500
L11445 8107
L11595 8107
L11633 8125
L11651 8144
L11670 8182
L11670 8238
L11651 8275
L11633 8294
L11595 8313
L11445 8313
" />
<path d="M11820 8144
L11839 8125
L11876 8107
L11970 8107
L12008 8125
L12026 8144
L12045 8182
L12045 8219
L12026 8275
L11801 8500
L12045 8500
" />
<path d="M11670 6532
L11539 6344
" />
<path d="M11445 6532
L11445 6138
L11595 6138
L11633 6157
L11651 6176
L11670 6213
L11670 6269
L11651 6307
L11633 6326
L11595 6344
L11445 6344
" />
<path d="M11801 6138
L12045 6138
L11914 6288
L11970 6288
L12008 6307
L12026 6326
L12045 6363
L12045 6457
L12026 6494
L12008 6513
L11970 6532
L11858 6532
L11820 6513
L11801 6494
" />
<path d="M14904 16404
L14923 16422
L14941 16479
L14941 16516
L14923 16572
L14885 16610
L14848 16629
L14773 16647
L14716 16647
L14641 16629
L14604 16610
L14566 16572
L14548 16516
L14548 16479
L14566 16422
L14585 16404
" />
<path d="M14941 16029
L14941 16254
" />
<path d="M14941 16141
L14548 16141
L14604 16179
L14641 16216
L14660 16254
" />
</g> 
</svg>
